<svg xmlns="http://www.w3.org/2000/svg" xmlns:xlink="http://www.w3.org/1999/xlink" width="20.097" height="15.791" viewBox="0 0 20.097 15.791"><defs><style>.a{fill:url(#a);}</style><linearGradient id="a" x1="0.5" x2="0.5" y2="1" gradientUnits="objectBoundingBox"><stop offset="0" stop-color="#9160ff"/><stop offset="1" stop-color="#5e75ff"/></linearGradient></defs><path class="a" d="M499.025,5557.321a16.327,16.327,0,0,0-4.146-1.321c-.179.331-.387.768-.531,1.12a14.949,14.949,0,0,0-4.6,0,12.169,12.169,0,0,0-.538-1.12,16.058,16.058,0,0,0-4.149,1.328,17.834,17.834,0,0,0-2.979,11.814,16.474,16.474,0,0,0,5.085,2.648,13.107,13.107,0,0,0,1.089-1.823,10.528,10.528,0,0,1-1.715-.847c.144-.107.284-.222.42-.337a11.552,11.552,0,0,0,10.168,0c.137.115.278.229.42.337a10.622,10.622,0,0,1-1.718.847,12.973,12.973,0,0,0,1.09,1.823,16.478,16.478,0,0,0,5.088-2.648A17.841,17.841,0,0,0,499.025,5557.321Zm-10.314,9.446a2.111,2.111,0,0,1,0-4.177,2.111,2.111,0,0,1,0,4.177Zm6.677,0a2.111,2.111,0,0,1,0-4.177,2.111,2.111,0,0,1,0,4.177Z" transform="translate(-482 -5556)"/></svg>