<svg width="24" height="24" viewBox="0 0 24 24" fill="none" xmlns="http://www.w3.org/2000/svg">
<g id="icon_sys">
<path id="Vector" d="M22 11.9919C22 6.47353 17.5229 2 12.0001 2C6.47719 2 2 6.47353 2 11.9919C2 17.0895 5.82027 21.2952 10.7561 21.9072C11.0343 21.9658 11.3732 22 11.7769 22C11.8902 22 11.9995 21.994 12.105 21.9832C17.5795 21.927 22 17.4755 22 11.9919ZM20.5701 12.1333C20.5413 11.6347 20.4755 11.1467 20.3752 10.6725C20.3841 10.5031 20.3865 10.3427 20.382 10.1935C20.506 10.7734 20.5714 11.375 20.5714 11.9919C20.5714 12.0391 20.5709 12.0862 20.5701 12.1333ZM3.4286 11.9919C3.4286 11.3863 3.49166 10.7954 3.61132 10.2253C3.98148 10.6211 4.85393 10.6118 5.0667 10.0203C5.4474 10.2472 5.959 10.2885 5.959 10.742C5.959 12.2386 6.0123 13.8431 7.3722 13.8679C7.41049 13.8684 8.1306 14.1408 8.47331 15.0295C8.5918 15.3367 9.06051 15.0295 9.57451 15.0295C9.83111 15.0295 9.57451 15.4618 9.57451 16.3965C9.57451 17.3277 11.5821 18.7614 11.5821 18.7614C11.5728 19.3778 11.5981 19.8761 11.6494 20.2743C11.1963 20.266 10.8144 20.326 10.5143 20.4281C6.48862 19.7252 3.4286 16.2158 3.4286 11.9919ZM14.1102 20.2948C14.0658 20.0773 13.8714 19.9582 13.5167 20.0514C13.7997 18.8463 13.9373 18.1712 14.5281 17.6586C15.3829 16.9177 14.6299 16.0937 13.9794 16.1908C13.4667 16.2682 13.7907 15.5561 13.3331 15.5167C12.8755 15.4784 12.2779 14.5682 11.6193 14.2551C11.2702 14.0893 10.9271 13.645 10.3887 13.6251C9.91151 13.6066 9.21411 14.0286 9.21411 13.7033C9.21411 12.6556 9.10802 11.9079 9.08621 11.6093C9.06861 11.3695 8.9294 11.5285 9.57451 11.544C9.9256 11.5534 9.7541 10.8389 10.1016 10.811C10.4429 10.784 11.2562 11.1305 11.4634 10.9924C11.6559 10.8638 12.8784 14.2012 12.8784 11.544C12.8784 11.2287 12.7151 10.6806 12.8784 10.382C13.5242 9.20205 14.1288 8.24041 14.0745 8.09974C14.0437 8.02054 13.4138 7.95514 12.9098 8.12424C12.7397 8.18103 12.9639 8.44742 12.7196 8.50432C11.8043 8.71561 10.9956 8.25753 11.2788 7.82697C11.5688 7.3857 12.6195 7.63448 12.7116 6.74923C12.7646 6.24217 12.8085 5.6549 12.8379 5.21843C14.0698 5.41106 13.9342 3.61981 12.1025 3.42808C15.8081 3.47143 18.9482 5.86441 20.1005 9.18553C20.0422 9.13238 19.9744 9.10007 19.8961 9.09219C19.3423 7.70898 17.9981 8.71001 18.4541 9.93004C16.0109 11.808 16.6363 13.1178 17.439 13.8679C17.8614 14.2622 18.2641 14.8551 18.5263 15.281C18.2409 16.1131 19.5778 15.7799 20.2371 14.3678C19.3985 17.2762 17.0588 19.549 14.1102 20.2948Z" fill="url(#paint0_linear_23_17759)"/>
</g>
<defs>
<linearGradient id="paint0_linear_23_17759" x1="0.0414888" y1="-3.74478" x2="0.0414888" y2="22" gradientUnits="userSpaceOnUse">
<stop stop-color="#9160FF"/>
<stop offset="1" stop-color="#5E75FF"/>
</linearGradient>
</defs>
</svg>
