<svg xmlns="http://www.w3.org/2000/svg" xmlns:xlink="http://www.w3.org/1999/xlink" width="21.904" height="21.904" viewBox="0 0 21.904 21.904"><defs><style>.a{fill:url(#a);}</style><linearGradient id="a" x1="0.5" x2="0.5" y2="1" gradientUnits="objectBoundingBox"><stop offset="0" stop-color="#9160ff"/><stop offset="1" stop-color="#5e75ff"/></linearGradient></defs><path class="a" d="M10.952,0A10.952,10.952,0,1,1,0,10.952,10.952,10.952,0,0,1,10.952,0ZM2.8,8.759c-.1.1-.1.1,0,.2a.9.9,0,0,1-1.264.227A9.586,9.586,0,0,0,9.493,20.424l-.008-.007-.164-.082a3.6,3.6,0,0,1,1.02-.1,9.544,9.544,0,0,1-.1-1.7S7.9,16.844,7.9,15.845s.305-1.5,0-1.5c-.511,0-1.123.4-1.224,0a1.96,1.96,0,0,0-1.224-1.3c-1.4,0-1.6-1.511-1.629-3.069V9.558c0-.5-.612-.5-1.02-.8Zm8.734-7.372.118.031c1.552.474,1.6,2.04.323,1.848a10.11,10.11,0,0,1-.1,1.695c-.1,1-1.327.7-1.632,1.2s.612,1,1.632.8c.305,0,0-.3.205-.4a3,3,0,0,1,1.324,0,21.388,21.388,0,0,1-1.428,2.6c-.205.3,0,.9,0,1.3,0,3-1.428-.7-1.632-.6-.2.2-1.12-.2-1.528-.2s-.205.8-.612.8c-.816,0-.612-.2-.612.1,0,.4.1,1.2.1,2.4,0,.4.816-.1,1.325-.1.612,0,1.02.5,1.428.7.712.3,1.427,1.3,1.936,1.4s.1.9.712.8a.9.9,0,0,1,.917.4.845.845,0,0,1-.305,1.2,4.813,4.813,0,0,0-1.12,2.694c.167-.055.364.085.527.253a9.6,9.6,0,0,0,6.805-5.936c-.775.823-1.67.886-1.4.189a6.132,6.132,0,0,0-1.224-1.6c-.919-.8-1.735-2.3,1.121-4.395-.442-1.125.653-2.177,1.348-1.388a9.583,9.583,0,0,0-8.222-5.777Z"/></svg>