<svg xmlns="http://www.w3.org/2000/svg" xmlns:xlink="http://www.w3.org/1999/xlink" width="22.055" height="21.904" viewBox="0 0 22.055 21.904"><defs><style>.a{fill:url(#a);}</style><linearGradient id="a" x1="0.5" x2="0.5" y2="1" gradientUnits="objectBoundingBox"><stop offset="0" stop-color="#9160ff"/><stop offset="1" stop-color="#5e75ff"/></linearGradient></defs><g transform="translate(-100.2 -101.2)"><path class="a" d="M112.841,123.1h-9.4a3.248,3.248,0,0,1-3.244-3.244V104.444a3.248,3.248,0,0,1,3.244-3.244h9.4a3.248,3.248,0,0,1,3.244,3.244v1.348a1.1,1.1,0,1,1-2.205,0v-1.348a1.04,1.04,0,0,0-1.039-1.039h-9.4a1.04,1.04,0,0,0-1.039,1.039V119.86a1.04,1.04,0,0,0,1.039,1.039h9.4a1.04,1.04,0,0,0,1.039-1.039v-1.185a1.1,1.1,0,1,1,2.205,0v1.185A3.25,3.25,0,0,1,112.841,123.1Z"/><path class="a" d="M440.4,473.205H430A1.1,1.1,0,1,1,430,471h10.4a1.1,1.1,0,1,1,0,2.205Z" transform="translate(-319.945 -359.95)"/><path class="a" d="M707.254,341.277a1.1,1.1,0,0,1-.78-1.883l2.93-2.93-2.93-2.93a1.1,1.1,0,0,1,1.561-1.561l3.708,3.71a1.1,1.1,0,0,1,0,1.561l-3.708,3.708A1.1,1.1,0,0,1,707.254,341.277Z" transform="translate(-589.811 -224.312)"/></g></svg>