<svg xmlns="http://www.w3.org/2000/svg" xmlns:xlink="http://www.w3.org/1999/xlink" width="17.825" height="15.5" viewBox="0 0 17.825 15.5"><defs><style>.a{fill:url(#a);}</style><linearGradient id="a" x1="0.5" x2="0.5" y2="1" gradientUnits="objectBoundingBox"><stop offset="0" stop-color="#c4aaff"/><stop offset="1" stop-color="#b7c1ff"/></linearGradient></defs><path class="a" d="M26.73,83.258a.775.775,0,0,0-.825.106l-4.457,3.71-3.555-.014a.775.775,0,0,0-.775.774l-.016,6.2a.775.775,0,0,0,.775.777h3.595l4.435,3.7a.775.775,0,0,0,1.271-.6V83.959a.775.775,0,0,0-.447-.7h0Zm3,3.875a.772.772,0,0,0-1.022.364.78.78,0,0,0,.354,1.034,2.549,2.549,0,0,1,1.21,2.347,2.689,2.689,0,0,1-1.122,2.464.776.776,0,0,0,.693,1.388,4.167,4.167,0,0,0,1.978-3.851,4.061,4.061,0,0,0-2.092-3.745h0Zm2.413-2.276a.775.775,0,0,0-.84,1.3,5.637,5.637,0,0,1,2.069,4.775c0,3.375-1.9,4.729-1.98,4.78A.775.775,0,1,0,32.257,97c.109-.072,2.67-1.828,2.67-6.07a7.139,7.139,0,0,0-2.779-6.078h0ZM32.148,84.857Z" transform="translate(-17.102 -83.185)"/></svg>