<svg xmlns="http://www.w3.org/2000/svg" xmlns:xlink="http://www.w3.org/1999/xlink" width="24.405" height="24.405" viewBox="0 0 24.405 24.405"><defs><style>.a{fill:url(#a);}.b{fill:#fff;}</style><linearGradient id="a" x1="0.5" x2="0.5" y2="1" gradientUnits="objectBoundingBox"><stop offset="0" stop-color="#9160ff"/><stop offset="1" stop-color="#5e75ff"/></linearGradient></defs><g transform="translate(-38 -1944)"><g transform="translate(-2 1904)"><path class="a" d="M253.03,254.064h-12A1.034,1.034,0,0,1,240,253.03v-12A1.034,1.034,0,0,1,241.034,240h12a1.034,1.034,0,0,1,1.034,1.034v12A1.034,1.034,0,0,1,253.03,254.064Z" transform="translate(-194.829 -194.829)"/><path class="b" d="M245.236,246.477h-12A1.242,1.242,0,0,1,232,245.236v-12A1.242,1.242,0,0,1,233.241,232h12a1.242,1.242,0,0,1,1.241,1.241v12A1.242,1.242,0,0,1,245.236,246.477Zm-12-14.064a.828.828,0,0,0-.827.827v12a.828.828,0,0,0,.827.827h12a.828.828,0,0,0,.827-.827v-12a.828.828,0,0,0-.827-.827Z" transform="translate(-187.036 -187.036)"/><path class="a" d="M298.548,299.582h-9.514A1.034,1.034,0,0,1,288,298.548v-9.514A1.034,1.034,0,0,1,289.034,288h9.514a1.034,1.034,0,0,1,1.034,1.034v9.514A1.034,1.034,0,0,1,298.548,299.582Z" transform="translate(-242 -242)"/><path class="b" d="M290.755,292h-9.514A1.242,1.242,0,0,1,280,290.755v-9.514A1.242,1.242,0,0,1,281.241,280h9.514A1.242,1.242,0,0,1,292,281.241v9.514A1.242,1.242,0,0,1,290.755,292Zm-9.514-11.582a.828.828,0,0,0-.827.827v9.514a.828.828,0,0,0,.827.827h9.514a.828.828,0,0,0,.827-.827v-9.514a.828.828,0,0,0-.827-.827Z" transform="translate(-233.795 -233.795)"/><path class="b" d="M301.584,42.9a1.034,1.034,0,1,1,1.034-1.034A1.035,1.035,0,0,1,301.584,42.9Zm0-1.655a.62.62,0,1,0,.62.62A.621.621,0,0,0,301.584,41.241Zm-4.55.827a1.034,1.034,0,1,1,1.034-1.034A1.035,1.035,0,0,1,297.034,42.068Zm0-1.655a.62.62,0,1,0,.62.62A.621.621,0,0,0,297.034,40.414Z" transform="translate(-249.382)"/><path class="b" d="M330.275,45.377a.208.208,0,0,1-.129-.045l-2.068-1.655a.207.207,0,0,1-.078-.162V41.861a.207.207,0,1,1,.414,0v1.555l1.99,1.593a.207.207,0,0,1-.129.368Zm7.032-3.309a1.034,1.034,0,1,1,1.034-1.034A1.035,1.035,0,0,1,337.307,42.068Zm0-1.655a.62.62,0,1,0,.62.62A.621.621,0,0,0,337.307,40.414Z" transform="translate(-280.554)"/><path class="b" d="M506.689,107.723a.207.207,0,0,1-.129-.369l1.99-1.593v-1.555a.207.207,0,1,1,.414,0v1.655a.207.207,0,0,1-.078.162l-2.068,1.655A.205.205,0,0,1,506.689,107.723Zm-2.482,16.546a.207.207,0,0,1-.207-.207V121.58a.207.207,0,1,1,.414,0v2.482A.207.207,0,0,1,504.207,124.268Z" transform="translate(-452.004 -62.345)"/><path class="b" d="M473.034,874.068a1.034,1.034,0,1,1,1.034-1.034A1.035,1.035,0,0,1,473.034,874.068Zm0-1.655a.62.62,0,1,0,.62.62A.621.621,0,0,0,473.034,872.414Zm4.55,2.482a1.034,1.034,0,1,1,1.034-1.034A1.035,1.035,0,0,1,477.584,874.9Zm0-1.655a.62.62,0,1,0,.62.62A.621.621,0,0,0,477.584,873.241Z" transform="translate(-420.832 -810.491)"/><path class="b" d="M306.134,779.984a.207.207,0,0,1-.207-.207v-1.555l-1.99-1.593a.207.207,0,0,1,.259-.323l2.068,1.655a.208.208,0,0,1,.077.162v1.655A.207.207,0,0,1,306.134,779.984Zm-9.1,1.655a1.034,1.034,0,1,1,1.034-1.034A1.035,1.035,0,0,1,297.034,781.639Zm0-1.655a.62.62,0,1,0,.62.62A.621.621,0,0,0,297.034,779.984Z" transform="translate(-249.382 -717.234)"/><path class="b" d="M328.207,514.755a.207.207,0,0,1-.207-.207v-1.655a.207.207,0,0,1,.078-.162l2.068-1.655a.207.207,0,0,1,.259.323l-1.991,1.593v1.555A.207.207,0,0,1,328.207,514.755Zm14.064-10.341h-2.482a.207.207,0,1,1,0-.414h2.482a.207.207,0,1,1,0,.414Z" transform="translate(-280.554 -452.004)"/><path class="b" d="M873.034,302.618a1.034,1.034,0,1,1,1.034-1.034A1.035,1.035,0,0,1,873.034,302.618Zm0-1.655a.62.62,0,1,0,.62.62A.621.621,0,0,0,873.034,300.964Zm.827-2.9a1.034,1.034,0,1,1,1.034-1.034A1.035,1.035,0,0,1,873.861,298.068Zm0-1.655a.62.62,0,1,0,.62.62A.621.621,0,0,0,873.861,296.414Z" transform="translate(-810.491 -249.382)"/><path class="b" d="M776.234,330.482a.207.207,0,0,1-.161-.336l1.655-2.068a.206.206,0,0,1,.161-.078h1.655a.207.207,0,1,1,0,.414h-1.555L776.4,330.4a.205.205,0,0,1-.161.078Zm4.136,7.859a1.034,1.034,0,1,1,1.034-1.034A1.035,1.035,0,0,1,780.371,338.341Zm0-1.655a.62.62,0,1,0,.62.62A.621.621,0,0,0,780.371,336.686Z" transform="translate(-717 -280.554)"/><path class="b" d="M156.062,508.964h-1.655a.208.208,0,0,1-.162-.078l-1.655-2.068a.207.207,0,0,1,.323-.259l1.593,1.99h1.555a.207.207,0,0,1,0,.414Zm-17.373-4.55h-2.482a.207.207,0,0,1,0-.414h2.482a.207.207,0,0,1,0,.414Z" transform="translate(-93.518 -452.004)"/><path class="b" d="M41.861,474.068a1.034,1.034,0,1,1,1.034-1.034A1.035,1.035,0,0,1,41.861,474.068Zm0-1.655a.62.62,0,1,0,.62.62A.621.621,0,0,0,41.861,472.414Zm-.827,6.2a1.034,1.034,0,1,1,1.034-1.034A1.035,1.035,0,0,1,41.034,478.618Zm0-1.655a.62.62,0,1,0,.62.62A.621.621,0,0,0,41.034,476.964Z" transform="translate(0 -420.832)"/><path class="b" d="M105.861,602.83h-1.655a.207.207,0,1,1,0-.414h1.555l1.593-1.99a.207.207,0,0,1,.323.259l-1.655,2.068A.208.208,0,0,1,105.861,602.83Z" transform="translate(-62.345 -545.87)"/><path class="b" d="M41.034,298.068a1.034,1.034,0,1,1,1.034-1.034A1.035,1.035,0,0,1,41.034,298.068Zm0-1.655a.62.62,0,1,0,.62.62A.621.621,0,0,0,41.034,296.414Z" transform="translate(0 -249.382)"/><path class="b" d="M107.516,330.482a.206.206,0,0,1-.162-.078l-1.592-1.99h-1.555a.207.207,0,1,1,0-.414h1.655a.208.208,0,0,1,.162.078l1.655,2.068a.207.207,0,0,1-.162.336Z" transform="translate(-62.345 -280.554)"/></g><g transform="translate(47 1953)"><path class="b" d="M374.319,420.448h-1.871v1.871h1.871Z" transform="translate(-370.132 -418.132)"/><path class="b" d="M302.744,348v1.12H301.12v1.624H300v-1.937l.807-.807Z" transform="translate(-300 -348)"/><path class="b" d="M420.337,348.807v1.937h-1.119V349.12h-1.625V348h1.938Z" transform="translate(-413.834 -348)"/><path class="b" d="M420.337,465.593v1.937l-.806.807h-1.938v-1.119h1.625v-1.624Z" transform="translate(-413.834 -461.834)"/><path class="b" d="M302.744,467.217v1.119h-1.937L300,467.53v-1.937h1.12v1.624Z" transform="translate(-300 -461.834)"/></g></g></svg>