<svg xmlns="http://www.w3.org/2000/svg" xmlns:xlink="http://www.w3.org/1999/xlink" width="22.081" height="24.405" viewBox="0 0 22.081 24.405"><defs><style>.a{fill:url(#a);}.b{fill:#fff;}.c{fill:#9160ff;}</style><linearGradient id="a" x1="0.5" x2="0.5" y2="1" gradientUnits="objectBoundingBox"><stop offset="0" stop-color="#9160ff"/><stop offset="1" stop-color="#5e75ff"/></linearGradient></defs><g transform="translate(-156 -1944)"><g transform="translate(-2250.286 -3393)"><path class="a" d="M280,528v11.234a.387.387,0,0,0,.387.387h10.459a.387.387,0,0,0,.387-.387V528" transform="translate(2131.709 4821.59)"/><path class="b" d="M283.04,532.009H272.581a.582.582,0,0,1-.581-.581V520.194a.194.194,0,0,1,.387,0v11.234a.194.194,0,0,0,.194.194H283.04a.194.194,0,0,0,.194-.194V520.194a.194.194,0,0,1,.387,0v11.234A.582.582,0,0,1,283.04,532.009Z" transform="translate(2139.515 4829.396)"/><path class="a" d="M352,528v9.878h7.748V528" transform="translate(2061.452 4821.59)"/><path class="b" d="M351.941,530.266h-7.748a.194.194,0,0,1-.194-.194v-9.878a.194.194,0,0,1,.387,0v9.684h7.36v-9.684a.194.194,0,0,1,.387,0v9.878A.194.194,0,0,1,351.941,530.266Z" transform="translate(2069.259 4829.396)"/><path class="c" d="M400.816,528a2.712,2.712,0,1,0,3.792,0" transform="translate(2014.614 4821.59)"/><path class="b" d="M316.842,525.028a2.9,2.9,0,0,1-2.031-4.981.194.194,0,0,1,.271.277,2.518,2.518,0,1,0,3.521,0,.194.194,0,1,1,.271-.277,2.9,2.9,0,0,1-2.031,4.981Zm4.649,6h-2.324a.194.194,0,0,1-.194-.194,2.521,2.521,0,0,1,2.518-2.518.194.194,0,0,1,.194.194v2.324A.194.194,0,0,1,321.491,531.032Zm-2.122-.387H321.3v-1.928A2.134,2.134,0,0,0,319.369,530.645Zm-4.851.387h-2.324a.194.194,0,0,1-.194-.194v-2.324a.194.194,0,0,1,.194-.194,2.521,2.521,0,0,1,2.518,2.518A.194.194,0,0,1,314.518,531.032Zm-2.131-.387h1.928a2.134,2.134,0,0,0-1.928-1.928Z" transform="translate(2100.484 4829.404)"/><path class="b" d="M76.918,23.882H73.432a.194.194,0,1,1,0-.387h3.486a.776.776,0,0,0,.775-.775V15.36a.776.776,0,0,0-.775-.775h-3.68a.194.194,0,0,1-.194-.194,6,6,0,0,0-12.009,0,.194.194,0,0,1-.194.194h-3.68a.776.776,0,0,0-.775.775v7.36a.776.776,0,0,0,.775.775h3.486a.194.194,0,0,1,0,.387H57.162A1.164,1.164,0,0,1,56,22.72V15.36A1.164,1.164,0,0,1,57.162,14.2h3.489a6.392,6.392,0,0,1,12.778,0h3.489a1.164,1.164,0,0,1,1.162,1.162v7.36A1.164,1.164,0,0,1,76.918,23.882Z" transform="translate(2350.286 5329)"/><path class="b" d="M169.238,492.261h-2.131a.194.194,0,1,1,0-.387h1.937v-3.293a.194.194,0,0,0-.194-.194h-16.27a.194.194,0,0,0-.194.194v3.293h1.937a.194.194,0,1,1,0,.387h-2.131a.194.194,0,0,1-.194-.194v-3.486a.582.582,0,0,1,.581-.581h16.27a.582.582,0,0,1,.581.581v3.486A.194.194,0,0,1,169.238,492.261Z" transform="translate(2256.61 4860.621)"/><path class="a" d="M355.874,115.874m-3.874,0A3.874,3.874,0,1,0,355.874,112,3.874,3.874,0,0,0,352,115.874Z" transform="translate(2061.452 5227.518)"/><path class="b" d="M348.067,112.135a4.067,4.067,0,1,1,4.067-4.067A4.072,4.072,0,0,1,348.067,112.135Zm0-7.748a3.68,3.68,0,1,0,3.68,3.68A3.684,3.684,0,0,0,348.067,104.387Z" transform="translate(2069.259 5235.324)"/><path class="b" d="M216.91,599.8h-.581a.194.194,0,1,1,0-.387h.581a.194.194,0,0,1,0,.387Zm-2.518,0h-.581a.194.194,0,1,1,0-.387h.581a.194.194,0,1,1,0,.387Zm-6.2,3.5A.194.194,0,0,1,208,603.1v-.387a.194.194,0,1,1,.387,0v.387A.194.194,0,0,1,208.194,603.3Zm0,4.648a.194.194,0,0,1-.194-.194v-3.874a.194.194,0,0,1,.387,0v3.874A.194.194,0,0,1,208.194,607.945Zm14.333,0a.194.194,0,0,1-.194-.194v-.387a.194.194,0,0,1,.387,0v.387A.194.194,0,0,1,222.527,607.945Zm0-1.162a.194.194,0,0,1-.194-.194v-3.874a.194.194,0,1,1,.387,0v3.874A.194.194,0,0,1,222.527,606.782Z" transform="translate(2201.966 4751.911)"/><path class="b" d="M153.743,80.387h-1.549a.194.194,0,1,1,0-.387h1.549a.194.194,0,1,1,0,.387Z" transform="translate(2256.61 5258.743)"/><path class="b" d="M184.194,49.937a.194.194,0,0,1-.194-.194v-1.55a.194.194,0,1,1,.387,0v1.55A.194.194,0,0,1,184.194,49.937Z" transform="translate(2225.385 5289.968)"/><path class="b" d="M73.743,176.387h-1.55a.194.194,0,1,1,0-.387h1.55a.194.194,0,1,1,0,.387Z" transform="translate(2334.673 5165.067)"/><path class="b" d="M104.194,145.937a.194.194,0,0,1-.194-.194v-1.549a.194.194,0,1,1,.387,0v1.549A.194.194,0,0,1,104.194,145.937Z" transform="translate(2303.448 5196.292)"/></g><g transform="translate(165.33 1948.8)"><path class="b" d="M373.432,420.448h-.984v.984h.984Z" transform="translate(-371.23 -419.23)"/><path class="b" d="M301.444,348v.589h-.855v.855H300v-1.019l.424-.424Z" transform="translate(-300 -348)"/><path class="b" d="M419.036,348.424v1.019h-.589v-.855h-.855V348h1.019Z" transform="translate(-415.616 -348)"/><path class="b" d="M419.036,465.593v1.019l-.424.424h-1.019v-.589h.855v-.855Z" transform="translate(-415.616 -463.616)"/><path class="b" d="M301.444,466.448v.589h-1.019l-.424-.424v-1.019h.589v.855Z" transform="translate(-300 -463.616)"/></g></g></svg>