<svg xmlns="http://www.w3.org/2000/svg" xmlns:xlink="http://www.w3.org/1999/xlink" width="24.011" height="24.405" viewBox="0 0 24.011 24.405"><defs><style>.a{fill:url(#a);}.b{fill:#fff;}</style><linearGradient id="a" x1="0.5" x2="0.5" y2="1" gradientUnits="objectBoundingBox"><stop offset="0" stop-color="#9160ff"/><stop offset="1" stop-color="#5e75ff"/></linearGradient></defs><g transform="translate(-263 -1944)"><g transform="translate(-2292.989 -3391)"><path class="a" d="M303.936,139.936m-3.936,0A3.936,3.936,0,1,0,303.936,136,3.936,3.936,0,0,0,300,139.936Z" transform="translate(2262.989 5202)"/><path class="b" d="M296.133,136.266a4.133,4.133,0,1,1,4.133-4.133A4.138,4.138,0,0,1,296.133,136.266Zm0-7.873a3.739,3.739,0,1,0,3.739,3.739A3.744,3.744,0,0,0,296.133,128.394Zm10.53,10.825a.2.2,0,0,1-.2-.2v-2.952a1.773,1.773,0,0,0-1.771-1.771H300.62a.2.2,0,1,1,0-.394h4.075a2.167,2.167,0,0,1,2.165,2.165v2.952A.2.2,0,0,1,306.663,139.218Z" transform="translate(2270.582 5209.755)"/><path class="b" d="M43.288,383.745H26.165A2.167,2.167,0,0,1,24,381.58V370.165A2.167,2.167,0,0,1,26.165,368H30.24a.2.2,0,0,1,0,.394H26.165a1.773,1.773,0,0,0-1.771,1.771V381.58a1.773,1.773,0,0,0,1.771,1.771H43.288a1.773,1.773,0,0,0,1.771-1.771v-2.952a.2.2,0,0,1,.394,0v2.952A2.167,2.167,0,0,1,43.288,383.745Z" transform="translate(2531.989 4975.66)"/><path class="a" d="M686.692,611.936h-5.708a.984.984,0,0,1-.984-.984v-1.968a.984.984,0,0,1,.984-.984h5.708a.984.984,0,0,1,.984.984v1.968A.984.984,0,0,1,686.692,611.936Z" transform="translate(1892.127 4741.564)"/><path class="b" d="M93.649,604.33H87.942a1.182,1.182,0,0,1-1.181-1.181v-1.968A1.182,1.182,0,0,1,87.942,600h5.708a1.182,1.182,0,0,1,1.181,1.181v1.968A1.182,1.182,0,0,1,93.649,604.33Zm-5.708-3.936a.788.788,0,0,0-.787.787v1.968a.788.788,0,0,0,.787.787h5.708a.788.788,0,0,0,.787-.787v-1.968a.788.788,0,0,0-.787-.787Zm-14.761,7.676H72.2a.2.2,0,0,1,0-.394h.984a.2.2,0,0,1,0,.394Zm1.968,0h-.984a.2.2,0,0,1,0-.394h.984a.2.2,0,0,1,0,.394Zm1.968,0h-.984a.2.2,0,0,1,0-.394h.984a.2.2,0,0,1,0,.394Zm1.968,0H78.1a.2.2,0,0,1,0-.394h.984a.2.2,0,0,1,0,.394Zm1.968,0h-.984a.2.2,0,0,1,0-.394h.984a.2.2,0,0,1,0,.394Zm1.968,0h-.984a.2.2,0,0,1,0-.394h.984a.2.2,0,0,1,0,.394Zm1.968,0h-.984a.2.2,0,0,1,0-.394h.984a.2.2,0,0,1,0,.394Zm1.968,0h-.984a.2.2,0,0,1,0-.394h.984a.2.2,0,0,1,0,.394Zm1.968,0h-.984a.2.2,0,0,1,0-.394h.984a.2.2,0,0,1,0,.394Zm1.968,0H89.91a.2.2,0,0,1,0-.394h.984a.2.2,0,0,1,0,.394Z" transform="translate(2485.17 4749.367)"/><path class="b" d="M720.984,648.984m-.984,0a.984.984,0,1,0,.984-.984A.984.984,0,0,0,720,648.984Z" transform="translate(1853.112 4702.548)"/><path class="b" d="M713.181,142.958a1.181,1.181,0,1,1,1.181-1.181A1.182,1.182,0,0,1,713.181,142.958Zm0-1.968a.787.787,0,1,0,.787.787A.788.788,0,0,0,713.181,140.99Zm.59-11.022a.2.2,0,0,1-.2-.2V128.2a.2.2,0,1,1,.394,0v1.575A.2.2,0,0,1,713.771,129.968Z" transform="translate(1860.915 5209.755)"/><path class="b" d="M667.739,19.936h-1.574a.2.2,0,1,1,0-.394h1.574a.2.2,0,1,1,0,.394ZM664.2,17.968a.2.2,0,0,1-.2-.2V16.2a.2.2,0,1,1,.394,0v1.575A.2.2,0,0,1,664.2,17.968Z" transform="translate(1907.734 5319)"/><path class="b" d="M633.771,48.394H632.2a.2.2,0,1,1,0-.394h1.574a.2.2,0,1,1,0,.394Z" transform="translate(1938.947 5287.787)"/><path class="b" d="M754.165,418.362a.2.2,0,0,1-.2-.2v-.984a.788.788,0,0,0-.787-.787H752.2a.2.2,0,1,1,0-.394h.984a1.182,1.182,0,0,1,1.181,1.181v.984A.2.2,0,0,1,754.165,418.362Z" transform="translate(1821.899 4928.841)"/></g><g transform="translate(272 1949)"><path class="b" d="M373.432,420.448h-.984v.984h.984Z" transform="translate(-371.23 -419.23)"/><path class="b" d="M301.444,348v.589h-.855v.855H300v-1.019l.424-.424Z" transform="translate(-300 -348)"/><path class="b" d="M419.036,348.424v1.019h-.589v-.855h-.855V348h1.019Z" transform="translate(-415.616 -348)"/><path class="b" d="M419.036,465.593v1.019l-.424.424h-1.019v-.589h.855v-.855Z" transform="translate(-415.616 -463.616)"/><path class="b" d="M301.444,466.448v.589h-1.019l-.424-.424v-1.019h.589v.855Z" transform="translate(-300 -463.616)"/></g></g></svg>