<svg xmlns="http://www.w3.org/2000/svg" xmlns:xlink="http://www.w3.org/1999/xlink" width="26.803" height="24.405" viewBox="0 0 26.803 24.405"><defs><style>.a{fill:#fff;}.b{fill:url(#a);}</style><linearGradient id="a" x1="0.5" x2="0.5" y2="1" gradientUnits="objectBoundingBox"><stop offset="0" stop-color="#9160ff"/><stop offset="1" stop-color="#5e75ff"/></linearGradient></defs><g transform="translate(-373 -1944)"><g transform="translate(-2022 -3413)"><path class="a" d="M178.35,504.412H160.206a.206.206,0,1,1,0-.412H178.35a.206.206,0,1,1,0,.412Z" transform="translate(2239.124 4864.996)"/><path class="a" d="M327.132,204.276a.206.206,0,0,1-.178-.31l9.54-16.311a.206.206,0,0,1,.356.208l-9.541,16.31A.206.206,0,0,1,327.132,204.276Z" transform="translate(2076.5 5173.288)"/><path class="a" d="M336.667,204.26a.206.206,0,0,1-.178-.1l-9.54-16.311a.206.206,0,1,1,.356-.208l9.54,16.311a.206.206,0,0,1-.178.311Z" transform="translate(2076.505 5173.304)"/><path class="b" d="M286.185,278.185m-6.185,0A6.185,6.185,0,1,0,286.185,272,6.185,6.185,0,0,0,280,278.185Z" transform="translate(2122.216 5091.017)"/><path class="a" d="M278.391,276.783a6.391,6.391,0,1,1,6.391-6.391A6.4,6.4,0,0,1,278.391,276.783Zm0-12.371a5.979,5.979,0,1,0,5.979,5.979A5.986,5.986,0,0,0,278.391,264.412Z" transform="translate(2130.01 5098.811)"/><path class="a" d="M24.535,53a2.268,2.268,0,1,1,1.6-.664,2.252,2.252,0,0,1-1.6.664Zm0-4.124a1.856,1.856,0,1,0,1.312.543A1.843,1.843,0,0,0,24.535,48.875ZM2.268,53a2.268,2.268,0,1,1,1.6-.664A2.252,2.252,0,0,1,2.268,53Zm0-4.124a1.856,1.856,0,1,0,1.312.543A1.843,1.843,0,0,0,2.268,48.875ZM19.212,62.933a2.268,2.268,0,1,1,2.268-2.268A2.271,2.271,0,0,1,19.212,62.933Zm0-4.124a1.856,1.856,0,1,0,1.856,1.856A1.858,1.858,0,0,0,19.212,58.809ZM7.591,43.064A2.268,2.268,0,1,1,9.859,40.8,2.271,2.271,0,0,1,7.591,43.064Zm0-4.124A1.856,1.856,0,1,0,9.446,40.8,1.858,1.858,0,0,0,7.591,38.94Zm11.622,4.124A2.268,2.268,0,1,1,21.48,40.8,2.271,2.271,0,0,1,19.212,43.064Zm0-4.124A1.856,1.856,0,1,0,21.068,40.8,1.858,1.858,0,0,0,19.212,38.94ZM7.591,62.933a2.268,2.268,0,1,1,2.268-2.268A2.271,2.271,0,0,1,7.591,62.933Zm0-4.124a1.856,1.856,0,1,0,1.856,1.856A1.858,1.858,0,0,0,7.591,58.809Z" transform="translate(2395 5318.472)"/><path class="a" d="M131.738,138.825h-7.5a.206.206,0,0,1-.206-.206,1.858,1.858,0,0,0-1.856-1.856,1.826,1.826,0,0,0-.872.228.205.205,0,0,1-.279-.084l-3.384-6.316a.207.207,0,0,1,.084-.279,1.812,1.812,0,0,0,.44-.315,1.856,1.856,0,0,0,0-2.625,1.812,1.812,0,0,0-.44-.315.207.207,0,0,1-.084-.279l3.384-6.316a.207.207,0,0,1,.28-.084,1.826,1.826,0,0,0,.871.228,1.858,1.858,0,0,0,1.856-1.856.206.206,0,0,1,.206-.206h7.5a.206.206,0,0,1,.206.206,1.858,1.858,0,0,0,1.856,1.856,1.823,1.823,0,0,0,.871-.228.205.205,0,0,1,.28.084l3.384,6.316a.207.207,0,0,1-.084.279,1.812,1.812,0,0,0-.44.315,1.855,1.855,0,0,0,0,2.624,1.812,1.812,0,0,0,.44.315.207.207,0,0,1,.084.279l-3.384,6.316a.206.206,0,0,1-.279.084,1.828,1.828,0,0,0-.872-.228,1.858,1.858,0,0,0-1.856,1.856.206.206,0,0,1-.206.207Zm-7.3-.412h7.1a2.271,2.271,0,0,1,2.259-2.062,2.2,2.2,0,0,1,.881.187l3.2-5.966a2.02,2.02,0,0,1-.358-.284,2.267,2.267,0,0,1,0-3.207,2.038,2.038,0,0,1,.358-.284l-3.2-5.966a2.193,2.193,0,0,1-.881.187,2.271,2.271,0,0,1-2.259-2.062h-7.1a2.271,2.271,0,0,1-2.259,2.062,2.194,2.194,0,0,1-.881-.187l-3.2,5.966a2.02,2.02,0,0,1,.358.284,2.268,2.268,0,0,1,0,3.207,2.058,2.058,0,0,1-.358.284l3.2,5.966a2.2,2.2,0,0,1,.881-.187,2.271,2.271,0,0,1,2.258,2.062Zm1.284,1.611h-.412a.206.206,0,1,1,0-.412h.412a.206.206,0,0,1,0,.412Zm4.948,0h-4.124a.206.206,0,0,1,0-.412h4.124a.206.206,0,0,1,0,.412Z" transform="translate(2280.413 5240.519)"/><path class="a" d="M600.619,70.94h-.412a.206.206,0,1,1,0-.412h.412a.206.206,0,1,1,0,.412Z" transform="translate(1810.463 5287.297)"/><path class="a" d="M412.33,70.94h-4.124a.206.206,0,1,1,0-.412h4.124a.206.206,0,1,1,0,.412Z" transform="translate(1997.515 5287.297)"/></g><g transform="translate(384 1953.336)"><path class="a" d="M374.1,420.448h-1.649V422.1H374.1Z" transform="translate(-370.406 -418.406)"/><path class="a" d="M302.419,348v.987h-1.432v1.432H300v-1.708l.711-.711Z" transform="translate(-300 -348)"/><path class="a" d="M420.012,348.711v1.708h-.987v-1.432h-1.433V348H419.3Z" transform="translate(-414.279 -348)"/><path class="a" d="M420.012,465.593V467.3l-.711.711h-1.708v-.987h1.433v-1.432Z" transform="translate(-414.279 -462.279)"/><path class="a" d="M302.419,467.025v.987h-1.708L300,467.3v-1.708h.987v1.432Z" transform="translate(-300 -462.279)"/></g></g></svg>