<svg width="16" height="17" viewBox="0 0 16 17" fill="none" xmlns="http://www.w3.org/2000/svg">
<g id="Frame 651" clip-path="url(#clip0_23_18552)">
<path id="Vector" d="M0 8.5C-1.56548e-08 9.55057 0.206926 10.5909 0.608964 11.5615C1.011 12.5321 1.60028 13.414 2.34315 14.1569C3.08601 14.8997 3.96793 15.489 4.93853 15.891C5.90914 16.2931 6.94943 16.5 8 16.5C9.05058 16.5 10.0909 16.2931 11.0615 15.891C12.0321 15.489 12.914 14.8997 13.6569 14.1569C14.3997 13.414 14.989 12.5321 15.391 11.5615C15.7931 10.5909 16 9.55057 16 8.5C16 7.44942 15.7931 6.40914 15.391 5.43853C14.989 4.46793 14.3997 3.58601 13.6569 2.84315C12.914 2.10028 12.0321 1.511 11.0615 1.10896C10.0909 0.706926 9.05058 0.5 8 0.5C6.94943 0.5 5.90914 0.706926 4.93853 1.10896C3.96793 1.511 3.08601 2.10028 2.34315 2.84315C1.60028 3.58601 1.011 4.46793 0.608964 5.43853C0.206926 6.40914 -1.56548e-08 7.44942 0 8.5Z" fill="#F7931A"/>
<path id="Vector_2" d="M9.98273 8.53461L9.9008 8.50957C10.6008 8.70933 11.3209 8.23488 11.5091 7.43306C11.555 7.24003 11.5669 7.03856 11.5443 6.84024C11.5217 6.64191 11.4649 6.45065 11.3773 6.27745C11.2897 6.10424 11.1729 5.95252 11.0337 5.831C10.8945 5.70948 10.7356 5.62057 10.5661 5.56937L9.97476 5.38853L10.3262 3.89191L9.48304 3.63409L9.13159 5.13072L8.45553 4.92409L8.80762 3.42487L7.96315 3.16669L7.61106 4.66591L6.06338 4.19275L5.81711 5.24163L6.89452 5.57104L5.76802 10.3681L4.69061 10.0387L4.44434 11.0875L5.99202 11.5607L5.62789 13.1113L6.47237 13.3695L6.83649 11.8189L7.51255 12.0255L7.14859 13.5755L7.99176 13.8334L8.35572 12.2833L9.05259 12.4964C10.0128 12.79 11.0003 12.1396 11.2576 11.0438C11.515 9.94796 10.9429 8.82822 9.98273 8.53461ZM8.28403 5.96017L8.89296 6.14639L9.29691 6.26992C9.46077 6.32 9.59471 6.41831 9.70005 6.55797C9.88487 6.78629 9.96387 7.1183 9.88845 7.43899C9.81318 7.75968 9.59926 8.00229 9.33917 8.09447C9.18686 8.15531 9.02788 8.16403 8.86387 8.11395L8.45992 7.99042L7.85099 7.8042L8.28403 5.96017ZM8.65059 11.0274C8.63141 11.0287 8.61971 11.0252 8.60215 11.0198L7.8058 10.7763L7.19687 10.5901L7.62991 8.74606L8.23884 8.93228L9.0352 9.17581C9.05275 9.18119 9.06446 9.18471 9.08055 9.19677C9.49734 9.34571 9.74133 9.85707 9.62673 10.3449C9.51213 10.8327 9.07681 11.1363 8.65059 11.0274Z" fill="white"/>
</g>
<defs>
<clipPath id="clip0_23_18552">
<rect width="16" height="16" fill="white" transform="translate(0 0.5)"/>
</clipPath>
</defs>
</svg>
