<svg width="21" height="20" viewBox="0 0 21 20" fill="none" xmlns="http://www.w3.org/2000/svg">
<g id="Frame 629" clip-path="url(#clip0_23_17816)">
<path id="&#232;&#183;&#175;&#229;&#190;&#132; 42972" fill-rule="evenodd" clip-rule="evenodd" d="M16.6718 3.25464C15.4357 2.66837 14.1143 2.24536 12.733 2C12.5632 2.31401 12.3655 2.72959 12.2285 3.06401C10.7599 2.83905 9.30488 2.83905 7.86356 3.06401C7.72719 2.72959 7.52404 2.31401 7.35289 2C5.97018 2.24536 4.6475 2.66837 3.41139 3.2616C0.91872 7.07978 0.243019 10.8094 0.581203 14.4842C2.23458 15.7384 3.83613 16.5019 5.41179 17C5.80042 16.455 6.14744 15.8752 6.44609 15.2681C5.87677 15.0501 5.33202 14.7774 4.81726 14.4634C4.95362 14.3613 5.08723 14.2523 5.21612 14.1433C8.35787 15.6364 11.7703 15.6364 14.8745 14.1433C15.0048 14.2523 15.1384 14.3613 15.2734 14.4634C14.7573 14.7774 14.2105 15.0501 13.6412 15.2681C13.9405 15.8752 14.2855 16.455 14.6761 17C16.2525 16.5019 17.8561 15.7384 19.5095 14.4842C19.9056 10.2226 18.8324 6.53432 16.6718 3.25464ZM6.87428 12.2273C5.93133 12.2273 5.15747 11.3344 5.15747 10.243C5.15747 9.15909 5.91429 8.25928 6.87428 8.25928C7.83355 8.25928 8.60671 9.1526 8.59033 10.243C8.59173 11.3344 7.83355 12.2273 6.87428 12.2273ZM11.5003 10.243C11.5003 11.3344 12.2735 12.2273 13.2164 12.2273C14.1757 12.2273 14.9325 11.3344 14.9325 10.243C14.9495 9.1526 14.1757 8.25928 13.2164 8.25928C12.2571 8.25928 11.5003 9.15909 11.5003 10.243Z" fill="url(#paint0_linear_23_17816)"/>
</g>
<defs>
<linearGradient id="paint0_linear_23_17816" x1="0.5" y1="2" x2="0.5" y2="17" gradientUnits="userSpaceOnUse">
<stop stop-color="#9160FF"/>
<stop offset="1" stop-color="#5E75FF"/>
</linearGradient>
<clipPath id="clip0_23_17816">
<rect width="20" height="20" fill="white" transform="translate(0.5)"/>
</clipPath>
</defs>
</svg>
