<svg width="35" height="35" viewBox="0 0 35 35" fill="none" xmlns="http://www.w3.org/2000/svg">
<g id="Frame 664">
<path id="Vector" d="M15.4989 22.288C15.9984 22.754 16.6396 22.966 17.4226 22.924C18.2056 22.883 18.777 22.621 19.1368 22.138L27.5999 11.1535L15.7406 18.9775C15.2014 19.3115 14.9012 19.8305 14.84 20.5345C14.7788 21.2385 14.9984 21.822 15.4989 22.288ZM17.4999 7.00001C18.981 7.00001 20.329 7.16801 21.5438 7.50401C22.7596 7.83901 23.9712 8.35151 25.1784 9.04151L23.6962 9.97601C22.7478 9.49401 21.7661 9.12751 20.7511 8.87651C19.7361 8.62551 18.6524 8.50001 17.4999 8.50001C13.9286 8.50001 10.8874 9.66901 8.37624 12.007C5.86507 14.345 4.61003 17.176 4.6111 20.5C4.6111 21.55 4.76577 22.5875 5.0751 23.6125C5.38443 24.6375 5.8205 25.6 6.38331 26.5H28.6165C29.2341 25.55 29.6841 24.5625 29.9666 23.5375C30.2491 22.5125 30.3898 21.45 30.3887 20.35C30.3887 19.45 30.2641 18.503 30.0149 17.509C29.7657 16.515 29.3716 15.589 28.8324 14.731L29.8377 13.351C30.6218 14.603 31.1765 15.781 31.502 16.885C31.8274 17.989 31.9934 19.138 31.9998 20.332C32.0063 21.622 31.8521 22.826 31.5374 23.944C31.2238 25.062 30.7351 26.189 30.0713 27.325C29.9424 27.525 29.7464 27.6875 29.4833 27.8125C29.2201 27.9375 28.9312 28 28.6165 28H6.38331C6.08794 28 5.81406 27.933 5.56165 27.799C5.31032 27.664 5.09873 27.4675 4.92688 27.2095C4.39414 26.3345 3.93981 25.3475 3.56388 24.2485C3.18796 23.1495 3 21.9 3 20.5C3 18.656 3.37592 16.9155 4.12777 15.2785C4.87854 13.6415 5.90374 12.208 7.20336 10.978C8.50298 9.74801 10.04 8.77701 11.8143 8.06501C13.5887 7.35301 15.4839 6.99801 17.4999 7.00001Z" fill="url(#paint0_linear_60_455)" stroke="url(#paint1_linear_60_455)"/>
</g>
<defs>
<linearGradient id="paint0_linear_60_455" x1="0.160159" y1="0.967983" x2="0.160159" y2="28" gradientUnits="userSpaceOnUse">
<stop stop-color="#9160FF"/>
<stop offset="1" stop-color="#5E75FF"/>
</linearGradient>
<linearGradient id="paint1_linear_60_455" x1="17.5" y1="7" x2="17.5" y2="28" gradientUnits="userSpaceOnUse">
<stop stop-color="#9160FF"/>
<stop offset="1" stop-color="#5E75FF"/>
</linearGradient>
</defs>
</svg>
