<svg width="35" height="35" viewBox="0 0 35 35" fill="none" xmlns="http://www.w3.org/2000/svg">
<g id="Frame 664">
<g id="Group 1000007213">
<path id="Vector" d="M14.068 26.1544H10.5843C8.78859 26.1544 7.20836 25.5558 5.92741 24.2749C4.64646 23.0178 4 21.4735 4 19.6658C4 18.1095 4.46689 16.7208 5.40066 15.4998C6.31145 14.3062 7.61943 13.4781 9.08788 13.1653C9.59068 11.3337 10.5843 9.84921 12.0808 8.71192C13.5772 7.59857 15.2771 7 17.1686 7C19.5031 7 21.4903 7.81406 23.1065 9.44218C24.7346 11.0583 25.5487 13.0456 25.5487 15.38C26.9254 15.5357 28.0747 16.1342 28.9725 17.1758C29.7387 18.0497 30.1697 19.0433 30.2894 20.1686" stroke="url(#paint0_linear_60_461)" stroke-width="2.5"/>
<path id="Vector_2" d="M30.5074 22.5622V24.9565H28.1131V27.3508H25.7188V24.9565H23.0851C22.6062 26.3931 21.2893 27.3508 19.733 27.3508C17.6979 27.3508 16.1416 25.7945 16.1416 23.7593C16.1416 21.7242 17.6979 20.1679 19.733 20.1679C21.2893 20.1679 22.6062 21.1256 23.0851 22.5622H30.5074Z" fill="url(#paint1_linear_60_461)"/>
</g>
</g>
<defs>
<linearGradient id="paint0_linear_60_461" x1="17.1447" y1="7" x2="17.1447" y2="26.1544" gradientUnits="userSpaceOnUse">
<stop stop-color="#9160FF"/>
<stop offset="1" stop-color="#5E75FF"/>
</linearGradient>
<linearGradient id="paint1_linear_60_461" x1="14.7348" y1="18.1047" x2="14.7348" y2="27.3508" gradientUnits="userSpaceOnUse">
<stop stop-color="#9160FF"/>
<stop offset="1" stop-color="#5E75FF"/>
</linearGradient>
</defs>
</svg>
