<svg width="35" height="35" viewBox="0 0 35 35" fill="none" xmlns="http://www.w3.org/2000/svg">
<g id="Frame 664">
<path id="Vector" d="M23.5517 12.4311V11.2381C23.5517 8.30083 19.2573 6 13.7759 6C8.2944 6 4 8.30083 4 11.2381V16.4762C4 18.9826 7.12595 21.0229 11.4483 21.5689V22.7619C11.4483 25.6992 15.7427 28 21.2241 28C26.7056 28 31 25.6992 31 22.7619V17.5238C31 15.0514 27.959 12.9889 23.5517 12.4311ZM30.069 17.5238C30.069 19.547 26.5147 21.7143 21.2241 21.7143C20.1322 21.7161 19.0421 21.6136 17.9655 21.4079V21.2258C21.2951 20.3995 23.5517 18.6068 23.5517 16.4762V13.4865C27.3015 13.9881 30.069 15.6813 30.069 17.5238ZM15.1945 20.613C14.7375 20.6488 14.2647 20.6667 13.7759 20.6667C13.1393 20.6667 12.5283 20.6339 11.9452 20.5763H11.9138C11.4297 20.5265 10.9641 20.4585 10.5172 20.372V16.1881C11.5948 16.3822 12.6845 16.4786 13.7759 16.4762C14.8672 16.4786 15.9569 16.3822 17.0345 16.1881V20.3681C16.4364 20.483 15.8336 20.5638 15.2283 20.6104L15.1945 20.613ZM22.6207 13.5062V16.4762C22.6207 17.901 20.8564 19.3964 17.9655 20.1573V15.9877C20.0173 15.4783 21.6606 14.6023 22.6207 13.5062ZM13.7759 7.04762C19.0665 7.04762 22.6207 9.21488 22.6207 11.2381C22.6207 13.2613 19.0665 15.4286 13.7759 15.4286C8.48526 15.4286 4.93103 13.2613 4.93103 11.2381C4.93103 9.21488 8.48526 7.04762 13.7759 7.04762ZM4.93103 16.4762V13.5062C5.89116 14.6023 7.53444 15.4783 9.58621 15.9943V20.1638C6.69534 19.3964 4.93103 17.901 4.93103 16.4762ZM12.3793 22.7619V21.6619C12.8344 21.696 13.301 21.7143 13.7759 21.7143C14.2507 21.7143 14.7139 21.696 15.1724 21.6632C15.7803 21.912 16.4024 22.1146 17.0345 22.2695V26.443C14.1436 25.6821 12.3793 24.1867 12.3793 22.7619ZM17.9655 26.6538V22.4699C19.043 22.6656 20.1327 22.7632 21.2241 22.7619C22.3154 22.7643 23.4052 22.6679 24.4828 22.4738V26.6538C22.3248 27.0521 20.1235 27.0521 17.9655 26.6538ZM30.069 22.7619C30.069 24.1867 28.3047 25.6821 25.4138 26.443V22.2735C27.4656 21.764 29.1088 20.888 30.069 19.7854V22.7619Z" fill="url(#paint0_linear_60_466)" stroke="url(#paint1_linear_60_466)"/>
</g>
<defs>
<linearGradient id="paint0_linear_60_466" x1="1.35601" y1="-0.319256" x2="1.35601" y2="28" gradientUnits="userSpaceOnUse">
<stop stop-color="#9160FF"/>
<stop offset="1" stop-color="#5E75FF"/>
</linearGradient>
<linearGradient id="paint1_linear_60_466" x1="17.5" y1="6" x2="17.5" y2="28" gradientUnits="userSpaceOnUse">
<stop stop-color="#9160FF"/>
<stop offset="1" stop-color="#5E75FF"/>
</linearGradient>
</defs>
</svg>
