<svg width="16" height="17" viewBox="0 0 16 17" fill="none" xmlns="http://www.w3.org/2000/svg">
<g id="Frame 651" clip-path="url(#clip0_23_18557)">
<path id="Vector" d="M7.99688 0.5C12.4139 0.5 15.9938 4.07985 15.9938 8.49688C15.9938 12.9139 12.4139 16.4938 7.99688 16.4938C3.57985 16.4938 0 12.9139 0 8.49688C0 4.07985 3.58141 0.5 7.99688 0.5Z" fill="#3E5BF2"/>
<path id="Vector_2" d="M7.99844 2.79443V10.7632L11.5002 8.66402L7.99844 2.79443ZM7.99844 14.1994L11.5002 9.17163L7.99844 11.2896V14.1994ZM7.99844 2.79443V10.7632L4.49512 8.66402L7.99844 2.79443Z" fill="white"/>
<path id="Vector_3" d="M7.99844 11.2896V14.1994L4.49512 9.17163L7.99844 11.2896Z" fill="white"/>
</g>
<defs>
<clipPath id="clip0_23_18557">
<rect width="16" height="16" fill="white" transform="translate(0 0.5)"/>
</clipPath>
</defs>
</svg>
