<svg width="38" height="38" viewBox="0 0 38 38" fill="none" xmlns="http://www.w3.org/2000/svg">
<g id="&#231;&#187;&#132; 15910" clip-path="url(#clip0_23_21410)">
<g id="&#231;&#187;&#132; 15869" clip-path="url(#clip1_23_21410)">
<path id="&#232;&#183;&#175;&#229;&#190;&#132; 43095" d="M23.1865 24.7966H14.8136C13.9243 24.7966 13.2034 24.0757 13.2034 23.1864V14.8135C13.2034 13.9242 13.9243 13.2033 14.8136 13.2033H23.1865C24.0757 13.2033 24.7966 13.9242 24.7966 14.8135V23.1864C24.7966 24.0757 24.0757 24.7966 23.1865 24.7966V24.7966Z" fill="url(#paint0_linear_23_21410)"/>
<path id="&#232;&#183;&#175;&#229;&#190;&#132; 43096" fill-rule="evenodd" clip-rule="evenodd" d="M14.8133 25.1185H23.1862C24.2515 25.1185 25.1184 24.2516 25.1184 23.1863V14.8134C25.1184 13.7481 24.2515 12.8812 23.1862 12.8812H14.8133C13.748 12.8812 12.8811 13.7481 12.8811 14.8134V23.1863C12.8811 24.2516 13.748 25.1185 14.8133 25.1185ZM13.5252 14.8134C13.5252 14.103 14.1029 13.5252 14.8133 13.5252H23.1862C23.8966 13.5252 24.4743 14.103 24.4743 14.8134V23.1863C24.4743 23.8967 23.8966 24.4744 23.1862 24.4744H14.8133C14.1029 24.4744 13.5252 23.8967 13.5252 23.1863V14.8134Z" fill="white"/>
<path id="&#232;&#183;&#175;&#229;&#190;&#132; 43097" d="M21.5762 6.76284H16.4236C16.0679 6.76284 15.7795 6.47448 15.7795 6.11877V0.966216C15.7795 0.610506 16.0679 0.322144 16.4236 0.322144H21.5762C21.9319 0.322144 22.2202 0.610506 22.2202 0.966216V6.11877C22.2202 6.47448 21.9319 6.76284 21.5762 6.76284V6.76284Z" fill="url(#paint1_linear_23_21410)"/>
<path id="&#232;&#183;&#175;&#229;&#190;&#132; 43098" fill-rule="evenodd" clip-rule="evenodd" d="M16.4239 7.08477H21.5764C22.1091 7.08477 22.5425 6.6513 22.5425 6.11866V0.966105C22.5425 0.43346 22.1091 0 21.5764 0H16.4239C15.8912 0 15.4578 0.43346 15.4578 0.966105V6.11866C15.4578 6.6513 15.8912 7.08477 16.4239 7.08477ZM16.1018 0.966105C16.1018 0.78825 16.246 0.644072 16.4239 0.644072H21.5764C21.7543 0.644072 21.8985 0.78825 21.8985 0.966105V6.11866C21.8985 6.29652 21.7543 6.44069 21.5764 6.44069H16.4239C16.246 6.44069 16.1018 6.29652 16.1018 6.11866V0.966105Z" fill="white"/>
<path id="&#232;&#183;&#175;&#229;&#190;&#132; 43099" d="M21.5762 37.6781H16.4236C16.0679 37.6781 15.7795 37.3897 15.7795 37.034V31.8814C15.7795 31.5257 16.0679 31.2374 16.4236 31.2374H21.5762C21.9319 31.2374 22.2202 31.5257 22.2202 31.8814V37.034C22.2202 37.3897 21.9319 37.6781 21.5762 37.6781V37.6781Z" fill="url(#paint2_linear_23_21410)"/>
<path id="&#232;&#183;&#175;&#229;&#190;&#132; 43100" fill-rule="evenodd" clip-rule="evenodd" d="M16.4239 38H21.5764C22.1091 38 22.5425 37.5665 22.5425 37.0339V31.8813C22.5425 31.3487 22.1091 30.9152 21.5764 30.9152H16.4239C15.8912 30.9152 15.4578 31.3487 15.4578 31.8813V37.0339C15.4578 37.5665 15.8912 38 16.4239 38ZM16.1018 31.8813C16.1018 31.7035 16.246 31.5593 16.4239 31.5593H21.5764C21.7543 31.5593 21.8985 31.7035 21.8985 31.8813V37.0339C21.8985 37.2117 21.7543 37.3559 21.5764 37.3559H16.4239C16.246 37.3559 16.1018 37.2117 16.1018 37.0339V31.8813Z" fill="white"/>
<path id="&#232;&#183;&#175;&#229;&#190;&#132; 43101" d="M31.2373 21.5762V16.4236C31.2373 16.0679 31.5257 15.7795 31.8814 15.7795H37.0339C37.3896 15.7795 37.678 16.0679 37.678 16.4236V21.5762C37.678 21.9319 37.3896 22.2202 37.0339 22.2202H31.8814C31.5257 22.2202 31.2373 21.9319 31.2373 21.5762V21.5762Z" fill="url(#paint3_linear_23_21410)"/>
<path id="&#232;&#183;&#175;&#229;&#190;&#132; 43102" fill-rule="evenodd" clip-rule="evenodd" d="M31.8814 22.5426H37.0339C37.5666 22.5426 38 22.1091 38 21.5765V16.4239C38 15.8913 37.5666 15.4578 37.0339 15.4578H31.8814C31.3488 15.4578 30.9153 15.8913 30.9153 16.4239V21.5765C30.9153 22.1091 31.3488 22.5426 31.8814 22.5426ZM31.5593 16.4239C31.5593 16.2461 31.7035 16.1019 31.8814 16.1019H37.0339C37.2118 16.1019 37.356 16.2461 37.356 16.4239V21.5765C37.356 21.7543 37.2118 21.8985 37.0339 21.8985H31.8814C31.7035 21.8985 31.5593 21.7543 31.5593 21.5765V16.4239Z" fill="white"/>
<path id="&#232;&#183;&#175;&#229;&#190;&#132; 43103" d="M0.322021 21.5762V16.4236C0.322021 16.0679 0.610384 15.7795 0.966094 15.7795H6.11865C6.47436 15.7795 6.76272 16.0679 6.76272 16.4236V21.5762C6.76272 21.9319 6.47436 22.2202 6.11865 22.2202H0.966094C0.610384 22.2202 0.322021 21.9319 0.322021 21.5762V21.5762Z" fill="url(#paint4_linear_23_21410)"/>
<path id="&#232;&#183;&#175;&#229;&#190;&#132; 43104" fill-rule="evenodd" clip-rule="evenodd" d="M12.5594 5.06736C12.4073 5.0671 12.2762 4.96057 12.2448 4.81184C12.2134 4.66309 12.2903 4.51265 12.4293 4.45098C12.8576 4.26227 13.3 4.09031 13.7444 3.94088C13.8547 3.89903 13.9791 3.92082 14.0686 3.99767C14.158 4.07453 14.1983 4.19417 14.1736 4.3095C14.1489 4.42483 14.063 4.51742 13.9499 4.55082C13.5224 4.69496 13.1016 4.85828 12.6888 5.04031C12.648 5.05807 12.6039 5.06726 12.5594 5.06736ZM5.06088 11.4325C5.11859 11.5316 5.22465 11.5925 5.33934 11.5924C5.45497 11.5927 5.56169 11.5304 5.61822 11.4295C6.99075 9.01347 9.00001 7.02048 11.4271 5.66764C11.5772 5.5786 11.6291 5.38619 11.544 5.23376C11.459 5.08133 11.268 5.02439 11.1134 5.10536C8.58377 6.51561 6.48964 8.59302 5.05917 11.1113C5.00251 11.211 5.00316 11.3333 5.06088 11.4325ZM4.17421 14.1694C4.07019 14.1691 3.97265 14.1187 3.91223 14.0341C3.85182 13.9494 3.83593 13.8408 3.86957 13.7423C4.02737 13.285 4.209 12.829 4.40866 12.3872C4.48826 12.2361 4.67183 12.1732 4.82738 12.2437C4.98294 12.3142 5.0566 12.4938 4.9954 12.6532C4.80283 13.0779 4.63024 13.5114 4.47822 13.9523C4.43398 14.0824 4.31164 14.1697 4.17421 14.1694ZM0.966105 22.5423H6.11866C6.6513 22.5423 7.08477 22.1088 7.08477 21.5762V16.4236C7.08477 15.8909 6.6513 15.4575 6.11866 15.4575H0.966105C0.43346 15.4575 0 15.8909 0 16.4236V21.5762C0 22.1088 0.43346 22.5423 0.966105 22.5423ZM0.644072 16.4236C0.644072 16.2457 0.78825 16.1016 0.966105 16.1016H6.11866C6.29652 16.1016 6.44069 16.2457 6.44069 16.4236V21.5762C6.44069 21.754 6.29652 21.8982 6.11866 21.8982H0.966105C0.78825 21.8982 0.644072 21.754 0.644072 21.5762V16.4236ZM32.5972 25.4392C32.6564 25.5311 32.7582 25.5866 32.8675 25.5868C32.994 25.587 33.1089 25.5132 33.1612 25.3981C33.3602 24.9582 33.5412 24.5022 33.7003 24.0436C33.7585 23.8755 33.6694 23.6921 33.5013 23.6339C33.3332 23.5758 33.1498 23.6649 33.0917 23.833C32.9397 24.2735 32.7658 24.7108 32.5745 25.1321C32.5294 25.2317 32.538 25.3473 32.5972 25.4392ZM26.2999 32.7211C26.1536 32.7209 26.0257 32.622 25.9888 32.4803C25.9519 32.3387 26.0151 32.1899 26.1428 32.1183C28.5699 30.7652 30.5791 28.772 31.9516 26.3558C32.0395 26.2011 32.2362 26.1468 32.3909 26.2347C32.5456 26.3226 32.5998 26.5192 32.512 26.674C31.0816 29.1925 28.9874 31.2701 26.4577 32.6806C26.4093 32.7069 26.3551 32.7208 26.2999 32.7211ZM23.4066 33.592C23.4321 33.7471 23.5658 33.8611 23.723 33.8618C23.7578 33.8619 23.7925 33.8563 23.8254 33.845C24.2679 33.6962 24.7104 33.5243 25.1406 33.3349C25.3033 33.2633 25.3772 33.0732 25.3055 32.9105C25.2338 32.7478 25.0438 32.6739 24.8811 32.7456C24.4681 32.9273 24.0474 33.0907 23.62 33.2351C23.4713 33.2861 23.3811 33.4369 23.4066 33.592ZM25.1574 5.13176C25.1116 5.13179 25.0664 5.12213 25.0247 5.10343C24.5999 4.91096 24.1664 4.73837 23.7256 4.58624C23.5622 4.52499 23.4773 4.34467 23.5342 4.17966C23.5911 4.01467 23.7691 3.92505 23.9356 3.97759C24.3929 4.13603 24.8482 4.31702 25.29 4.51668C25.4278 4.57943 25.5032 4.72967 25.4713 4.87764C25.4394 5.02561 25.3087 5.13137 25.1574 5.13176ZM32.0103 11.5351C32.0672 11.637 32.1749 11.7001 32.2917 11.7C32.4061 11.7 32.512 11.6394 32.5698 11.5406C32.6275 11.4419 32.6286 11.3199 32.5725 11.2202C31.1623 8.6905 29.0849 6.59637 26.5666 5.1659C26.4119 5.07804 26.2152 5.13225 26.1273 5.28698C26.0395 5.44173 26.0937 5.63839 26.2484 5.72623C28.6644 7.09877 30.6574 9.10803 32.0103 11.5351ZM33.433 14.2769C33.2949 14.2768 33.1721 14.1887 33.1277 14.0579C32.9834 13.6305 32.8201 13.2097 32.6382 12.7968C32.5665 12.6341 32.6403 12.444 32.8031 12.3723C32.9659 12.3006 33.1559 12.3745 33.2276 12.5373C33.4169 12.9669 33.5889 13.4094 33.7377 13.8525C33.7706 13.9506 33.7543 14.0586 33.694 14.1427C33.6336 14.2267 33.5365 14.2767 33.433 14.2769ZM13.635 33.8083C13.6688 33.8197 13.7042 33.8256 13.7399 33.8257C13.8964 33.8242 14.0292 33.7107 14.055 33.5564C14.0809 33.4021 13.9923 33.2515 13.8449 33.199C13.4044 33.0468 12.9711 32.8742 12.5465 32.6818C12.3845 32.6084 12.1936 32.6802 12.1201 32.8422C12.0467 33.0042 12.1185 33.1951 12.2805 33.2686C12.7233 33.4695 13.1753 33.6496 13.635 33.8083ZM11.163 32.6606C11.1073 32.6604 11.0525 32.646 11.0039 32.6187C8.48546 31.1883 6.40781 29.0942 4.99734 26.5645C4.93762 26.4638 4.93725 26.3386 4.9964 26.2375C5.05554 26.1365 5.16486 26.0755 5.28191 26.0783C5.39896 26.081 5.50529 26.1471 5.55961 26.2508C6.91272 28.6779 8.90592 30.6872 11.3221 32.0597C11.4769 32.1475 11.5311 32.3442 11.4432 32.4989C11.3854 32.599 11.2786 32.6606 11.163 32.6606ZM4.34296 25.2486C4.39455 25.3654 4.51026 25.4407 4.63795 25.4406C4.7466 25.4404 4.84785 25.3854 4.90719 25.2944C4.96653 25.2034 4.97597 25.0886 4.93229 24.9891C4.7513 24.5775 4.58642 24.1537 4.44279 23.728C4.40939 23.6149 4.31681 23.529 4.20147 23.5043C4.08614 23.4796 3.96652 23.5199 3.88965 23.6093C3.8128 23.6988 3.79101 23.8232 3.83286 23.9335C3.98323 24.3792 4.15344 24.8181 4.34296 25.2486ZM13.2034 19.3219H8.05087C7.87302 19.3219 7.72884 19.1777 7.72884 18.9999C7.72884 18.822 7.87302 18.6778 8.05087 18.6778H13.2034C13.3813 18.6778 13.5255 18.822 13.5255 18.9999C13.5255 19.1777 13.3813 19.3219 13.2034 19.3219ZM24.7967 19.3219H29.9492C30.1271 19.3219 30.2713 19.1777 30.2713 18.9999C30.2713 18.822 30.1271 18.6778 29.9492 18.6778H24.7967C24.6188 18.6778 24.4746 18.822 24.4746 18.9999C24.4746 19.1777 24.6188 19.3219 24.7967 19.3219Z" fill="white"/>
<path id="&#232;&#183;&#175;&#229;&#190;&#132; 43105" d="M19 13.5253C18.8222 13.5253 18.678 13.3811 18.678 13.2033V8.05073C18.678 7.87288 18.8222 7.7287 19 7.7287C19.1778 7.7287 19.322 7.87288 19.322 8.05073V13.2033C19.322 13.3811 19.1778 13.5253 19 13.5253V13.5253Z" fill="white"/>
<path id="&#232;&#183;&#175;&#229;&#190;&#132; 43106" d="M19 30.2713C18.8222 30.2713 18.678 30.1271 18.678 29.9493V24.7967C18.678 24.6189 18.8222 24.4747 19 24.4747C19.1778 24.4747 19.322 24.6189 19.322 24.7967V29.9493C19.322 30.1271 19.1778 30.2713 19 30.2713V30.2713Z" fill="white"/>
</g>
<g id="&#231;&#187;&#132; 15911" clip-path="url(#clip2_23_21410)">
<path id="&#232;&#183;&#175;&#229;&#190;&#132; 43124" d="M19.9855 18.0361H18.0139V20.0077H19.9855V18.0361V18.0361Z" fill="white"/>
<path id="&#232;&#183;&#175;&#229;&#190;&#132; 43125" d="M18.4653 15.5955V16.7754H16.7532V18.4875H15.5732V16.4458L16.4236 15.5955H18.4653V15.5955Z" fill="white"/>
<path id="&#232;&#183;&#175;&#229;&#190;&#132; 43126" d="M22.4266 16.4458V18.4875H21.2474V16.7754H19.5347V15.5955H21.5769L22.4266 16.4458V16.4458Z" fill="white"/>
<path id="&#232;&#183;&#175;&#229;&#190;&#132; 43127" d="M22.4266 19.5569V21.5985L21.5769 22.4489H19.5347V21.269H21.2474V19.5569H22.4266V19.5569Z" fill="white"/>
<path id="&#232;&#183;&#175;&#229;&#190;&#132; 43128" d="M18.4653 21.269V22.4489H16.4236L15.5732 21.5985V19.5569H16.7532V21.269H18.4653V21.269Z" fill="white"/>
</g>
<g id="&#231;&#187;&#132; 15912" clip-path="url(#clip3_23_21410)">
<path id="&#232;&#183;&#175;&#229;&#190;&#132; 43124_2" d="M19.4259 2.93323H18.4929V3.86621H19.4259V2.93323V2.93323Z" fill="white"/>
<path id="&#232;&#183;&#175;&#229;&#190;&#132; 43125_2" d="M18.7067 1.77826V2.33663H17.8965V3.1468H17.3381V2.18066L17.7405 1.77826H18.7067V1.77826Z" fill="white"/>
<path id="&#232;&#183;&#175;&#229;&#190;&#132; 43126_2" d="M20.5814 2.18066V3.1468H20.0234V2.33663H19.2129V1.77826H20.1793L20.5814 2.18066V2.18066Z" fill="white"/>
<path id="&#232;&#183;&#175;&#229;&#190;&#132; 43127_2" d="M20.5814 3.65289V4.61898L20.1793 5.02138H19.2129V4.46307H20.0234V3.65289H20.5814V3.65289Z" fill="white"/>
<path id="&#232;&#183;&#175;&#229;&#190;&#132; 43128_2" d="M18.7067 4.46307V5.02138H17.7405L17.3381 4.61898V3.65289H17.8965V4.46307H18.7067V4.46307Z" fill="white"/>
</g>
<g id="&#231;&#187;&#132; 15915" clip-path="url(#clip4_23_21410)">
<path id="&#232;&#183;&#175;&#229;&#190;&#132; 43124_3" d="M19.4259 34.0529H18.4929V34.9859H19.4259V34.0529V34.0529Z" fill="white"/>
<path id="&#232;&#183;&#175;&#229;&#190;&#132; 43125_3" d="M18.7067 32.898V33.4564H17.8965V34.2666H17.3381V33.3004L17.7405 32.898H18.7067V32.898Z" fill="white"/>
<path id="&#232;&#183;&#175;&#229;&#190;&#132; 43126_3" d="M20.5814 33.3004V34.2666H20.0234V33.4564H19.2129V32.898H20.1793L20.5814 33.3004V33.3004Z" fill="white"/>
<path id="&#232;&#183;&#175;&#229;&#190;&#132; 43127_3" d="M20.5814 34.7726V35.7387L20.1793 36.1411H19.2129V35.5828H20.0234V34.7726H20.5814V34.7726Z" fill="white"/>
<path id="&#232;&#183;&#175;&#229;&#190;&#132; 43128_3" d="M18.7067 35.5828V36.1411H17.7405L17.3381 35.7387V34.7726H17.8965V35.5828H18.7067V35.5828Z" fill="white"/>
</g>
<g id="&#231;&#187;&#132; 15913" clip-path="url(#clip5_23_21410)">
<path id="&#232;&#183;&#175;&#229;&#190;&#132; 43124_4" d="M34.9857 18.5556H34.0527V19.4886H34.9857V18.5556V18.5556Z" fill="white"/>
<path id="&#232;&#183;&#175;&#229;&#190;&#132; 43125_4" d="M34.2665 17.4006V17.959H33.4563V18.7692H32.8979V17.803L33.3004 17.4006H34.2665V17.4006Z" fill="white"/>
<path id="&#232;&#183;&#175;&#229;&#190;&#132; 43126_4" d="M36.1412 17.803V18.7692H35.5832V17.959H34.7727V17.4006H35.7391L36.1412 17.803V17.803Z" fill="white"/>
<path id="&#232;&#183;&#175;&#229;&#190;&#132; 43127_4" d="M36.1412 19.2753V20.2414L35.7391 20.6438H34.7727V20.0854H35.5832V19.2753H36.1412V19.2753Z" fill="white"/>
<path id="&#232;&#183;&#175;&#229;&#190;&#132; 43128_4" d="M34.2665 20.0854V20.6438H33.3004L32.8979 20.2414V19.2753H33.4563V20.0854H34.2665V20.0854Z" fill="white"/>
</g>
<g id="&#231;&#187;&#132; 15914" clip-path="url(#clip6_23_21410)">
<path id="&#232;&#183;&#175;&#229;&#190;&#132; 43124_5" d="M3.9469 18.5334H3.01392V19.4664H3.9469V18.5334V18.5334Z" fill="white"/>
<path id="&#232;&#183;&#175;&#229;&#190;&#132; 43125_5" d="M3.22767 17.3785V17.9369H2.4175V18.7471H1.85913V17.7809L2.26153 17.3785H3.22767V17.3785Z" fill="white"/>
<path id="&#232;&#183;&#175;&#229;&#190;&#132; 43126_5" d="M5.10213 17.7809V18.7471H4.54412V17.9369H3.73364V17.3785H4.70006L5.10213 17.7809V17.7809Z" fill="white"/>
<path id="&#232;&#183;&#175;&#229;&#190;&#132; 43127_5" d="M5.10213 19.2531V20.2192L4.70006 20.6216H3.73364V20.0633H4.54412V19.2531H5.10213V19.2531Z" fill="white"/>
<path id="&#232;&#183;&#175;&#229;&#190;&#132; 43128_5" d="M3.22767 20.0633V20.6216H2.26153L1.85913 20.2192V19.2531H2.4175V20.0633H3.22767V20.0633Z" fill="white"/>
</g>
</g>
<defs>
<linearGradient id="paint0_linear_23_21410" x1="13.2034" y1="13.2033" x2="13.2034" y2="24.7966" gradientUnits="userSpaceOnUse">
<stop stop-color="#9160FF"/>
<stop offset="1" stop-color="#5E75FF"/>
</linearGradient>
<linearGradient id="paint1_linear_23_21410" x1="15.7795" y1="0.322144" x2="15.7795" y2="6.76284" gradientUnits="userSpaceOnUse">
<stop stop-color="#9160FF"/>
<stop offset="1" stop-color="#5E75FF"/>
</linearGradient>
<linearGradient id="paint2_linear_23_21410" x1="15.7795" y1="31.2374" x2="15.7795" y2="37.6781" gradientUnits="userSpaceOnUse">
<stop stop-color="#9160FF"/>
<stop offset="1" stop-color="#5E75FF"/>
</linearGradient>
<linearGradient id="paint3_linear_23_21410" x1="31.2373" y1="15.7795" x2="31.2373" y2="22.2202" gradientUnits="userSpaceOnUse">
<stop stop-color="#9160FF"/>
<stop offset="1" stop-color="#5E75FF"/>
</linearGradient>
<linearGradient id="paint4_linear_23_21410" x1="0.322021" y1="15.7795" x2="0.322021" y2="22.2202" gradientUnits="userSpaceOnUse">
<stop stop-color="#9160FF"/>
<stop offset="1" stop-color="#5E75FF"/>
</linearGradient>
<clipPath id="clip0_23_21410">
<rect width="38" height="38" fill="white"/>
</clipPath>
<clipPath id="clip1_23_21410">
<rect width="38" height="38" fill="white"/>
</clipPath>
<clipPath id="clip2_23_21410">
<rect width="6.85343" height="6.85343" fill="white" transform="translate(15.5732 15.5955)"/>
</clipPath>
<clipPath id="clip3_23_21410">
<rect width="3.24309" height="3.24309" fill="white" transform="translate(17.3381 1.77826)"/>
</clipPath>
<clipPath id="clip4_23_21410">
<rect width="3.24309" height="3.24309" fill="white" transform="translate(17.3381 32.898)"/>
</clipPath>
<clipPath id="clip5_23_21410">
<rect width="3.24309" height="3.24309" fill="white" transform="translate(32.8979 17.4006)"/>
</clipPath>
<clipPath id="clip6_23_21410">
<rect width="3.24309" height="3.24309" fill="white" transform="translate(1.85913 17.3785)"/>
</clipPath>
</defs>
</svg>
