<svg width="20" height="21" viewBox="0 0 20 21" fill="none" xmlns="http://www.w3.org/2000/svg">
<g id="Frame 625" clip-path="url(#clip0_23_33150)">
<rect id="Rectangle 878" y="0.5" width="20" height="20" rx="10" fill="#8B2EF9"/>
<g id="&#231;&#187;&#132; 15890" clip-path="url(#clip1_23_33150)">
<path id="&#232;&#183;&#175;&#229;&#190;&#132; 43124" d="M11.6925 8.70178H8.70166V11.6926H11.6925V8.70178V8.70178Z" fill="white"/>
<path id="&#232;&#183;&#175;&#229;&#190;&#132; 43125" d="M9.3871 5V6.78992H6.78992V9.38709H5V6.29L6.29 5H9.3871V5Z" fill="white"/>
<path id="&#232;&#183;&#175;&#229;&#190;&#132; 43126" d="M15.3954 6.29V9.38709H13.6065V6.78992H11.0083V5H14.1064L15.3954 6.29V6.29Z" fill="white"/>
<path id="&#232;&#183;&#175;&#229;&#190;&#132; 43127" d="M15.3954 11.0082V14.1053L14.1064 15.3953H11.0083V13.6054H13.6065V11.0082H15.3954V11.0082Z" fill="white"/>
<path id="&#232;&#183;&#175;&#229;&#190;&#132; 43128" d="M9.3871 13.6054V15.3953H6.29L5 14.1053V11.0082H6.78992V13.6054H9.3871V13.6054Z" fill="white"/>
</g>
</g>
<defs>
<clipPath id="clip0_23_33150">
<rect width="20" height="20" fill="white" transform="translate(0 0.5)"/>
</clipPath>
<clipPath id="clip1_23_33150">
<rect width="10.3944" height="10.3944" fill="white" transform="translate(5 5)"/>
</clipPath>
</defs>
</svg>
