<svg width="20" height="21" viewBox="0 0 20 21" fill="none" xmlns="http://www.w3.org/2000/svg">
<g id="Frame 627" clip-path="url(#clip0_23_21009)">
<path id="Vector" d="M9.86264 1C7.09931 1 4.85181 3.24792 4.85181 6.01042V9.53375H6.88931V6.01042C6.88931 4.37125 8.22306 3.0375 9.86264 3.0375C11.5022 3.0375 12.8356 4.37125 12.8356 6.01042V9.53375H14.8735V6.01042C14.8735 3.24792 12.6256 1 9.86264 1Z" fill="url(#paint0_linear_23_21009)"/>
<path id="Vector_2" d="M15.8372 10.1274H4.16223C3.27556 10.1274 2.5564 10.8466 2.5564 11.7337V19.3862C2.5564 20.2733 3.27556 20.992 4.16223 20.992H15.8372C16.7243 20.992 17.4435 20.2729 17.4435 19.3862V11.7337C17.4435 10.8466 16.7243 10.1274 15.8372 10.1274ZM13.2376 16.2645H11.6456C11.3718 16.9029 10.7385 17.3499 10.0001 17.3499C9.26181 17.3499 8.62806 16.9029 8.35431 16.2645H6.76265V14.8549H8.35431C8.62806 14.217 9.26181 13.7699 10.0001 13.7699C10.7385 13.7699 11.3718 14.217 11.6456 14.8549H13.2376V16.2645Z" fill="url(#paint1_linear_23_21009)"/>
</g>
<defs>
<linearGradient id="paint0_linear_23_21009" x1="3.87043" y1="-1.45123" x2="3.87043" y2="9.53375" gradientUnits="userSpaceOnUse">
<stop stop-color="#9160FF"/>
<stop offset="1" stop-color="#5E75FF"/>
</linearGradient>
<linearGradient id="paint1_linear_23_21009" x1="1.09857" y1="7.00671" x2="1.09857" y2="20.992" gradientUnits="userSpaceOnUse">
<stop stop-color="#9160FF"/>
<stop offset="1" stop-color="#5E75FF"/>
</linearGradient>
<clipPath id="clip0_23_21009">
<rect width="20" height="20" fill="white" transform="translate(0 0.5)"/>
</clipPath>
</defs>
</svg>
