<svg width="112" height="24" viewBox="0 0 112 24" fill="none" xmlns="http://www.w3.org/2000/svg">
<g id="&#231;&#187;&#132; 15891" clip-path="url(#clip0_23_19449)">
<path id="&#232;&#129;&#148;&#229;&#144;&#136; 211" fill-rule="evenodd" clip-rule="evenodd" d="M50.7905 4.61206L52.5015 6.19443L50.7672 7.79788L49.056 6.21548L50.7905 4.61206ZM48.3451 19.4969V17.5981H49.7672V11.8298L49.0118 11.5406H48.2543V9.66928H50.6343L52.0352 10.9647V17.6129H53.4805V19.5117L48.3451 19.4969ZM28.711 19.497V17.482H30.0424V7.01721H28.709V4.98123H33.7556V7.01721H32.4223V17.482H33.7556V19.497H28.711ZM40.6063 19.4969H35.492V17.6276H36.9163V11.8298L36.1609 11.5408H35.4055V9.66928H37.7855L39.1146 10.8613L40.4037 9.66928H43.1823L45.5623 11.8488V17.3174L46.3176 17.6276H47.075V19.4969H44.4525L43.2963 18.2014V12.7328L42.1844 11.7264H40.4734L39.1842 12.8973V17.6276H40.6063V19.4969ZM61.173 19.4969H58.0609L55.7697 17.3871V11.5407H54.4805V9.66925H55.7697V7.13745H58.0377V9.66925H61.173V11.5407H58.0377V16.3933L59.35 17.6065H61.173V19.4969ZM66.3104 19.497H71.1123L74.2285 7.01721H75.2286V4.98123H70.2263V7.01721H71.8951L69.3633 17.463H68.2303L65.6353 7.01721H67.302V4.98123H62.1224V7.01721H63.1667L66.3104 19.497ZM77.8722 19.4969H82.075L84.1533 17.5833L82.6762 16.2267L81.2757 17.5221H78.7857L77.7624 16.5769V15.2181H82.7651L84.0543 14.0261V11.8488L81.6956 9.66928H77.8722L75.4923 11.8488V17.2985L77.8722 19.4969ZM81.2959 13.6992H77.7604L77.7561 12.5619L78.7794 11.6167H80.7622L81.7856 12.5619V13.4882L81.2959 13.6992ZM84.7206 19.4969H90.7912V17.6191H88.4112V12.9501L89.8882 11.6842H91.9113V9.66928H89.7104L88.3752 10.9035L87.0422 9.66928H84.617V11.5408H85.4197L86.2191 11.8298V17.6276H84.7206V19.4969ZM101.017 15.5705V17.5854L98.9492 19.4969H94.9028L93.0361 17.7499L94.4154 16.4968L95.6155 17.6065H98.0609L98.8163 16.9272V16.2076L98.0609 15.5305H95.1923L93.1241 13.6169V11.5829L95.1923 9.66928H99.1057L101.063 11.4585L99.6843 12.7244L98.3953 11.5323H96.1052L95.3037 12.2728V12.9058L96.1052 13.6464H98.9492L101.017 15.5705ZM110.467 19.4969H106.264L103.886 17.2985V11.8488L106.264 9.66928H110.09L112.446 11.8488V14.0261L111.157 15.2181H106.155V16.5769L107.176 17.5221H109.667L111.068 16.2267L112.545 17.5833L110.467 19.4969ZM106.155 13.6992H109.689L110.177 13.4882V12.5619L109.161 11.623H107.182L106.16 12.5682L106.155 13.6992Z" fill="white"/>
<g id="&#231;&#187;&#132; 15890" clip-path="url(#clip1_23_19449)">
<path id="&#232;&#183;&#175;&#229;&#190;&#132; 43124" d="M14.7453 8.75989H8.15625V15.3489H14.7453V8.75989V8.75989Z" fill="#8B2EF9"/>
<path id="&#232;&#183;&#175;&#229;&#190;&#132; 43125" d="M9.66513 0.603271V4.5466H3.94333V10.2684H0V3.44525L2.84198 0.603271H9.66513V0.603271Z" fill="#8B2EF9"/>
<path id="&#232;&#183;&#175;&#229;&#190;&#132; 43126" d="M22.9044 3.44525V10.2684H18.9632V4.5466H13.2393V0.603271H20.0645L22.9044 3.44525V3.44525Z" fill="#8B2EF9"/>
<path id="&#232;&#183;&#175;&#229;&#190;&#132; 43127" d="M22.9044 13.8425V20.6656L20.0645 23.5076H13.2393V19.5643H18.9632V13.8425H22.9044V13.8425Z" fill="#8B2EF9"/>
<path id="&#232;&#183;&#175;&#229;&#190;&#132; 43128" d="M9.66513 19.5643V23.5076H2.84198L0 20.6656V13.8425H3.94333V19.5643H9.66513V19.5643Z" fill="#8B2EF9"/>
</g>
</g>
<defs>
<clipPath id="clip0_23_19449">
<rect width="112" height="22.7934" fill="white" transform="translate(0 0.603271)"/>
</clipPath>
<clipPath id="clip1_23_19449">
<rect width="22.9044" height="22.9043" fill="white" transform="translate(0 0.603271)"/>
</clipPath>
</defs>
</svg>
