<svg width="24" height="24" viewBox="0 0 24 24" fill="none" xmlns="http://www.w3.org/2000/svg">
<g id="icon_sys">
<path id="Vector" d="M9.72325 22C10.3481 22 10.6927 21.6395 10.6927 21.0164C10.6927 20.7539 10.7238 20.524 10.6927 20.2942C10.6616 19.6711 10.3481 19.3747 9.75438 19.3747H6.12789C5.12732 19.3747 4.53254 18.7843 4.53254 17.7015V7.29845C4.53254 6.24834 5.09508 5.62527 6.12789 5.62527H9.5665C9.88001 5.62527 10.2224 5.59261 10.4425 5.36275C10.6927 5.10022 10.6927 4.70701 10.6927 4.44448V4.34531C10.6927 4.14812 10.6927 3.9521 10.6616 3.78758C10.5982 3.2952 10.2547 3 9.78551 3H5.81438C3.71986 3.03267 2.03113 4.87036 2 7.06976V17.8976C2.03113 19.8018 3.3452 21.5088 5.12732 21.902C5.37746 21.9673 5.62761 22 5.87775 22H9.72325ZM14.4137 19.9663C14.8506 20.1296 15.2886 20.0316 15.6644 19.6373L21.6044 13.4031C22.1369 12.8454 22.1369 12.1558 21.5733 11.6307C19.6033 9.53052 17.6022 7.46297 15.6322 5.39542C15.382 5.13289 15.0696 4.96954 14.7572 4.96954C14.4448 4.96954 14.1635 5.13289 13.9445 5.39542C13.7734 5.64478 13.6756 5.9413 13.6633 6.24834V9.49785H9.1596C8.47032 9.49785 7.97004 9.99024 7.97004 10.7113V14.2887C7.97004 15.0109 8.47032 15.536 9.1596 15.536H13.6621V18.7517C13.6621 19.3421 13.9434 19.7691 14.4126 19.9651L14.4137 19.9663Z" fill="url(#paint0_linear_23_19473)"/>
</g>
<defs>
<linearGradient id="paint0_linear_23_19473" x1="0.0414888" y1="27.4575" x2="0.0414888" y2="3" gradientUnits="userSpaceOnUse">
<stop stop-color="#9160FF"/>
<stop offset="1" stop-color="#5E75FF"/>
</linearGradient>
</defs>
</svg>
