<svg width="38" height="38" viewBox="0 0 38 38" fill="none" xmlns="http://www.w3.org/2000/svg">
<g id="&#231;&#187;&#132; 15910" clip-path="url(#clip0_23_21342)">
<g id="&#231;&#187;&#132; 15868" clip-path="url(#clip1_23_21342)">
<path id="&#232;&#183;&#175;&#229;&#190;&#132; 43081" fill-rule="evenodd" clip-rule="evenodd" d="M11.7738 24.5283H26.2645C26.3708 24.5276 26.4691 24.4713 26.5233 24.3798C26.5776 24.2883 26.58 24.1751 26.5296 24.0814L19.2842 10.7983C19.1785 10.6045 18.8597 10.6045 18.7541 10.7983L11.5087 24.0814C11.4576 24.175 11.4595 24.2886 11.5139 24.3804C11.5684 24.4721 11.6671 24.5283 11.7738 24.5283ZM25.7555 23.9245H12.2822L19.0191 11.5736L25.7555 23.9245Z" fill="white"/>
<path id="&#232;&#183;&#175;&#229;&#190;&#132; 43082" d="M22.6418 24.2265C22.6418 26.2273 24.2637 27.8492 26.2646 27.8492C28.2653 27.8492 29.8872 26.2273 29.8872 24.2265C29.8872 22.2258 28.2653 20.6039 26.2646 20.6039C24.2637 20.6039 22.6418 22.2258 22.6418 24.2265V24.2265Z" fill="url(#paint0_linear_23_21342)"/>
<path id="&#232;&#183;&#175;&#229;&#190;&#132; 43083" fill-rule="evenodd" clip-rule="evenodd" d="M22.3396 24.2263C22.3396 26.3902 24.1002 28.1508 26.2641 28.1508C28.4281 28.1508 30.1887 26.3902 30.1887 24.2263C30.1887 22.0623 28.4281 20.3018 26.2641 20.3018C24.1002 20.3018 22.3396 22.0623 22.3396 24.2263ZM22.9433 24.2263C22.9433 22.3951 24.4329 20.9055 26.2641 20.9055C28.0954 20.9055 29.5849 22.3951 29.5849 24.2263C29.5849 26.0575 28.0954 27.547 26.2641 27.547C24.4329 27.547 22.9433 26.0575 22.9433 24.2263ZM26.2641 36C25.0988 36 24.1509 35.052 24.1509 33.8867C24.1509 32.7214 25.0988 31.7735 26.2641 31.7735C27.4294 31.7735 28.3774 32.7214 28.3774 33.8867C28.3774 35.052 27.4294 36 26.2641 36ZM24.7547 33.8867C24.7547 33.0547 25.4321 32.3773 26.2641 32.3773C27.0961 32.3773 27.7736 33.0547 27.7736 33.8867C27.7736 34.7187 27.0961 35.3961 26.2641 35.3961C25.4321 35.3961 24.7547 34.7187 24.7547 33.8867ZM35.9246 26.3395C34.7593 26.3395 33.8113 25.3916 33.8113 24.2263C33.8113 23.0609 34.7593 22.113 35.9246 22.113C37.0898 22.113 38.0378 23.0609 38.0378 24.2263C38.0378 25.3916 37.0898 26.3395 35.9246 26.3395ZM34.4151 24.2263C34.4151 23.3942 35.0926 22.7168 35.9246 22.7168C36.7566 22.7168 37.4341 23.3942 37.4341 24.2263C37.4341 25.0583 36.7566 25.7357 35.9246 25.7357C35.0926 25.7357 34.4151 25.0583 34.4151 24.2263Z" fill="white"/>
<path id="&#232;&#183;&#175;&#229;&#190;&#132; 43084" fill-rule="evenodd" clip-rule="evenodd" d="M29.8872 24.5285H34.1136C34.2804 24.5285 34.4156 24.3934 34.4156 24.2267C34.4156 24.0599 34.2804 23.9248 34.1136 23.9248H29.8872C29.7205 23.9248 29.5854 24.0599 29.5854 24.2267C29.5854 24.3934 29.7205 24.5285 29.8872 24.5285ZM25.9626 32.0758C25.9626 32.2425 26.0978 32.3777 26.2646 32.3777C26.4313 32.3777 26.5664 32.2425 26.5664 32.0758V27.8493C26.5664 27.6826 26.4313 27.5474 26.2646 27.5474C26.0978 27.5474 25.9626 27.6826 25.9626 27.8493V32.0758Z" fill="white"/>
<path id="&#232;&#183;&#175;&#229;&#190;&#132; 43085" d="M8.15112 24.2265C8.15112 26.2273 9.77306 27.8492 11.7738 27.8492C13.7745 27.8492 15.3965 26.2273 15.3965 24.2265C15.3965 22.2258 13.7745 20.6039 11.7738 20.6039C9.77306 20.6039 8.15112 22.2258 8.15112 24.2265V24.2265Z" fill="url(#paint1_linear_23_21342)"/>
<path id="&#232;&#183;&#175;&#229;&#190;&#132; 43086" fill-rule="evenodd" clip-rule="evenodd" d="M7.84912 24.2263C7.84912 26.3902 9.60974 28.1508 11.7737 28.1508C13.9376 28.1508 15.6982 26.3902 15.6982 24.2263C15.6982 22.0623 13.9376 20.3018 11.7737 20.3018C9.60974 20.3018 7.84912 22.0623 7.84912 24.2263ZM8.4529 24.2263C8.4529 22.3951 9.94242 20.9055 11.7737 20.9055C13.6049 20.9055 15.0945 22.3951 15.0945 24.2263C15.0945 26.0575 13.6049 27.547 11.7737 27.547C9.94242 27.547 8.4529 26.0575 8.4529 24.2263ZM11.7737 36C10.6084 36 9.66045 35.052 9.66045 33.8867C9.66045 32.7214 10.6084 31.7735 11.7737 31.7735C12.939 31.7735 13.8869 32.7214 13.8869 33.8867C13.8869 35.052 12.939 36 11.7737 36ZM10.2642 33.8867C10.2642 33.0547 10.9417 32.3773 11.7737 32.3773C12.6057 32.3773 13.2831 33.0547 13.2831 33.8867C13.2831 34.7187 12.6057 35.3961 11.7737 35.3961C10.9417 35.3961 10.2642 34.7187 10.2642 33.8867ZM2.11322 26.3395C0.947933 26.3395 0 25.3916 0 24.2263C0 23.0609 0.947933 22.113 2.11322 22.113C3.27852 22.113 4.22645 23.0609 4.22645 24.2263C4.22645 25.3916 3.27852 26.3395 2.11322 26.3395ZM0.603778 24.2263C0.603778 23.3942 1.28122 22.7168 2.11322 22.7168C2.94523 22.7168 3.62267 23.3942 3.62267 24.2263C3.62267 25.0583 2.94523 25.7357 2.11322 25.7357C1.28122 25.7357 0.603778 25.0583 0.603778 24.2263Z" fill="white"/>
<path id="&#232;&#183;&#175;&#229;&#190;&#132; 43087" fill-rule="evenodd" clip-rule="evenodd" d="M3.92446 24.5285H8.1509C8.31763 24.5285 8.45279 24.3934 8.45279 24.2267C8.45279 24.0599 8.31763 23.9248 8.1509 23.9248H3.92446C3.75772 23.9248 3.62256 24.0599 3.62256 24.2267C3.62256 24.3934 3.75772 24.5285 3.92446 24.5285ZM11.4717 32.0758C11.4717 32.2425 11.6068 32.3777 11.7736 32.3777C11.9403 32.3777 12.0755 32.2425 12.0755 32.0758V27.8493C12.0755 27.6826 11.9403 27.5474 11.7736 27.5474C11.6068 27.5474 11.4717 27.6826 11.4717 27.8493V32.0758Z" fill="white"/>
<path id="&#232;&#183;&#175;&#229;&#190;&#132; 43088" d="M16.1763 13.5053C17.5911 14.92 19.8848 14.9199 21.2996 13.5052C22.7142 12.0904 22.7142 9.79664 21.2994 8.38192C19.8847 6.96722 17.5909 6.96726 16.1763 8.38202C14.7615 9.79679 14.7616 12.0905 16.1763 13.5053V13.5053Z" fill="url(#paint2_linear_23_21342)"/>
<path id="&#232;&#183;&#175;&#229;&#190;&#132; 43089" fill-rule="evenodd" clip-rule="evenodd" d="M25.8496 6.22547C25.2889 6.22692 24.7508 6.00408 24.3553 5.60659C23.5316 4.78063 23.5316 3.44386 24.3553 2.61789C25.1788 1.79434 26.5198 1.79373 27.344 2.61789C28.1681 3.44205 28.1675 4.78244 27.344 5.60659C26.9487 6.00436 26.4104 6.22725 25.8496 6.22547ZM12.1885 6.22547C11.6278 6.22706 11.0896 6.0042 10.6942 5.60659C9.8705 4.78063 9.8705 3.44386 10.6942 2.61789C11.5202 1.79419 12.8569 1.79419 13.6829 2.61789C14.5066 3.44386 14.5066 4.78063 13.6829 5.60659C13.2873 6.00403 12.7493 6.22684 12.1885 6.22547ZM16.2441 13.7184C16.9796 14.4548 17.9782 14.8679 19.0191 14.8661C20.0599 14.8679 21.0586 14.4548 21.7941 13.7184C23.324 12.1884 23.324 9.6984 21.7941 8.16843C20.2641 6.63845 17.7741 6.63845 16.2441 8.16843C14.7142 9.6984 14.7142 12.1884 16.2441 13.7184ZM16.671 8.5953C17.2933 7.97217 18.1384 7.62277 19.0191 7.62442C19.8997 7.62291 20.7448 7.97228 21.3672 8.5953C21.9945 9.22262 22.3398 10.0564 22.3398 10.9434C22.3398 11.8303 21.9945 12.6642 21.3672 13.2915C20.7398 13.9188 19.9061 14.2642 19.0191 14.2642C18.1322 14.2642 17.2983 13.9188 16.671 13.2915C16.0437 12.6642 15.6983 11.8303 15.6983 10.9434C15.6983 10.0564 16.0437 9.22262 16.671 8.5953ZM11.1211 3.04476C11.4151 2.75072 11.8015 2.6034 12.1885 2.6034C12.5889 2.6029 12.9729 2.76169 13.256 3.04476C13.8447 3.63469 13.8447 4.58981 13.256 5.17973C12.6855 5.75029 11.691 5.74969 11.121 5.17973C10.5324 4.58981 10.5324 3.63469 11.1211 3.04476ZM24.7827 3.04476C25.0768 2.75072 25.4632 2.6034 25.8503 2.6034C26.2505 2.6029 26.6346 2.76169 26.9177 3.04476C27.5064 3.63469 27.5064 4.58981 26.9177 5.17973C26.3471 5.74969 25.3527 5.75029 24.7827 5.17973C24.1941 4.58981 24.1941 3.63469 24.7827 3.04476Z" fill="white"/>
<path id="&#232;&#183;&#175;&#229;&#190;&#132; 43090" fill-rule="evenodd" clip-rule="evenodd" d="M16.4572 8.6835C16.377 8.6835 16.3002 8.65178 16.2434 8.59531L13.2547 5.60664C13.1368 5.48877 13.1368 5.29763 13.2547 5.17974C13.3726 5.06183 13.5637 5.06183 13.6816 5.17974L16.6703 8.16847C16.7563 8.2548 16.782 8.38441 16.7354 8.49705C16.6888 8.60967 16.579 8.68322 16.4572 8.6835ZM21.5808 8.6835C21.4589 8.6835 21.3489 8.61006 21.3021 8.49739C21.2553 8.38464 21.281 8.25487 21.3671 8.16847L24.3558 5.17977C24.4736 5.06183 24.6648 5.06183 24.7827 5.17974C24.9006 5.29763 24.9006 5.48877 24.7827 5.60668L21.7939 8.59534C21.7375 8.65188 21.6608 8.6836 21.5808 8.6835ZM30.7927 15.6789C30.7927 15.8456 30.9278 15.9808 31.0946 15.9808C31.2613 15.9808 31.3964 15.8456 31.3964 15.6789V13.2638C31.3964 13.097 31.2613 12.9619 31.0946 12.9619C30.9278 12.9619 30.7927 13.097 30.7927 13.2638V15.6789Z" fill="white"/>
<path id="&#232;&#183;&#175;&#229;&#190;&#132; 43091" fill-rule="evenodd" clip-rule="evenodd" d="M29.8869 14.7733H32.302C32.4688 14.7733 32.6039 14.6381 32.6039 14.4714C32.6039 14.3046 32.4688 14.1694 32.302 14.1694H29.8869C29.7202 14.1694 29.585 14.3046 29.585 14.4714C29.585 14.6381 29.7202 14.7733 29.8869 14.7733ZM18.717 32.2828C18.717 32.4496 18.8522 32.5847 19.019 32.5847C19.1857 32.5847 19.3208 32.4496 19.3208 32.2828V29.8677C19.3208 29.7009 19.1857 29.5658 19.019 29.5658C18.8522 29.5658 18.717 29.7009 18.717 29.8677V32.2828Z" fill="white"/>
<path id="&#232;&#183;&#175;&#229;&#190;&#132; 43092" d="M20.2267 31.377H17.8116C17.6449 31.377 17.5098 31.2419 17.5098 31.0751C17.5098 30.9084 17.6449 30.7732 17.8116 30.7732H20.2267C20.3935 30.7732 20.5286 30.9084 20.5286 31.0751C20.5286 31.2419 20.3935 31.377 20.2267 31.377V31.377Z" fill="white"/>
<path id="&#232;&#183;&#175;&#229;&#190;&#132; 43093" d="M6.94347 15.9807C6.77676 15.9807 6.6416 15.8455 6.6416 15.6788V13.2637C6.6416 13.0969 6.77676 12.9618 6.94347 12.9618C7.11022 12.9618 7.24538 13.0969 7.24538 13.2637V15.6788C7.24538 15.8455 7.11022 15.9807 6.94347 15.9807V15.9807Z" fill="white"/>
<path id="&#232;&#183;&#175;&#229;&#190;&#132; 43094" d="M8.15108 14.7733H5.73597C5.56924 14.7733 5.43408 14.6381 5.43408 14.4714C5.43408 14.3046 5.56924 14.1694 5.73597 14.1694H8.15108C8.3178 14.1694 8.45297 14.3046 8.45297 14.4714C8.45297 14.6381 8.3178 14.7733 8.15108 14.7733V14.7733Z" fill="white"/>
</g>
<g id="&#231;&#187;&#132; 15906" clip-path="url(#clip2_23_21342)">
<path id="&#232;&#183;&#175;&#229;&#190;&#132; 43124" d="M19.4696 10.4685H18.4126V11.5255H19.4696V10.4685V10.4685Z" fill="white"/>
<path id="&#232;&#183;&#175;&#229;&#190;&#132; 43125" d="M18.6547 9.16003V9.79262H17.7369V10.7105H17.1042V9.61595L17.5602 9.16003H18.6547V9.16003Z" fill="white"/>
<path id="&#232;&#183;&#175;&#229;&#190;&#132; 43126" d="M20.7785 9.61595V10.7105H20.1462V9.79262H19.228V9.16003H20.3229L20.7785 9.61595V9.61595Z" fill="white"/>
<path id="&#232;&#183;&#175;&#229;&#190;&#132; 43127" d="M20.7785 11.2839V12.3785L20.3229 12.8344H19.228V12.2018H20.1462V11.2839H20.7785V11.2839Z" fill="white"/>
<path id="&#232;&#183;&#175;&#229;&#190;&#132; 43128" d="M18.6547 12.2018V12.8344H17.5602L17.1042 12.3785V11.2839H17.7369V12.2018H18.6547V12.2018Z" fill="white"/>
</g>
<g id="&#231;&#187;&#132; 15907" clip-path="url(#clip3_23_21342)">
<path id="&#232;&#183;&#175;&#229;&#190;&#132; 43124_2" d="M12.3097 23.9927H11.2527V25.0497H12.3097V23.9927V23.9927Z" fill="white"/>
<path id="&#232;&#183;&#175;&#229;&#190;&#132; 43125_2" d="M11.4948 22.6842V23.3168H10.5769V24.2347H9.94434V23.1401L10.4003 22.6842H11.4948V22.6842Z" fill="white"/>
<path id="&#232;&#183;&#175;&#229;&#190;&#132; 43126_2" d="M13.6186 23.1401V24.2347H12.9863V23.3168H12.0681V22.6842H13.163L13.6186 23.1401V23.1401Z" fill="white"/>
<path id="&#232;&#183;&#175;&#229;&#190;&#132; 43127_2" d="M13.6186 24.8081V25.9027L13.163 26.3586H12.0681V25.726H12.9863V24.8081H13.6186V24.8081Z" fill="white"/>
<path id="&#232;&#183;&#175;&#229;&#190;&#132; 43128_2" d="M11.4948 25.726V26.3586H10.4003L9.94434 25.9027V24.8081H10.5769V25.726H11.4948V25.726Z" fill="white"/>
</g>
<g id="&#231;&#187;&#132; 15908" clip-path="url(#clip4_23_21342)">
<path id="&#232;&#183;&#175;&#229;&#190;&#132; 43124_3" d="M26.8681 23.9927H25.811V25.0497H26.8681V23.9927V23.9927Z" fill="white"/>
<path id="&#232;&#183;&#175;&#229;&#190;&#132; 43125_3" d="M26.0529 22.6842V23.3168H25.1351V24.2347H24.5024V23.1401L24.9584 22.6842H26.0529V22.6842Z" fill="white"/>
<path id="&#232;&#183;&#175;&#229;&#190;&#132; 43126_3" d="M28.1769 23.1401V24.2347H27.5447V23.3168H26.6265V22.6842H27.7214L28.1769 23.1401V23.1401Z" fill="white"/>
<path id="&#232;&#183;&#175;&#229;&#190;&#132; 43127_3" d="M28.1769 24.8081V25.9027L27.7214 26.3586H26.6265V25.726H27.5447V24.8081H28.1769V24.8081Z" fill="white"/>
<path id="&#232;&#183;&#175;&#229;&#190;&#132; 43128_3" d="M26.0529 25.726V26.3586H24.9584L24.5024 25.9027V24.8081H25.1351V25.726H26.0529V25.726Z" fill="white"/>
</g>
</g>
<defs>
<linearGradient id="paint0_linear_23_21342" x1="22.6418" y1="20.6039" x2="22.6418" y2="27.8492" gradientUnits="userSpaceOnUse">
<stop stop-color="#9160FF"/>
<stop offset="1" stop-color="#5E75FF"/>
</linearGradient>
<linearGradient id="paint1_linear_23_21342" x1="8.15112" y1="20.6039" x2="8.15112" y2="27.8492" gradientUnits="userSpaceOnUse">
<stop stop-color="#9160FF"/>
<stop offset="1" stop-color="#5E75FF"/>
</linearGradient>
<linearGradient id="paint2_linear_23_21342" x1="15.1152" y1="7.32092" x2="15.1152" y2="14.5663" gradientUnits="userSpaceOnUse">
<stop stop-color="#9160FF"/>
<stop offset="1" stop-color="#5E75FF"/>
</linearGradient>
<clipPath id="clip0_23_21342">
<rect width="38" height="38" fill="white"/>
</clipPath>
<clipPath id="clip1_23_21342">
<rect width="38.0379" height="34" fill="white" transform="translate(0 2)"/>
</clipPath>
<clipPath id="clip2_23_21342">
<rect width="3.67433" height="3.67435" fill="white" transform="translate(17.1042 9.16003)"/>
</clipPath>
<clipPath id="clip3_23_21342">
<rect width="3.67433" height="3.67435" fill="white" transform="translate(9.94434 22.6842)"/>
</clipPath>
<clipPath id="clip4_23_21342">
<rect width="3.67433" height="3.67435" fill="white" transform="translate(24.5024 22.6842)"/>
</clipPath>
</defs>
</svg>
