<svg width="20" height="20" viewBox="0 0 20 20" fill="none" xmlns="http://www.w3.org/2000/svg">
<g id="Frame 614">
<path id="&#232;&#183;&#175;&#229;&#190;&#132; 42968" d="M10.628 2.07338C10.4946 2.01081 10.3462 1.98754 10.2001 2.00632C10.054 2.02509 9.91622 2.08512 9.803 2.17938L5.346 5.88938L1.791 5.87538C1.58563 5.87538 1.38866 5.95689 1.24335 6.10201C1.09804 6.24714 1.01627 6.44401 1.016 6.64938L1 12.8494C0.99974 12.9513 1.01959 13.0523 1.05842 13.1466C1.09725 13.2408 1.1543 13.3265 1.22629 13.3987C1.29828 13.4709 1.3838 13.5281 1.47796 13.5672C1.57212 13.6063 1.67306 13.6264 1.775 13.6264H5.37L9.805 17.3264C9.91847 17.4209 10.0566 17.481 10.2031 17.4997C10.3495 17.5183 10.4983 17.4948 10.6319 17.4317C10.7654 17.3687 10.8781 17.2688 10.9568 17.1439C11.0355 17.0189 11.0769 16.874 11.076 16.7264V2.77438C11.0756 2.62731 11.0333 2.4834 10.9542 2.35945C10.875 2.23549 10.7623 2.13662 10.629 2.07438L10.628 2.07338ZM13.628 5.94838C13.444 5.86245 13.2336 5.85246 13.0423 5.92059C12.851 5.98873 12.6942 6.12949 12.606 6.31238C12.5178 6.49674 12.5054 6.70837 12.5716 6.90174C12.6378 7.09511 12.7773 7.25477 12.96 7.34638C13.3568 7.58981 13.6793 7.93724 13.8926 8.35098C14.1059 8.76473 14.2018 9.22898 14.17 9.69338C14.2176 10.1666 14.1388 10.644 13.9417 11.0769C13.7446 11.5098 13.4362 11.8826 13.048 12.1574C12.8699 12.2527 12.7359 12.4137 12.6746 12.6062C12.6133 12.7987 12.6295 13.0075 12.7198 13.1882C12.81 13.369 12.9672 13.5074 13.1579 13.5741C13.3486 13.6408 13.5578 13.6305 13.741 13.5454C14.3919 13.1463 14.9205 12.576 15.2694 11.8969C15.6182 11.2178 15.7737 10.4559 15.719 9.69438C15.7546 8.9371 15.5775 8.18497 15.2078 7.52312C14.8381 6.86127 14.2905 6.31612 13.627 5.94938L13.628 5.94838ZM16.041 3.67238C15.8689 3.57381 15.6655 3.545 15.4728 3.59187C15.28 3.63873 15.1126 3.75771 15.005 3.92431C14.8973 4.09091 14.8576 4.29245 14.8941 4.48742C14.9306 4.68239 15.0404 4.85595 15.201 4.97238C15.9042 5.54348 16.4593 6.27564 16.8195 7.10684C17.1797 7.93803 17.3342 8.84378 17.27 9.74738C17.27 13.1224 15.37 14.4764 15.29 14.5274C15.2054 14.5842 15.1329 14.6571 15.0765 14.7419C15.0201 14.8267 14.9809 14.9219 14.9613 15.0218C14.9216 15.2237 14.9638 15.4331 15.0785 15.6039C15.1932 15.7747 15.3711 15.8929 15.573 15.9326C15.7748 15.9722 15.9842 15.9301 16.155 15.8154C16.264 15.7434 18.825 13.9874 18.825 9.74538C18.8928 8.58243 18.6751 7.42054 18.1907 6.3611C17.7063 5.30166 16.97 4.37685 16.046 3.66737L16.041 3.67238Z" fill="url(#paint0_linear_23_17770)"/>
</g>
<defs>
<linearGradient id="paint0_linear_23_17770" x1="9.91856" y1="2" x2="9.91856" y2="17.5059" gradientUnits="userSpaceOnUse">
<stop stop-color="#C4AAFF"/>
<stop offset="1" stop-color="#B7C1FF"/>
</linearGradient>
</defs>
</svg>
