<svg width="51" height="50" viewBox="0 0 51 50" fill="none" xmlns="http://www.w3.org/2000/svg">
<g id="Frame">
<path id="Vector" d="M25.5 50C25.8125 50 25.8125 50 26.125 50C28 49.375 29.875 48.75 31.4375 48.125C38.9375 45.625 47.0625 42.8125 47.0625 32.5V8.4375C47.0625 7.5 46.4375 6.875 45.5 6.875C33 6.875 26.4375 0.3125 26.4375 0.3125C26.4375 0.3125 25.8125 0 25.5 0C25.1875 0 24.5625 0.3125 24.25 0.625C24.25 0.625 17.6875 7.1875 5.1875 7.1875C4.25 7.1875 3.625 7.8125 3.625 8.75V32.5C3.625 42.8125 12.0625 45.625 19.25 48.125C21.125 48.75 23 49.375 24.5625 50C25.1875 50 25.1875 50 25.5 50ZM44.25 10V32.1875C44.25 40.3125 38 42.5 30.8125 45C28.9375 45.625 27.0625 45.9375 25.5 46.875C23.9375 46.25 22.0625 45.625 20.5 45C13.3125 42.5 7.0625 40.625 7.0625 32.1875V10C17.0625 9.6875 23.3125 5.625 25.8125 3.4375C28 5.625 34.25 9.6875 44.25 10Z" fill="url(#paint0_linear_23_26996)"/>
<path id="Vector_2" d="M18.625 25.625C19.5625 25.625 20.1875 25 20.1875 24.0625V20C20.1875 17.1875 22.6875 14.6875 25.5 14.6875C28.3125 14.6875 30.8125 17.1875 30.8125 20V24.0625C30.8125 25 31.4375 25.625 32.375 25.625C33.3125 25.625 33.9375 25 33.9375 24.0625V20C33.9375 15.625 30.1875 11.875 25.5 11.875C20.8125 11.875 17.0625 15.625 17.0625 20.3125V24.375C17.0625 25 17.6875 25.625 18.625 25.625Z" fill="url(#paint1_linear_23_26996)"/>
<path id="Vector_3" d="M16.75 38.4375H34.25C35.1875 38.4375 35.8125 37.8125 35.8125 36.875V24.375C35.8125 23.4375 35.1875 22.8125 34.25 22.8125H16.75C15.8125 22.8125 15.1875 23.4375 15.1875 24.375V36.875C15.1875 37.5 15.8125 38.4375 16.75 38.4375ZM32.6875 35.3125H18.3125V25.9375H32.6875V35.3125Z" fill="url(#paint2_linear_23_26996)"/>
<path id="Vector_4" d="M25.5 33.4375C26.4375 33.4375 27.0625 32.8125 27.0625 31.875V28.75C27.0625 28.125 26.4375 27.5 25.5 27.5C24.5625 27.5 23.9375 28.125 23.9375 29.0625V32.1875C23.9375 32.8125 24.5625 33.4375 25.5 33.4375Z" fill="url(#paint3_linear_23_26996)"/>
</g>
<defs>
<linearGradient id="paint0_linear_23_26996" x1="51.3161" y1="-14.3619" x2="51.3161" y2="50" gradientUnits="userSpaceOnUse">
<stop stop-color="#9160FF"/>
<stop offset="1" stop-color="#5E75FF"/>
</linearGradient>
<linearGradient id="paint1_linear_23_26996" x1="35.59" y1="7.92547" x2="35.59" y2="25.625" gradientUnits="userSpaceOnUse">
<stop stop-color="#9160FF"/>
<stop offset="1" stop-color="#5E75FF"/>
</linearGradient>
<linearGradient id="paint2_linear_23_26996" x1="37.8322" y1="18.3244" x2="37.8322" y2="38.4375" gradientUnits="userSpaceOnUse">
<stop stop-color="#9160FF"/>
<stop offset="1" stop-color="#5E75FF"/>
</linearGradient>
<linearGradient id="paint3_linear_23_26996" x1="27.3685" y1="25.7945" x2="27.3685" y2="33.4375" gradientUnits="userSpaceOnUse">
<stop stop-color="#9160FF"/>
<stop offset="1" stop-color="#5E75FF"/>
</linearGradient>
</defs>
</svg>
