<svg width="20" height="21" viewBox="0 0 20 21" fill="none" xmlns="http://www.w3.org/2000/svg">
<g id="Frame 626" clip-path="url(#clip0_23_20634)">
<rect id="Rectangle 878" y="0.5" width="20" height="20" rx="10" fill="#2ABB93"/>
<path id="Vector" d="M13.8225 7.53064V5.5H6.19509V7.53064H9.00706V8.85731C6.72124 8.96937 5 9.46053 5 10.0498C5 10.6391 6.72123 11.1303 9.00706 11.2423V15.5H11.0105V11.2413C13.2875 11.1276 15 10.6373 15 10.0498C15 9.46222 13.2875 8.9718 11.0105 8.8582V7.53062H13.8225V7.53064ZM14.1388 9.92985C14.1388 10.3174 12.8079 10.6425 11.0105 10.7328L10.8943 10.7382H10.8815L10.7726 10.7425H10.7608C10.6798 10.7456 10.5978 10.7481 10.5148 10.7502H10.5096L10.3982 10.7527H10.3668L10.2789 10.754H9.7223L9.63532 10.7527H9.6051L9.50119 10.7503H9.48977C9.36661 10.7473 9.24531 10.7432 9.1258 10.7382H9.12423L9.00525 10.7325C7.19889 10.6437 5.85937 10.3174 5.85937 9.928C5.85937 9.53849 7.19912 9.21322 9.00525 9.12336V10.355C9.31879 10.3728 9.65233 10.3826 9.99825 10.3826C10.3497 10.3826 10.6899 10.3726 11.0088 10.354V9.12702C12.8077 9.21704 14.1388 9.54231 14.1388 9.92985Z" fill="white"/>
</g>
<defs>
<clipPath id="clip0_23_20634">
<rect width="20" height="20" fill="white" transform="translate(0 0.5)"/>
</clipPath>
</defs>
</svg>
