<svg width="38" height="38" viewBox="0 0 38 38" fill="none" xmlns="http://www.w3.org/2000/svg">
<g id="&#231;&#187;&#132; 15910" clip-path="url(#clip0_23_21273)">
<g id="&#231;&#187;&#132; 15851" clip-path="url(#clip1_23_21273)">
<path id="&#232;&#183;&#175;&#229;&#190;&#132; 42975" d="M28.3389 29.9491H9.66095C8.77168 29.9491 8.05078 29.2281 8.05078 28.3389V9.66095C8.05078 8.77168 8.77168 8.05078 9.66095 8.05078H28.3389C29.2281 8.05078 29.9491 8.77168 29.9491 9.66095V28.3389C29.9491 29.2281 29.2281 29.9491 28.3389 29.9491V29.9491Z" fill="url(#paint0_linear_23_21273)"/>
<path id="&#232;&#183;&#175;&#229;&#190;&#132; 42976" fill-rule="evenodd" clip-rule="evenodd" d="M9.6612 30.2711H28.3391C29.4044 30.2711 30.2713 29.4042 30.2713 28.3389V9.66095C30.2713 8.59567 29.4044 7.72876 28.3391 7.72876H9.6612C8.59591 7.72876 7.729 8.59567 7.729 9.66095V28.3389C7.729 29.4042 8.59591 30.2711 9.6612 30.2711ZM8.37306 9.66095C8.37306 8.95053 8.95077 8.37282 9.6612 8.37282H28.3391C29.0495 8.37282 29.6273 8.95053 29.6273 9.66095V28.3389C29.6273 29.0493 29.0495 29.627 28.3391 29.627H9.6612C8.95077 29.627 8.37306 29.0493 8.37306 28.3389V9.66095Z" fill="white"/>
<path id="&#232;&#183;&#175;&#229;&#190;&#132; 42977" d="M26.4068 28.0169H11.5933C10.7041 28.0169 9.98315 27.296 9.98315 26.4067V11.5932C9.98315 10.7039 10.7041 9.98303 11.5933 9.98303H26.4068C27.2961 9.98303 28.017 10.7039 28.017 11.5932V26.4067C28.017 27.296 27.2961 28.0169 26.4068 28.0169V28.0169Z" fill="url(#paint1_linear_23_21273)"/>
<path id="&#232;&#183;&#175;&#229;&#190;&#132; 42978" fill-rule="evenodd" clip-rule="evenodd" d="M11.5934 28.3389H26.4068C27.4722 28.3389 28.339 27.4721 28.339 26.4067V11.5932C28.339 10.5279 27.4722 9.66101 26.4068 9.66101H11.5934C10.5281 9.66101 9.66113 10.5279 9.66113 11.5932V26.4067C9.66113 27.4721 10.5281 28.3389 11.5934 28.3389ZM10.3052 11.5932C10.3052 10.8828 10.8829 10.3051 11.5934 10.3051H26.4068C27.1173 10.3051 27.695 10.8828 27.695 11.5932V26.4067C27.695 27.1172 27.1173 27.6948 26.4068 27.6948H11.5934C10.8829 27.6948 10.3052 27.1172 10.3052 26.4067V11.5932Z" fill="white"/>
<path id="&#232;&#183;&#175;&#229;&#190;&#132; 42981" fill-rule="evenodd" clip-rule="evenodd" d="M11.9153 3.22033C11.0278 3.22033 10.3052 2.49833 10.3052 1.61017C10.3052 0.721999 11.0278 0 11.9153 0C12.8029 0 13.5255 0.721999 13.5255 1.61017C13.5255 2.49833 12.8029 3.22033 11.9153 3.22033ZM17.3899 2.8983C17.3899 3.78646 18.1125 4.50847 19 4.50847C19.8875 4.50847 20.6102 3.78646 20.6102 2.8983C20.6102 2.01013 19.8875 1.28813 19 1.28813C18.1125 1.28813 17.3899 2.01013 17.3899 2.8983ZM18.034 2.8983C18.034 2.36566 18.4674 1.9322 19 1.9322C19.5327 1.9322 19.9661 2.36566 19.9661 2.8983C19.9661 3.43093 19.5327 3.8644 19 3.8644C18.4674 3.8644 18.034 3.43093 18.034 2.8983ZM10.9492 1.61017C10.9492 1.07752 11.3827 0.644069 11.9153 0.644069C12.448 0.644069 12.8814 1.07752 12.8814 1.61017C12.8814 2.14281 12.448 2.57627 11.9153 2.57627C11.3827 2.57627 10.9492 2.14281 10.9492 1.61017Z" fill="white"/>
<path id="&#232;&#183;&#175;&#229;&#190;&#132; 42982" fill-rule="evenodd" clip-rule="evenodd" d="M26.0847 3.22033C25.1972 3.22033 24.4745 2.49833 24.4745 1.61017C24.4745 0.721999 25.1972 0 26.0847 0C26.9723 0 27.6949 0.721999 27.6949 1.61017C27.6949 2.49833 26.9723 3.22033 26.0847 3.22033ZM15.1356 8.37286C15.0627 8.37281 14.9918 8.34807 14.9347 8.30265L11.7143 5.72639C11.6378 5.66524 11.5932 5.57256 11.5933 5.47456V2.8983C11.5933 2.72044 11.7375 2.57627 11.9153 2.57627C12.0932 2.57627 12.2373 2.72044 12.2373 2.8983V5.31999L15.3366 7.79964C15.4423 7.88546 15.4828 8.02842 15.4378 8.15694C15.3927 8.28546 15.2718 8.37185 15.1356 8.37286ZM25.1187 1.61017C25.1187 1.07752 25.5521 0.644069 26.0847 0.644069C26.6174 0.644069 27.0509 1.07752 27.0509 1.61017C27.0509 2.14281 26.6174 2.57627 26.0847 2.57627C25.5521 2.57627 25.1187 2.14281 25.1187 1.61017Z" fill="white"/>
<path id="&#232;&#183;&#175;&#229;&#190;&#132; 42983" fill-rule="evenodd" clip-rule="evenodd" d="M22.5609 8.15715C22.6062 8.28606 22.7277 8.37247 22.8644 8.37288C22.9372 8.373 23.0079 8.34821 23.0646 8.30267L26.285 5.72642C26.3616 5.66526 26.4061 5.57258 26.4061 5.4746V2.89832C26.4061 2.72047 26.2619 2.57629 26.0841 2.57629C25.9062 2.57629 25.7621 2.72046 25.7621 2.89832V5.31937L22.6628 7.79902C22.5564 7.88479 22.5156 8.02825 22.5609 8.15715ZM18.678 33.8135C18.678 33.9913 18.8221 34.1355 19 34.1355C19.1778 34.1355 19.322 33.9913 19.322 33.8135V29.9491C19.322 29.7713 19.1778 29.6271 19 29.6271C18.8221 29.6271 18.678 29.7713 18.678 29.9491V33.8135Z" fill="white"/>
<path id="&#232;&#183;&#175;&#229;&#190;&#132; 42984" fill-rule="evenodd" clip-rule="evenodd" d="M17.3896 35.1017C17.3896 35.9899 18.1123 36.7118 18.9998 36.7118C19.8873 36.7118 20.61 35.9899 20.61 35.1017C20.61 34.2134 19.8873 33.4915 18.9998 33.4915C18.1123 33.4915 17.3896 34.2134 17.3896 35.1017ZM18.0337 35.1017C18.0337 34.569 18.4671 34.1355 18.9998 34.1355C19.5325 34.1355 19.9659 34.569 19.9659 35.1017C19.9659 35.6343 19.5325 36.0678 18.9998 36.0678C18.4671 36.0678 18.0337 35.6343 18.0337 35.1017ZM26.0846 38C25.1971 38 24.4744 37.278 24.4744 36.3898C24.4744 35.5017 25.1971 34.7796 26.0846 34.7796C26.9721 34.7796 27.6947 35.5017 27.6947 36.3898C27.6947 37.278 26.9721 38 26.0846 38ZM25.1184 36.3898C25.1184 35.8571 25.5519 35.4237 26.0846 35.4237C26.6172 35.4237 27.0506 35.8571 27.0506 36.3898C27.0506 36.9225 26.6172 37.3559 26.0846 37.3559C25.5519 37.3559 25.1184 36.9225 25.1184 36.3898Z" fill="white"/>
<path id="&#232;&#183;&#175;&#229;&#190;&#132; 42985" fill-rule="evenodd" clip-rule="evenodd" d="M26.0848 35.4236C25.9069 35.4236 25.7627 35.2794 25.7627 35.1015V32.6799L22.6635 30.2001C22.5365 30.0857 22.5208 29.8923 22.6275 29.7588C22.7343 29.6254 22.9266 29.5984 23.066 29.6973L26.2864 32.2735C26.3625 32.3348 26.4068 32.4274 26.4068 32.5252V35.1015C26.4068 35.2794 26.2627 35.4236 26.0848 35.4236ZM11.9153 37.9998C11.0278 37.9998 10.3052 37.2779 10.3052 36.3897C10.3052 35.5015 11.0278 34.7795 11.9153 34.7795C12.8029 34.7795 13.5255 35.5015 13.5255 36.3897C13.5255 37.2779 12.8029 37.9998 11.9153 37.9998ZM10.9492 36.3897C10.9492 35.8571 11.3827 35.4236 11.9153 35.4236C12.448 35.4236 12.8814 35.8571 12.8814 36.3897C12.8814 36.9222 12.448 37.3559 11.9153 37.3559C11.3827 37.3559 10.9492 36.9222 10.9492 36.3897Z" fill="white"/>
<path id="&#232;&#183;&#175;&#229;&#190;&#132; 42986" fill-rule="evenodd" clip-rule="evenodd" d="M29.9492 19.322H33.8135C33.9914 19.322 34.1356 19.1778 34.1356 19C34.1356 18.8221 33.9914 18.678 33.8135 18.678H29.9492C29.7713 18.678 29.6271 18.8221 29.6271 19C29.6271 19.1778 29.7713 19.322 29.9492 19.322ZM11.5933 35.1017C11.5933 35.2795 11.7375 35.4236 11.9153 35.4236C12.0932 35.4236 12.2373 35.2795 12.2373 35.1017V32.68L15.3372 30.2003C15.4642 30.0859 15.48 29.8924 15.3732 29.759C15.2664 29.6255 15.0741 29.5984 14.9347 29.6973L11.7143 32.2735C11.6378 32.3346 11.5932 32.4274 11.5933 32.5253V35.1017Z" fill="white"/>
<path id="&#232;&#183;&#175;&#229;&#190;&#132; 42987" fill-rule="evenodd" clip-rule="evenodd" d="M36.3901 13.5253C35.5026 13.5253 34.7798 12.8033 34.7798 11.9152C34.7798 11.027 35.5026 10.3051 36.3901 10.3051C37.2776 10.3051 38.0002 11.027 38.0002 11.9152C38.0002 12.8033 37.2776 13.5253 36.3901 13.5253ZM33.4917 18.9999C33.4917 19.8881 34.2144 20.6101 35.1019 20.6101C35.9895 20.6101 36.7121 19.8881 36.7121 18.9999C36.7121 18.1118 35.9895 17.3898 35.1019 17.3898C34.2144 17.3898 33.4917 18.1118 33.4917 18.9999ZM34.1358 18.9999C34.1358 18.4673 34.5692 18.0338 35.1019 18.0338C35.6345 18.0338 36.068 18.4673 36.068 18.9999C36.068 19.5326 35.6345 19.966 35.1019 19.966C34.5692 19.966 34.1358 19.5326 34.1358 18.9999ZM35.424 11.9152C35.424 11.3826 35.8574 10.9491 36.3901 10.9491C36.9228 10.9491 37.3561 11.3826 37.3561 11.9152C37.3561 12.4478 36.9228 12.8813 36.3901 12.8813C35.8574 12.8813 35.424 12.4478 35.424 11.9152Z" fill="white"/>
<path id="&#232;&#183;&#175;&#229;&#190;&#132; 42988" fill-rule="evenodd" clip-rule="evenodd" d="M29.949 15.4576C29.8257 15.4568 29.7135 15.3858 29.66 15.2746C29.6066 15.1633 29.6212 15.0313 29.698 14.9345L32.2742 11.7142C32.335 11.6377 32.4275 11.5931 32.5252 11.5931H35.1016C35.2795 11.5931 35.4237 11.7373 35.4237 11.9152C35.4237 12.0931 35.2795 12.2372 35.1016 12.2372H32.6799L30.2003 15.3365C30.1395 15.4131 30.0469 15.4578 29.949 15.4575V15.4576ZM36.3897 27.6948C35.5022 27.6948 34.7795 26.9728 34.7795 26.0846C34.7795 25.1965 35.5022 24.4744 36.3897 24.4744C37.2773 24.4744 37.9999 25.1965 37.9999 26.0846C37.9999 26.9728 37.2773 27.6948 36.3897 27.6948ZM35.4237 26.0846C35.4237 25.552 35.8571 25.1185 36.3897 25.1185C36.9224 25.1185 37.3558 25.552 37.3558 26.0846C37.3558 26.6173 36.9224 27.0508 36.3897 27.0508C35.8571 27.0508 35.4237 26.6173 35.4237 26.0846Z" fill="white"/>
<path id="&#232;&#183;&#175;&#229;&#190;&#132; 42989" fill-rule="evenodd" clip-rule="evenodd" d="M4.18629 19.322H8.05067C8.22854 19.322 8.3727 19.1778 8.3727 19C8.3727 18.8221 8.22854 18.678 8.05067 18.678H4.18629C4.00842 18.678 3.86426 18.8221 3.86426 19C3.86426 19.1778 4.00842 19.322 4.18629 19.322ZM32.5252 26.4068H35.1015C35.2795 26.4068 35.4238 26.2625 35.4238 26.0844C35.4238 25.9064 35.2795 25.762 35.1015 25.762H32.6798L30.2001 22.6628C30.0857 22.5359 29.8922 22.5201 29.7588 22.6269C29.6254 22.7336 29.5983 22.9259 29.6971 23.0654L32.2734 26.2857C32.3346 26.3621 32.4272 26.4066 32.5252 26.4068Z" fill="white"/>
<path id="&#232;&#183;&#175;&#229;&#190;&#132; 42990" fill-rule="evenodd" clip-rule="evenodd" d="M1.28813 19C1.28813 19.8881 2.01078 20.6102 2.8983 20.6102C3.78582 20.6102 4.50847 19.8881 4.50847 19C4.50847 18.1118 3.78582 17.3898 2.8983 17.3898C2.01078 17.3898 1.28813 18.1118 1.28813 19ZM1.9322 19C1.9322 18.4673 2.36566 18.0338 2.8983 18.0338C3.43093 18.0338 3.8644 18.4673 3.8644 19C3.8644 19.5326 3.43093 19.966 2.8983 19.966C2.36566 19.966 1.9322 19.5326 1.9322 19ZM1.61017 27.6948C0.722643 27.6948 0 26.9728 0 26.0847C0 25.1965 0.722643 24.4745 1.61017 24.4745C2.49768 24.4745 3.22033 25.1965 3.22033 26.0847C3.22033 26.9728 2.49768 27.6948 1.61017 27.6948ZM0.644069 26.0847C0.644069 25.552 1.07752 25.1185 1.61017 25.1185C2.14281 25.1185 2.57627 25.552 2.57627 26.0847C2.57627 26.6173 2.14281 27.0508 1.61017 27.0508C1.07752 27.0508 0.644069 26.6173 0.644069 26.0847Z" fill="white"/>
<path id="&#232;&#183;&#175;&#229;&#190;&#132; 42991" d="M5.47448 26.4068H2.8982C2.72034 26.4068 2.57617 26.2625 2.57617 26.0846C2.57617 25.9068 2.72035 25.7627 2.8982 25.7627H5.31988L7.79955 22.6633C7.91393 22.5364 8.10747 22.5206 8.2409 22.6274C8.37433 22.7342 8.40137 22.9265 8.30255 23.0659L5.7263 26.2863C5.66478 26.3624 5.57227 26.4067 5.47448 26.4068V26.4068Z" fill="white"/>
<path id="&#232;&#183;&#175;&#229;&#190;&#132; 42992" fill-rule="evenodd" clip-rule="evenodd" d="M0 11.9152C0 12.8033 0.722643 13.5253 1.61017 13.5253C2.49768 13.5253 3.22033 12.8033 3.22033 11.9152C3.22033 11.027 2.49768 10.3051 1.61017 10.3051C0.722643 10.3051 0 11.027 0 11.9152ZM0.644069 11.9152C0.644069 11.3826 1.07752 10.9491 1.61017 10.9491C2.14281 10.9491 2.57627 11.3826 2.57627 11.9152C2.57627 12.4478 2.14281 12.8813 1.61017 12.8813C1.07752 12.8813 0.644069 12.4478 0.644069 11.9152Z" fill="white"/>
<path id="&#232;&#183;&#175;&#229;&#190;&#132; 42993" d="M8.05073 15.4576C7.95271 15.4578 7.85992 15.4132 7.7989 15.3365L5.31988 12.2372H2.8982C2.72034 12.2372 2.57617 12.0931 2.57617 11.9152C2.57617 11.7373 2.72035 11.5931 2.8982 11.5931H5.47448C5.57236 11.5931 5.66446 11.6376 5.7263 11.7142L8.30255 14.9345C8.37924 15.0314 8.39391 15.1636 8.3403 15.2749C8.2867 15.3861 8.17427 15.4571 8.05073 15.4576V15.4576Z" fill="white"/>
</g>
<g id="&#231;&#187;&#132; 15905" clip-path="url(#clip2_23_21273)">
<path id="&#232;&#183;&#175;&#229;&#190;&#132; 43124" d="M20.3476 17.381H17.1108V20.6178H20.3476V17.381V17.381Z" fill="white"/>
<path id="&#232;&#183;&#175;&#229;&#190;&#132; 43125" d="M17.8521 13.3743V15.3114H15.0414V18.1221H13.1042V14.7703L14.5003 13.3743H17.8521V13.3743Z" fill="white"/>
<path id="&#232;&#183;&#175;&#229;&#190;&#132; 43126" d="M24.3557 14.7703V18.1221H22.4197V15.3114H19.6079V13.3743H22.9607L24.3557 14.7703V14.7703Z" fill="white"/>
<path id="&#232;&#183;&#175;&#229;&#190;&#132; 43127" d="M24.3557 19.8778V23.2295L22.9607 24.6256H19.6079V22.6885H22.4197V19.8778H24.3557V19.8778Z" fill="white"/>
<path id="&#232;&#183;&#175;&#229;&#190;&#132; 43128" d="M17.8521 22.6885V24.6256H14.5003L13.1042 23.2295V19.8778H15.0414V22.6885H17.8521V22.6885Z" fill="white"/>
</g>
</g>
<defs>
<linearGradient id="paint0_linear_23_21273" x1="8.05078" y1="8.05078" x2="8.05078" y2="29.9491" gradientUnits="userSpaceOnUse">
<stop stop-color="#9160FF"/>
<stop offset="1" stop-color="#5E75FF"/>
</linearGradient>
<linearGradient id="paint1_linear_23_21273" x1="9.98315" y1="9.98303" x2="9.98315" y2="28.0169" gradientUnits="userSpaceOnUse">
<stop stop-color="#9160FF"/>
<stop offset="1" stop-color="#5E75FF"/>
</linearGradient>
<clipPath id="clip0_23_21273">
<rect width="38" height="38" fill="white"/>
</clipPath>
<clipPath id="clip1_23_21273">
<rect width="38" height="38" fill="white"/>
</clipPath>
<clipPath id="clip2_23_21273">
<rect width="11.2513" height="11.2513" fill="white" transform="translate(13.1042 13.3743)"/>
</clipPath>
</defs>
</svg>
