<svg width="18" height="18" viewBox="0 0 18 18" fill="none" xmlns="http://www.w3.org/2000/svg">
<g id="Frame 716">
<path id="&#232;&#183;&#175;&#229;&#190;&#132; 43139" d="M16.9636 7.05453C16.8761 6.77194 16.6423 6.56586 16.3618 6.52368L11.7373 5.82049L9.66884 1.43505C9.5433 1.16872 9.28417 1 9.00028 1C8.71639 1 8.45726 1.16872 8.33173 1.43505L6.26332 5.82049L1.63816 6.52368C1.35715 6.56646 1.12394 6.77194 1.03641 7.05453C0.948878 7.33714 1.02201 7.64685 1.22528 7.85413L4.57207 11.2676L3.78202 16.0875C3.73422 16.3804 3.84882 16.6762 4.07857 16.851C4.30833 17.0257 4.61237 17.0486 4.86402 16.91L9.00086 14.6342L13.1371 16.91C13.246 16.9697 13.3652 16.9998 13.4838 16.9998C13.6381 16.9998 13.7924 16.9498 13.922 16.851C14.1517 16.6762 14.2664 16.3804 14.2186 16.0875L13.4285 11.2676L16.7753 7.85413C16.978 7.64685 17.0511 7.33714 16.9636 7.05453V7.05453Z" fill="url(#paint0_linear_23_34838)"/>
</g>
<defs>
<linearGradient id="paint0_linear_23_34838" x1="1" y1="1" x2="1" y2="17" gradientUnits="userSpaceOnUse">
<stop stop-color="#9160FF"/>
<stop offset="1" stop-color="#5E75FF"/>
</linearGradient>
</defs>
</svg>
