<svg width="29" height="29" viewBox="0 0 29 29" fill="none" xmlns="http://www.w3.org/2000/svg">
<g id="Frame 532">
<g id="&#231;&#187;&#132; 15833" clip-path="url(#clip0_23_19698)">
<path id="&#232;&#183;&#175;&#229;&#190;&#132; 42975" d="M20.6443 21.7034H8.35618C7.77115 21.7034 7.29688 21.2291 7.29688 20.644V8.35594C7.29688 7.7709 7.77115 7.29663 8.35618 7.29663H20.6443C21.2293 7.29663 21.7036 7.7709 21.7036 8.35594V20.644C21.7036 21.2291 21.2293 21.7034 20.6443 21.7034V21.7034Z" fill="url(#paint0_linear_23_19698)"/>
<path id="&#232;&#183;&#175;&#229;&#190;&#132; 42976" fill-rule="evenodd" clip-rule="evenodd" d="M8.35614 21.9152H20.6443C21.3451 21.9152 21.9154 21.3449 21.9154 20.644V8.3559C21.9154 7.65506 21.3451 7.08472 20.6443 7.08472H8.35614C7.6553 7.08472 7.08496 7.65506 7.08496 8.3559V20.644C7.08496 21.3449 7.6553 21.9152 8.35614 21.9152ZM7.50868 8.3559C7.50868 7.88852 7.88876 7.50844 8.35614 7.50844H20.6443C21.1116 7.50844 21.4917 7.88852 21.4917 8.3559V20.644C21.4917 21.1114 21.1116 21.4915 20.6443 21.4915H8.35614C7.88876 21.4915 7.50868 21.1114 7.50868 20.644V8.3559Z" fill="white"/>
<path id="&#232;&#183;&#175;&#229;&#190;&#132; 42977" d="M18.9515 20.011H9.20582C8.62076 20.011 8.14648 19.5367 8.14648 18.9517V9.20594C8.14648 8.62088 8.62076 8.14661 9.20582 8.14661H18.9515C19.5366 8.14661 20.0109 8.62088 20.0109 9.20594V18.9517C20.0109 19.5367 19.5366 20.011 18.9515 20.011V20.011Z" fill="url(#paint1_linear_23_19698)"/>
<path id="&#232;&#183;&#175;&#229;&#190;&#132; 42978" fill-rule="evenodd" clip-rule="evenodd" d="M9.62667 20.644H19.3724C20.0733 20.644 20.6436 20.0737 20.6436 19.3728V9.62709C20.6436 8.92624 20.0733 8.3559 19.3724 8.3559H9.62667C8.92581 8.3559 8.35547 8.92624 8.35547 9.62709V19.3728C8.35547 20.0737 8.92581 20.644 9.62667 20.644ZM8.77919 9.62709C8.77919 9.1597 9.15927 8.77962 9.62667 8.77962H19.3724C19.8398 8.77962 20.2199 9.1597 20.2199 9.62709V19.3728C20.2199 19.8402 19.8398 20.2203 19.3724 20.2203H9.62667C9.15927 20.2203 8.77919 19.8402 8.77919 19.3728V9.62709Z" fill="white"/>
<path id="&#232;&#183;&#175;&#229;&#190;&#132; 42981" fill-rule="evenodd" clip-rule="evenodd" d="M9.8386 4.11864C9.25473 4.11864 8.7793 3.64364 8.7793 3.05932C8.7793 2.475 9.25473 2 9.8386 2C10.4225 2 10.8979 2.475 10.8979 3.05932C10.8979 3.64364 10.4225 4.11864 9.8386 4.11864ZM13.4403 3.90677C13.4403 4.49109 13.9157 4.9661 14.4996 4.9661C15.0835 4.9661 15.5589 4.49109 15.5589 3.90677C15.5589 3.32245 15.0835 2.84745 14.4996 2.84745C13.9157 2.84745 13.4403 3.32245 13.4403 3.90677ZM13.864 3.90677C13.864 3.55635 14.1492 3.27118 14.4996 3.27118C14.85 3.27118 15.1352 3.55635 15.1352 3.90677C15.1352 4.2572 14.85 4.54237 14.4996 4.54237C14.1492 4.54237 13.864 4.2572 13.864 3.90677ZM9.20302 3.05932C9.20302 2.7089 9.48819 2.42373 9.8386 2.42373C10.189 2.42373 10.4742 2.7089 10.4742 3.05932C10.4742 3.40974 10.189 3.69491 9.8386 3.69491C9.48819 3.69491 9.20302 3.40974 9.20302 3.05932Z" fill="white"/>
<path id="&#232;&#183;&#175;&#229;&#190;&#132; 42982" fill-rule="evenodd" clip-rule="evenodd" d="M19.1608 4.11864C18.5769 4.11864 18.1015 3.64364 18.1015 3.05932C18.1015 2.475 18.5769 2 19.1608 2C19.7447 2 20.2201 2.475 20.2201 3.05932C20.2201 3.64364 19.7447 4.11864 19.1608 4.11864ZM11.9575 7.50846C11.9094 7.50843 11.8628 7.49215 11.8252 7.46227L9.70661 5.76736C9.65621 5.72713 9.62689 5.66616 9.62695 5.60168V3.90677C9.62695 3.78977 9.7218 3.69491 9.83878 3.69491C9.95583 3.69491 10.0507 3.78977 10.0507 3.90677V5.49999L12.0896 7.13134C12.1592 7.1878 12.1859 7.28186 12.1562 7.36641C12.1266 7.45096 12.047 7.5078 11.9575 7.50846ZM18.5252 3.05932C18.5252 2.7089 18.8104 2.42373 19.1608 2.42373C19.5112 2.42373 19.7964 2.7089 19.7964 3.05932C19.7964 3.40974 19.5112 3.69491 19.1608 3.69491C18.8104 3.69491 18.5252 3.40974 18.5252 3.05932Z" fill="white"/>
<path id="&#232;&#183;&#175;&#229;&#190;&#132; 42983" fill-rule="evenodd" clip-rule="evenodd" d="M16.8426 7.36651C16.8724 7.45132 16.9524 7.50817 17.0423 7.50843C17.0902 7.50851 17.1367 7.49221 17.1741 7.46225L19.2927 5.76734C19.3431 5.72711 19.3724 5.66613 19.3724 5.60167V3.90675C19.3724 3.78974 19.2775 3.69489 19.1606 3.69489C19.0435 3.69489 18.9487 3.78973 18.9487 3.90675V5.49954L16.9097 7.13089C16.8397 7.18732 16.8129 7.2817 16.8426 7.36651ZM14.2881 24.2457C14.2881 24.3627 14.3829 24.4576 14.4999 24.4576C14.617 24.4576 14.7118 24.3627 14.7118 24.2457V21.7033C14.7118 21.5863 14.617 21.4914 14.4999 21.4914C14.3829 21.4914 14.2881 21.5863 14.2881 21.7033V24.2457Z" fill="white"/>
<path id="&#232;&#183;&#175;&#229;&#190;&#132; 42984" fill-rule="evenodd" clip-rule="evenodd" d="M13.4404 25.0932C13.4404 25.6775 13.9159 26.1525 14.4998 26.1525C15.0836 26.1525 15.5591 25.6775 15.5591 25.0932C15.5591 24.5089 15.0836 24.0339 14.4998 24.0339C13.9159 24.0339 13.4404 24.5089 13.4404 25.0932ZM13.8642 25.0932C13.8642 24.7428 14.1493 24.4576 14.4998 24.4576C14.8502 24.4576 15.1354 24.7428 15.1354 25.0932C15.1354 25.4436 14.8502 25.7288 14.4998 25.7288C14.1493 25.7288 13.8642 25.4436 13.8642 25.0932ZM19.1608 27C18.5769 27 18.1014 26.5249 18.1014 25.9407C18.1014 25.3563 18.5769 24.8813 19.1608 24.8813C19.7447 24.8813 20.2201 25.3563 20.2201 25.9407C20.2201 26.5249 19.7447 27 19.1608 27ZM18.5252 25.9407C18.5252 25.5902 18.8103 25.305 19.1608 25.305C19.5112 25.305 19.7963 25.5902 19.7963 25.9407C19.7963 26.2911 19.5112 26.5762 19.1608 26.5762C18.8103 26.5762 18.5252 26.2911 18.5252 25.9407Z" fill="white"/>
<path id="&#232;&#183;&#175;&#229;&#190;&#132; 42985" fill-rule="evenodd" clip-rule="evenodd" d="M19.1606 25.3049C19.0436 25.3049 18.9488 25.2102 18.9488 25.0931V23.4999L16.9098 21.8685C16.8262 21.7932 16.8159 21.666 16.8861 21.5782C16.9564 21.4904 17.0829 21.4726 17.1746 21.5377L19.2932 23.2325C19.3433 23.2729 19.3725 23.3338 19.3725 23.3982V25.0931C19.3725 25.2102 19.2776 25.3049 19.1606 25.3049ZM9.8386 26.9998C9.25473 26.9998 8.7793 26.5249 8.7793 25.9406C8.7793 25.3562 9.25473 24.8812 9.8386 24.8812C10.4225 24.8812 10.8979 25.3562 10.8979 25.9406C10.8979 26.5249 10.4225 26.9998 9.8386 26.9998ZM9.20302 25.9406C9.20302 25.5901 9.48819 25.3049 9.8386 25.3049C10.189 25.3049 10.4742 25.5901 10.4742 25.9406C10.4742 26.2909 10.189 26.5762 9.8386 26.5762C9.48819 26.5762 9.20302 26.2909 9.20302 25.9406Z" fill="white"/>
<path id="&#232;&#183;&#175;&#229;&#190;&#132; 42986" fill-rule="evenodd" clip-rule="evenodd" d="M21.7032 14.7119H24.2455C24.3625 14.7119 24.4574 14.617 24.4574 14.5C24.4574 14.383 24.3625 14.2881 24.2455 14.2881H21.7032C21.5862 14.2881 21.4913 14.383 21.4913 14.5C21.4913 14.617 21.5862 14.7119 21.7032 14.7119ZM9.62695 25.0932C9.62695 25.2102 9.7218 25.3051 9.83878 25.3051C9.95583 25.3051 10.0507 25.2102 10.0507 25.0932V23.5L12.0901 21.8686C12.1736 21.7934 12.184 21.6661 12.1137 21.5783C12.0435 21.4905 11.917 21.4727 11.8252 21.5377L9.70661 23.2326C9.65621 23.2728 9.62689 23.3338 9.62695 23.3983V25.0932Z" fill="white"/>
<path id="&#232;&#183;&#175;&#229;&#190;&#132; 42987" fill-rule="evenodd" clip-rule="evenodd" d="M25.941 10.8983C25.3571 10.8983 24.8816 10.4233 24.8816 9.83897C24.8816 9.25465 25.3571 8.77966 25.941 8.77966C26.5249 8.77966 27.0003 9.25465 27.0003 9.83897C27.0003 10.4233 26.5249 10.8983 25.941 10.8983ZM24.0342 14.5C24.0342 15.0843 24.5096 15.5593 25.0935 15.5593C25.6774 15.5593 26.1528 15.0843 26.1528 14.5C26.1528 13.9157 25.6774 13.4407 25.0935 13.4407C24.5096 13.4407 24.0342 13.9157 24.0342 14.5ZM24.4579 14.5C24.4579 14.1496 24.7431 13.8644 25.0935 13.8644C25.4439 13.8644 25.7291 14.1496 25.7291 14.5C25.7291 14.8504 25.4439 15.1356 25.0935 15.1356C24.7431 15.1356 24.4579 14.8504 24.4579 14.5ZM25.3053 9.83897C25.3053 9.48856 25.5905 9.20339 25.941 9.20339C26.2914 9.20339 26.5765 9.48856 26.5765 9.83897C26.5765 10.1894 26.2914 10.4746 25.941 10.4746C25.5905 10.4746 25.3053 10.1894 25.3053 9.83897Z" fill="white"/>
<path id="&#232;&#183;&#175;&#229;&#190;&#132; 42988" fill-rule="evenodd" clip-rule="evenodd" d="M21.7033 12.1695C21.6221 12.169 21.5483 12.1223 21.5131 12.0491C21.478 11.9759 21.4876 11.8891 21.5381 11.8254L23.233 9.70679C23.273 9.65643 23.3339 9.62711 23.3982 9.62714H25.0931C25.2101 9.62714 25.305 9.72198 25.305 9.83897C25.305 9.95601 25.2101 10.0509 25.0931 10.0509H23.4999L21.8686 12.0898C21.8286 12.1403 21.7677 12.1697 21.7033 12.1695V12.1695ZM25.9406 20.2203C25.3567 20.2203 24.8812 19.7453 24.8812 19.161C24.8812 18.5767 25.3567 18.1016 25.9406 18.1016C26.5245 18.1016 26.9999 18.5767 26.9999 19.161C26.9999 19.7453 26.5245 20.2203 25.9406 20.2203ZM25.305 19.161C25.305 18.8106 25.5901 18.5254 25.9406 18.5254C26.291 18.5254 26.5761 18.8106 26.5761 19.161C26.5761 19.5114 26.291 19.7966 25.9406 19.7966C25.5901 19.7966 25.305 19.5114 25.305 19.161Z" fill="white"/>
<path id="&#232;&#183;&#175;&#229;&#190;&#132; 42989" fill-rule="evenodd" clip-rule="evenodd" d="M4.75385 14.7119H7.29622C7.41323 14.7119 7.50808 14.617 7.50808 14.5C7.50808 14.383 7.41323 14.2881 7.29622 14.2881H4.75385C4.63684 14.2881 4.54199 14.383 4.54199 14.5C4.54199 14.617 4.63684 14.7119 4.75385 14.7119ZM23.3979 19.3729H25.0928C25.2099 19.3729 25.3049 19.2779 25.3049 19.1608C25.3049 19.0437 25.2099 18.9487 25.0928 18.9487H23.4996L21.8682 16.9098C21.793 16.8262 21.6656 16.8159 21.5779 16.8861C21.4901 16.9563 21.4723 17.0828 21.5373 17.1746L23.2322 19.2932C23.2725 19.3435 23.3334 19.3728 23.3979 19.3729Z" fill="white"/>
<path id="&#232;&#183;&#175;&#229;&#190;&#132; 42990" fill-rule="evenodd" clip-rule="evenodd" d="M2.84745 14.5C2.84745 15.0843 3.32288 15.5593 3.90677 15.5593C4.49067 15.5593 4.9661 15.0843 4.9661 14.5C4.9661 13.9156 4.49067 13.4406 3.90677 13.4406C3.32288 13.4406 2.84745 13.9156 2.84745 14.5ZM3.27118 14.5C3.27118 14.1495 3.55635 13.8643 3.90677 13.8643C4.2572 13.8643 4.54237 14.1495 4.54237 14.5C4.54237 14.8504 4.2572 15.1355 3.90677 15.1355C3.55635 15.1355 3.27118 14.8504 3.27118 14.5ZM3.05932 20.2203C2.47542 20.2203 2 19.7452 2 19.161C2 18.5766 2.47542 18.1016 3.05932 18.1016C3.64321 18.1016 4.11864 18.5766 4.11864 19.161C4.11864 19.7452 3.64321 20.2203 3.05932 20.2203ZM2.42373 19.161C2.42373 18.8105 2.7089 18.5253 3.05932 18.5253C3.40974 18.5253 3.69491 18.8105 3.69491 19.161C3.69491 19.5114 3.40974 19.7965 3.05932 19.7965C2.7089 19.7965 2.42373 19.5114 2.42373 19.161Z" fill="white"/>
<path id="&#232;&#183;&#175;&#229;&#190;&#132; 42991" d="M5.60209 19.3728H3.90717C3.79016 19.3728 3.69531 19.278 3.69531 19.161C3.69531 19.044 3.79017 18.9491 3.90717 18.9491H5.50039L7.13175 16.9101C7.207 16.8266 7.33433 16.8162 7.42211 16.8865C7.50989 16.9567 7.52768 17.0832 7.46267 17.175L5.76777 19.2936C5.7273 19.3436 5.66643 19.3728 5.60209 19.3728V19.3728Z" fill="white"/>
<path id="&#232;&#183;&#175;&#229;&#190;&#132; 42992" fill-rule="evenodd" clip-rule="evenodd" d="M2 9.83897C2 10.4233 2.47542 10.8983 3.05932 10.8983C3.64321 10.8983 4.11864 10.4233 4.11864 9.83897C4.11864 9.25465 3.64321 8.77966 3.05932 8.77966C2.47542 8.77966 2 9.25465 2 9.83897ZM2.42373 9.83897C2.42373 9.48856 2.7089 9.20339 3.05932 9.20339C3.40974 9.20339 3.69491 9.48856 3.69491 9.83897C3.69491 10.1894 3.40974 10.4746 3.05932 10.4746C2.7089 10.4746 2.42373 10.1894 2.42373 9.83897Z" fill="white"/>
<path id="&#232;&#183;&#175;&#229;&#190;&#132; 42993" d="M7.297 12.1695C7.23251 12.1697 7.17147 12.1403 7.13132 12.0898L5.50039 10.0509H3.90717C3.79016 10.0509 3.69531 9.95601 3.69531 9.83897C3.69531 9.72198 3.79017 9.62714 3.90717 9.62714H5.60209C5.66649 9.62714 5.72709 9.65637 5.76777 9.70679L7.46267 11.8254C7.51313 11.8891 7.52277 11.9761 7.48751 12.0493C7.45225 12.1225 7.37827 12.1692 7.297 12.1695V12.1695Z" fill="white"/>
</g>
<g id="&#231;&#187;&#132; 15890" clip-path="url(#clip1_23_19698)">
<path id="&#232;&#183;&#175;&#229;&#190;&#132; 43124" d="M15.5069 13.4928H13.4932V15.5066H15.5069V13.4928V13.4928Z" fill="white"/>
<path id="&#232;&#183;&#175;&#229;&#190;&#132; 43125" d="M13.9539 11V12.2052H12.2052V13.9538H11V11.8686L11.8686 11H13.9539V11Z" fill="white"/>
<path id="&#232;&#183;&#175;&#229;&#190;&#132; 43126" d="M17.9997 11.8686V13.9538H16.7953V12.2052H15.0459V11H17.1318L17.9997 11.8686V11.8686Z" fill="white"/>
<path id="&#232;&#183;&#175;&#229;&#190;&#132; 43127" d="M17.9997 15.0461V17.1314L17.1318 18H15.0459V16.7949H16.7953V15.0461H17.9997V15.0461Z" fill="white"/>
<path id="&#232;&#183;&#175;&#229;&#190;&#132; 43128" d="M13.9539 16.7949V18H11.8686L11 17.1314V15.0461H12.2052V16.7949H13.9539V16.7949Z" fill="white"/>
</g>
</g>
<defs>
<linearGradient id="paint0_linear_23_19698" x1="7.29688" y1="7.29663" x2="7.29688" y2="21.7034" gradientUnits="userSpaceOnUse">
<stop stop-color="#9160FF"/>
<stop offset="1" stop-color="#5E75FF"/>
</linearGradient>
<linearGradient id="paint1_linear_23_19698" x1="8.14648" y1="8.14661" x2="8.14648" y2="20.011" gradientUnits="userSpaceOnUse">
<stop stop-color="#9160FF"/>
<stop offset="1" stop-color="#5E75FF"/>
</linearGradient>
<clipPath id="clip0_23_19698">
<rect width="25" height="25" fill="white" transform="translate(2 2)"/>
</clipPath>
<clipPath id="clip1_23_19698">
<rect width="7" height="7" fill="white" transform="translate(11 11)"/>
</clipPath>
</defs>
</svg>
