<svg width="29" height="29" viewBox="0 0 29 29" fill="none" xmlns="http://www.w3.org/2000/svg">
<g id="Frame">
<g id="&#231;&#187;&#132; 15900" clip-path="url(#clip0_23_19575)">
<g id="&#231;&#187;&#132; 15834" clip-path="url(#clip1_23_19575)">
<g id="&#232;&#183;&#175;&#229;&#190;&#132; 42995">
<path d="M9.42383 14.5898V25.8238C9.42383 26.0377 9.59726 26.2112 9.81119 26.2112H20.2704C20.4843 26.2112 20.6578 26.0377 20.6578 25.8238V14.5898" fill="url(#paint0_linear_23_19575)"/>
<path d="M9.42383 14.5898V25.8238C9.42383 26.0377 9.59726 26.2112 9.81119 26.2112H20.2704C20.4843 26.2112 20.6578 26.0377 20.6578 25.8238V14.5898" fill="url(#paint1_linear_23_19575)"/>
</g>
<path id="&#232;&#183;&#175;&#229;&#190;&#132; 42996" d="M20.2697 26.4047H9.81058C9.4902 26.4047 9.22949 26.144 9.22949 25.8236V14.5897C9.22949 14.4827 9.31622 14.396 9.42319 14.396C9.53015 14.396 9.61688 14.4827 9.61688 14.5897V25.8236C9.61688 25.9306 9.70358 26.0173 9.81058 26.0173H20.2697C20.3763 26.0173 20.4634 25.9302 20.4634 25.8236V14.5897C20.4634 14.4827 20.5502 14.396 20.6571 14.396C20.7641 14.396 20.8508 14.4827 20.8508 14.5897V25.8236C20.8508 26.144 20.5901 26.4047 20.2697 26.4047V26.4047Z" fill="white"/>
<g id="&#232;&#183;&#175;&#229;&#190;&#132; 42997">
<path d="M11.166 14.5898V24.468H18.9136V14.5898" fill="url(#paint2_linear_23_19575)"/>
<path d="M11.166 14.5898V24.468H18.9136V14.5898" fill="url(#paint3_linear_23_19575)"/>
</g>
<path id="&#232;&#183;&#175;&#229;&#190;&#132; 42998" d="M18.9139 24.6615H11.1663C11.0594 24.6615 10.9727 24.5748 10.9727 24.4678V14.5897C10.9727 14.4827 11.0594 14.396 11.1663 14.396C11.2733 14.396 11.36 14.4827 11.36 14.5897V24.2741H18.7202V14.5897C18.7202 14.4827 18.8069 14.396 18.9139 14.396C19.0208 14.396 19.1076 14.4827 19.1076 14.5897V24.4678C19.1076 24.5748 19.0208 24.6615 18.9139 24.6615V24.6615Z" fill="white"/>
<path id="&#232;&#183;&#175;&#229;&#190;&#132; 42999" d="M13.144 14.5898C12.6218 15.0989 12.3276 15.7975 12.3281 16.5267C12.3281 18.0243 13.5422 19.2383 15.0398 19.2383C16.5374 19.2383 17.7514 18.0243 17.7514 16.5267C17.7514 15.7675 17.4384 15.0822 16.9356 14.5898" fill="white"/>
<path id="&#232;&#183;&#175;&#229;&#190;&#132; 43000" fill-rule="evenodd" clip-rule="evenodd" d="M15.0404 19.4319C13.4383 19.4319 12.1351 18.1287 12.1351 16.5265C12.133 15.7449 12.4484 14.996 13.009 14.4514C13.0855 14.3766 13.2082 14.3779 13.2829 14.4545C13.3577 14.5309 13.3563 14.6536 13.2798 14.7283C12.7939 15.2002 12.5206 15.8492 12.5225 16.5265C12.5225 17.9149 13.6521 19.0445 15.0404 19.0445C16.4288 19.0445 17.5584 17.9149 17.5584 16.5265C17.5602 15.8491 17.2869 15.2 16.8011 14.7279C16.7246 14.6532 16.7232 14.5305 16.798 14.454C16.8727 14.3776 16.9954 14.3762 17.0719 14.4509C17.6325 14.9957 17.9479 15.7448 17.9458 16.5265C17.9458 18.1287 16.6426 19.4319 15.0404 19.4319ZM19.689 25.4362H17.3647C17.2578 25.4362 17.171 25.3495 17.171 25.2426C17.171 23.8542 18.3006 22.7245 19.689 22.7245C19.796 22.7245 19.8827 22.8113 19.8827 22.9183V25.2426C19.8827 25.3495 19.796 25.4362 19.689 25.4362ZM19.4953 25.0488H17.5669C17.6617 24.0257 18.4721 23.2153 19.4953 23.1205V25.0488ZM12.7162 25.4362H10.3919C10.2849 25.4362 10.1982 25.3495 10.1982 25.2426V22.9183C10.1982 22.8113 10.2849 22.7245 10.3919 22.7245C11.7803 22.7245 12.9099 23.8542 12.9099 25.2426C12.9099 25.3495 12.8232 25.4362 12.7162 25.4362ZM12.514 25.0488H10.5856V23.1205C11.6088 23.2153 12.4192 24.0257 12.514 25.0488Z" fill="white"/>
<path id="&#232;&#183;&#175;&#229;&#190;&#132; 43001" d="M24.9184 17.8825H21.432C21.325 17.8825 21.2383 17.7958 21.2383 17.6888C21.2383 17.5818 21.325 17.4951 21.432 17.4951H24.9184C25.3457 17.4951 25.6931 17.1476 25.6931 16.7203V9.36017C25.6931 8.9329 25.3457 8.58542 24.9184 8.58542H21.2387C21.1317 8.58542 21.045 8.4987 21.045 8.39173C21.045 5.08081 18.3516 2.38738 15.0406 2.38738C11.7297 2.38738 9.03629 5.08081 9.03629 8.39173C9.03629 8.4987 8.94958 8.58542 8.84261 8.58542H5.16213C4.73486 8.58542 4.38737 8.9329 4.38737 9.36017V16.7203C4.38737 17.1476 4.73486 17.4951 5.16213 17.4951H8.64853C8.7555 17.4951 8.84222 17.5818 8.84222 17.6888C8.84222 17.7958 8.7555 17.8825 8.64853 17.8825H5.16213C4.52141 17.8825 4 17.3611 4 16.7203V9.36017C4 8.71945 4.52141 8.19804 5.16213 8.19804H8.65163C8.75428 4.76278 11.581 2 15.0406 2C18.5003 2 21.327 4.76278 21.4293 8.19804H24.9184C25.5591 8.19804 26.0805 8.71945 26.0805 9.36017V16.7203C26.0805 17.3611 25.5591 17.8825 24.9184 17.8825V17.8825Z" fill="white"/>
<path id="&#232;&#183;&#175;&#229;&#190;&#132; 43002" d="M23.5625 17.8823H21.4319C21.325 17.8823 21.2383 17.7955 21.2383 17.6886C21.2383 17.5816 21.325 17.4949 21.4319 17.4949H23.3688V14.2021C23.3688 14.0956 23.2817 14.0085 23.1751 14.0085H6.90529C6.79831 14.0085 6.71159 14.0952 6.71159 14.2021V17.4949H8.64848C8.75546 17.4949 8.84218 17.5816 8.84218 17.6886C8.84218 17.7955 8.75546 17.8823 8.64848 17.8823H6.51791C6.41093 17.8823 6.32422 17.7955 6.32422 17.6886V14.2021C6.32422 13.8818 6.58493 13.6211 6.90529 13.6211H23.1751C23.4955 13.6211 23.7562 13.8818 23.7562 14.2021V17.6886C23.7562 17.7955 23.6695 17.8823 23.5625 17.8823V17.8823Z" fill="white"/>
<g id="&#232;&#183;&#175;&#229;&#190;&#132; 43003">
<path d="M11.166 8.39184C11.166 10.5313 12.9004 12.2656 15.0398 12.2656C17.1792 12.2656 18.9136 10.5313 18.9136 8.39184C18.9136 6.25241 17.1792 4.51807 15.0398 4.51807C12.9004 4.51807 11.166 6.25241 11.166 8.39184V8.39184Z" fill="url(#paint4_linear_23_19575)"/>
<path d="M11.166 8.39184C11.166 10.5313 12.9004 12.2656 15.0398 12.2656C17.1792 12.2656 18.9136 10.5313 18.9136 8.39184C18.9136 6.25241 17.1792 4.51807 15.0398 4.51807C12.9004 4.51807 11.166 6.25241 11.166 8.39184V8.39184Z" fill="url(#paint5_linear_23_19575)"/>
</g>
<path id="&#232;&#183;&#175;&#229;&#190;&#132; 43004" fill-rule="evenodd" clip-rule="evenodd" d="M10.9727 8.39168C10.9727 10.6346 12.7972 12.4591 15.0401 12.4591C17.283 12.4591 19.1076 10.6346 19.1076 8.39168C19.1076 6.14877 17.2826 4.32422 15.0401 4.32422C12.7976 4.32422 10.9727 6.14877 10.9727 8.39168ZM11.36 8.39168C11.36 6.36259 13.011 4.71159 15.0401 4.71159C17.0692 4.71159 18.7202 6.3626 18.7202 8.39168C18.7202 10.4208 17.0692 12.0718 15.0401 12.0718C13.011 12.0718 11.36 10.4208 11.36 8.39168Z" fill="white"/>
<path id="&#232;&#183;&#175;&#229;&#190;&#132; 43008" fill-rule="evenodd" clip-rule="evenodd" d="M13.4904 16.706H14.0714C14.1784 16.706 14.2651 16.6193 14.2651 16.5123C14.2651 16.4053 14.1784 16.3186 14.0714 16.3186H13.4904C13.3834 16.3186 13.2967 16.4053 13.2967 16.5123C13.2967 16.6193 13.3834 16.706 13.4904 16.706ZM16.0083 16.706H16.5894C16.6963 16.706 16.7831 16.6193 16.7831 16.5123C16.7831 16.4053 16.6963 16.3186 16.5894 16.3186H16.0083C15.9013 16.3186 15.8146 16.4053 15.8146 16.5123C15.8146 16.6193 15.9013 16.706 16.0083 16.706ZM7.87337 20.2067C7.7664 20.2067 7.67969 20.12 7.67969 20.013V19.6257C7.67969 19.5187 7.7664 19.4319 7.87337 19.4319C7.98035 19.4319 8.06706 19.5187 8.06706 19.6257V20.013C8.06706 20.12 7.98035 20.2067 7.87337 20.2067ZM7.67969 24.6616C7.67969 24.7686 7.7664 24.8552 7.87337 24.8552C7.98035 24.8552 8.06706 24.7686 8.06706 24.6616V20.7878C8.06706 20.6808 7.98035 20.5941 7.87337 20.5941C7.7664 20.5941 7.67969 20.6808 7.67969 20.7878V24.6616ZM22.2063 24.8552C22.0994 24.8552 22.0126 24.7686 22.0126 24.6616V24.2742C22.0126 24.1672 22.0994 24.0805 22.2063 24.0805C22.3133 24.0805 22.4 24.1672 22.4 24.2742V24.6616C22.4 24.7686 22.3133 24.8552 22.2063 24.8552ZM22.0126 23.4994C22.0126 23.6064 22.0994 23.6931 22.2063 23.6931C22.3133 23.6931 22.4 23.6064 22.4 23.4994V19.6257C22.4 19.5187 22.3133 19.4319 22.2063 19.4319C22.0994 19.4319 22.0126 19.5187 22.0126 19.6257V23.4994Z" fill="#373649"/>
<path id="&#232;&#183;&#175;&#229;&#190;&#132; 43009" d="M8.06741 4.13054H6.51791C6.41093 4.13054 6.32422 4.04382 6.32422 3.93685C6.32422 3.82988 6.41093 3.74316 6.51791 3.74316H8.06741C8.17439 3.74316 8.26111 3.82988 8.26111 3.93685C8.26111 4.04382 8.17439 4.13054 8.06741 4.13054V4.13054Z" fill="white"/>
<path id="&#232;&#183;&#175;&#229;&#190;&#132; 43010" d="M7.2933 4.90515C7.18633 4.90515 7.09961 4.81843 7.09961 4.71146V3.16195C7.09961 3.05498 7.18633 2.96826 7.2933 2.96826C7.40027 2.96826 7.48698 3.05498 7.48698 3.16195V4.71146C7.48698 4.81843 7.40027 4.90515 7.2933 4.90515V4.90515Z" fill="white"/>
<path id="&#232;&#183;&#175;&#229;&#190;&#132; 43011" d="M6.1309 6.45476H4.58138C4.47441 6.45476 4.3877 6.36804 4.3877 6.26108C4.3877 6.1541 4.47441 6.06738 4.58138 6.06738H6.1309C6.23787 6.06738 6.32458 6.1541 6.32458 6.26108C6.32458 6.36804 6.23787 6.45476 6.1309 6.45476V6.45476Z" fill="white"/>
<path id="&#232;&#183;&#175;&#229;&#190;&#132; 43012" d="M5.3558 7.22937C5.24883 7.22937 5.16211 7.14265 5.16211 7.03568V5.48618C5.16211 5.3792 5.24883 5.29248 5.3558 5.29248C5.46277 5.29248 5.54948 5.3792 5.54948 5.48618V7.03568C5.54948 7.14265 5.46277 7.22937 5.3558 7.22937V7.22937Z" fill="white"/>
</g>
<g id="&#231;&#187;&#132; 15892" clip-path="url(#clip2_23_19575)">
<path id="&#232;&#183;&#175;&#229;&#190;&#132; 43124" d="M15.532 8.01807H14.5479V9.0022H15.532V8.01807V8.01807Z" fill="white"/>
<path id="&#232;&#183;&#175;&#229;&#190;&#132; 43125" d="M14.7736 6.7998V7.38876H13.919V8.24335H13.3301V7.22427L13.7545 6.7998H14.7736V6.7998Z" fill="white"/>
<path id="&#232;&#183;&#175;&#229;&#190;&#132; 43126" d="M16.7511 7.22427V8.24335H16.1625V7.38876H15.3076V6.7998H16.327L16.7511 7.22427V7.22427Z" fill="white"/>
<path id="&#232;&#183;&#175;&#229;&#190;&#132; 43127" d="M16.7511 8.77716V9.7962L16.327 10.2206H15.3076V9.63171H16.1625V8.77716H16.7511V8.77716Z" fill="white"/>
<path id="&#232;&#183;&#175;&#229;&#190;&#132; 43128" d="M14.7736 9.63171V10.2206H13.7545L13.3301 9.7962V8.77716H13.919V9.63171H14.7736V9.63171Z" fill="white"/>
</g>
</g>
</g>
<defs>
<linearGradient id="paint0_linear_23_19575" x1="9.42383" y1="14.5898" x2="9.42383" y2="26.2112" gradientUnits="userSpaceOnUse">
<stop stop-color="#9160FF"/>
<stop offset="1" stop-color="#5E75FF"/>
</linearGradient>
<linearGradient id="paint1_linear_23_19575" x1="15.0408" y1="14.5898" x2="15.0408" y2="26.2112" gradientUnits="userSpaceOnUse">
<stop stop-color="#6A6F87"/>
<stop offset="1" stop-color="#9CA0B6"/>
</linearGradient>
<linearGradient id="paint2_linear_23_19575" x1="11.166" y1="14.5898" x2="11.166" y2="24.468" gradientUnits="userSpaceOnUse">
<stop stop-color="#9160FF"/>
<stop offset="1" stop-color="#5E75FF"/>
</linearGradient>
<linearGradient id="paint3_linear_23_19575" x1="15.0398" y1="14.5898" x2="15.0398" y2="24.468" gradientUnits="userSpaceOnUse">
<stop stop-color="#6A6F87"/>
<stop offset="1" stop-color="#9CA0B6"/>
</linearGradient>
<linearGradient id="paint4_linear_23_19575" x1="11.166" y1="4.51807" x2="11.166" y2="12.2656" gradientUnits="userSpaceOnUse">
<stop stop-color="#9160FF"/>
<stop offset="1" stop-color="#5E75FF"/>
</linearGradient>
<linearGradient id="paint5_linear_23_19575" x1="15.0398" y1="4.51807" x2="15.0398" y2="12.2656" gradientUnits="userSpaceOnUse">
<stop stop-color="#6A6F87"/>
<stop offset="1" stop-color="#9CA0B6"/>
</linearGradient>
<clipPath id="clip0_23_19575">
<rect width="22.0805" height="24.4047" fill="white" transform="translate(4 2)"/>
</clipPath>
<clipPath id="clip1_23_19575">
<rect width="22.0805" height="24.4047" fill="white" transform="translate(4 2)"/>
</clipPath>
<clipPath id="clip2_23_19575">
<rect width="3.42084" height="3.42084" fill="white" transform="translate(13.3301 6.7998)"/>
</clipPath>
</defs>
</svg>
