<svg width="29" height="29" viewBox="0 0 29 29" fill="none" xmlns="http://www.w3.org/2000/svg">
<g id="Frame">
<g id="&#231;&#187;&#132; 15901" clip-path="url(#clip0_23_19617)">
<g id="&#231;&#187;&#132; 15835" clip-path="url(#clip1_23_19617)">
<g id="&#232;&#183;&#175;&#229;&#190;&#132; 43016">
<path d="M9 8.93625C9 11.1102 10.7623 12.8725 12.9362 12.8725C15.1102 12.8725 16.8725 11.1102 16.8725 8.93625C16.8725 6.76231 15.1102 5 12.9362 5C10.7623 5 9 6.76233 9 8.93625V8.93625Z" fill="url(#paint0_linear_23_19617)"/>
<path d="M9 8.93625C9 11.1102 10.7623 12.8725 12.9362 12.8725C15.1102 12.8725 16.8725 11.1102 16.8725 8.93625C16.8725 6.76231 15.1102 5 12.9362 5C10.7623 5 9 6.76233 9 8.93625V8.93625Z" fill="url(#paint1_linear_23_19617)"/>
</g>
<path id="&#232;&#183;&#175;&#229;&#190;&#132; 43017" fill-rule="evenodd" clip-rule="evenodd" d="M12.7268 13.0215C10.4477 13.0215 8.59375 11.1675 8.59375 8.88844C8.59375 6.60934 10.4477 4.75537 12.7268 4.75537C15.0059 4.75537 16.8599 6.60934 16.8599 8.88844C16.8599 11.1675 15.0059 13.0215 12.7268 13.0215ZM12.7268 5.149C10.665 5.149 8.98737 6.82663 8.98737 8.88844C8.98737 10.9503 10.665 12.6279 12.7268 12.6279C14.7886 12.6279 16.4663 10.9503 16.4663 8.88844C16.4663 6.82663 14.7886 5.149 12.7268 5.149ZM23.0595 15.7769C23.0595 15.8856 23.1476 15.9737 23.2563 15.9737C23.365 15.9737 23.4531 15.8856 23.4531 15.7769V12.8247C23.4531 11.6308 22.4817 10.6598 21.2882 10.6598H17.2134C17.1047 10.6598 17.0165 10.7479 17.0165 10.8566C17.0165 10.9653 17.1047 11.0534 17.2134 11.0534H21.2882C22.2648 11.0534 23.0595 11.8481 23.0595 12.8247V15.7769Z" fill="white"/>
<path id="&#232;&#183;&#175;&#229;&#190;&#132; 43018" d="M21.2877 26.4047H4.16494C2.96981 26.4034 2.0013 25.4349 2 24.2397V12.8246C2 11.6308 2.97107 10.6597 4.16494 10.6597H8.23975C8.34845 10.6597 8.43657 10.7478 8.43657 10.8565C8.43657 10.9652 8.34845 11.0533 8.23975 11.0533H4.16494C3.18712 11.0544 2.39471 11.8468 2.39363 12.8246V24.2397C2.39363 25.2163 3.18835 26.0111 4.16494 26.0111H21.2877C22.2642 26.0111 23.059 25.2163 23.059 24.2397V21.2876C23.059 21.1789 23.1471 21.0908 23.2558 21.0908C23.3645 21.0908 23.4526 21.1789 23.4526 21.2876V24.2397C23.4526 25.4336 22.4811 26.4047 21.2877 26.4047V26.4047Z" fill="white"/>
<g id="&#232;&#183;&#175;&#229;&#190;&#132; 43019">
<path d="M24.8303 20.5002H19.1227C18.5793 20.5002 18.1387 20.0596 18.1387 19.5162V17.548C18.1387 17.0046 18.5793 16.564 19.1227 16.564H24.8303C25.3738 16.564 25.8144 17.0046 25.8144 17.548V19.5162C25.8144 20.0596 25.3738 20.5002 24.8303 20.5002V20.5002Z" fill="url(#paint2_linear_23_19617)"/>
<path d="M24.8303 20.5002H19.1227C18.5793 20.5002 18.1387 20.0596 18.1387 19.5162V17.548C18.1387 17.0046 18.5793 16.564 19.1227 16.564H24.8303C25.3738 16.564 25.8144 17.0046 25.8144 17.548V19.5162C25.8144 20.0596 25.3738 20.5002 24.8303 20.5002V20.5002Z" fill="url(#paint3_linear_23_19617)"/>
</g>
<path id="&#232;&#183;&#175;&#229;&#190;&#132; 43020" fill-rule="evenodd" clip-rule="evenodd" d="M19.1225 20.6971H24.8301C25.4811 20.6971 26.0109 20.1672 26.0109 19.5162V17.548C26.0109 16.897 25.4811 16.3672 24.8301 16.3672H19.1225C18.4714 16.3672 17.9416 16.897 17.9416 17.548V19.5162C17.9416 20.1672 18.4714 20.6971 19.1225 20.6971ZM18.3353 17.548C18.3353 17.1139 18.6883 16.7608 19.1225 16.7608H24.8301C25.2642 16.7608 25.6173 17.1139 25.6173 17.548V19.5162C25.6173 19.9504 25.2642 20.3035 24.8301 20.3035H19.1225C18.6883 20.3035 18.3353 19.9504 18.3353 19.5162V17.548ZM4.36154 24.4365H3.37747C3.26878 24.4365 3.18066 24.3484 3.18066 24.2397C3.18066 24.131 3.26878 24.0428 3.37747 24.0428H4.36154C4.47024 24.0428 4.55835 24.131 4.55835 24.2397C4.55835 24.3484 4.47024 24.4365 4.36154 24.4365ZM5.3456 24.4365H6.32967C6.43836 24.4365 6.52648 24.3484 6.52648 24.2397C6.52648 24.131 6.43836 24.0428 6.32967 24.0428H5.3456C5.23691 24.0428 5.14879 24.131 5.14879 24.2397C5.14879 24.3484 5.23691 24.4365 5.3456 24.4365ZM8.29779 24.4365H7.31373C7.20503 24.4365 7.11692 24.3484 7.11692 24.2397C7.11692 24.131 7.20503 24.0428 7.31373 24.0428H8.29779C8.40649 24.0428 8.49461 24.131 8.49461 24.2397C8.49461 24.3484 8.40649 24.4365 8.29779 24.4365ZM9.28186 24.4365H10.2659C10.3746 24.4365 10.4627 24.3484 10.4627 24.2397C10.4627 24.131 10.3746 24.0428 10.2659 24.0428H9.28186C9.17316 24.0428 9.08504 24.131 9.08504 24.2397C9.08504 24.3484 9.17316 24.4365 9.28186 24.4365ZM12.234 24.4365H11.25C11.1413 24.4365 11.0532 24.3484 11.0532 24.2397C11.0532 24.131 11.1413 24.0428 11.25 24.0428H12.234C12.3427 24.0428 12.4309 24.131 12.4309 24.2397C12.4309 24.3484 12.3427 24.4365 12.234 24.4365ZM13.2181 24.4365H14.2022C14.3109 24.4365 14.399 24.3484 14.399 24.2397C14.399 24.131 14.3109 24.0428 14.2022 24.0428H13.2181C13.1094 24.0428 13.0213 24.131 13.0213 24.2397C13.0213 24.3484 13.1094 24.4365 13.2181 24.4365ZM16.1703 24.4365H15.1862C15.0775 24.4365 14.9894 24.3484 14.9894 24.2397C14.9894 24.131 15.0775 24.0428 15.1862 24.0428H16.1703C16.279 24.0428 16.3671 24.131 16.3671 24.2397C16.3671 24.3484 16.279 24.4365 16.1703 24.4365ZM17.1544 24.4365H18.1384C18.2471 24.4365 18.3353 24.3484 18.3353 24.2397C18.3353 24.131 18.2471 24.0428 18.1384 24.0428H17.1544C17.0457 24.0428 16.9576 24.131 16.9576 24.2397C16.9576 24.3484 17.0457 24.4365 17.1544 24.4365ZM20.1066 24.4365H19.1225C19.0138 24.4365 18.9257 24.3484 18.9257 24.2397C18.9257 24.131 19.0138 24.0428 19.1225 24.0428H20.1066C20.2153 24.0428 20.3034 24.131 20.3034 24.2397C20.3034 24.3484 20.2153 24.4365 20.1066 24.4365ZM21.0906 24.4365H22.0747C22.1834 24.4365 22.2715 24.3484 22.2715 24.2397C22.2715 24.131 22.1834 24.0428 22.0747 24.0428H21.0906C20.9819 24.0428 20.8938 24.131 20.8938 24.2397C20.8938 24.3484 20.9819 24.4365 21.0906 24.4365Z" fill="white"/>
<path id="&#232;&#183;&#175;&#229;&#190;&#132; 43021" d="M19.123 18.5324C19.123 19.0759 19.5636 19.5165 20.1071 19.5165C20.6506 19.5165 21.0912 19.0759 21.0912 18.5324C21.0912 17.9889 20.6506 17.5483 20.1071 17.5483C19.5636 17.5483 19.123 17.9889 19.123 18.5324V18.5324Z" fill="white"/>
<path id="&#232;&#183;&#175;&#229;&#190;&#132; 43022" fill-rule="evenodd" clip-rule="evenodd" d="M20.5003 6.52669C20.5003 6.63539 20.5884 6.7235 20.6971 6.7235C20.8058 6.7235 20.8939 6.63539 20.8939 6.52669V4.95218C20.8939 4.84349 20.8058 4.75537 20.6971 4.75537C20.5884 4.75537 20.5003 4.84349 20.5003 4.95218V6.52669ZM20.1067 19.7132C19.4556 19.7132 18.9258 19.1833 18.9258 18.5323C18.9258 17.8812 19.4556 17.3514 20.1067 17.3514C20.7578 17.3514 21.2875 17.8812 21.2875 18.5323C21.2875 19.1833 20.7578 19.7132 20.1067 19.7132ZM20.1067 17.745C19.6725 17.745 19.3195 18.0981 19.3195 18.5323C19.3195 18.9664 19.6725 19.3195 20.1067 19.3195C20.5408 19.3195 20.8939 18.9664 20.8939 18.5323C20.8939 18.0981 20.5408 17.745 20.1067 17.745Z" fill="white"/>
<path id="&#232;&#183;&#175;&#229;&#190;&#132; 43023" fill-rule="evenodd" clip-rule="evenodd" d="M17.7451 3.77131C17.7451 3.88001 17.8332 3.96813 17.9419 3.96813C18.0506 3.96813 18.1387 3.88001 18.1387 3.77131V2.19681C18.1387 2.08812 18.0506 2 17.9419 2C17.8332 2 17.7451 2.08812 17.7451 2.19681V3.77131ZM19.91 5.93626H21.4845C21.5932 5.93626 21.6813 5.84814 21.6813 5.73944C21.6813 5.63075 21.5932 5.54263 21.4845 5.54263H19.91C19.8013 5.54263 19.7132 5.63075 19.7132 5.73944C19.7132 5.84814 19.8013 5.93626 19.91 5.93626Z" fill="white"/>
<path id="&#232;&#183;&#175;&#229;&#190;&#132; 43024" d="M18.7293 3.18073H17.1548C17.0461 3.18073 16.958 3.09262 16.958 2.98392C16.958 2.87523 17.0461 2.78711 17.1548 2.78711H18.7293C18.838 2.78711 18.9261 2.87523 18.9261 2.98392C18.9261 3.09262 18.838 3.18073 18.7293 3.18073V3.18073Z" fill="white"/>
<path id="&#232;&#183;&#175;&#229;&#190;&#132; 43029" d="M22.0751 14.2026C21.9664 14.2026 21.8783 14.1145 21.8783 14.0058V13.0217C21.8783 12.5876 21.5252 12.2345 21.0911 12.2345H20.107C19.9983 12.2345 19.9102 12.1463 19.9102 12.0377C19.9102 11.929 19.9983 11.8408 20.107 11.8408H21.0911C21.7421 11.8408 22.2719 12.3707 22.2719 13.0217V14.0058C22.2719 14.1145 22.1838 14.2026 22.0751 14.2026V14.2026Z" fill="white"/>
</g>
<g id="&#231;&#187;&#132; 15893" clip-path="url(#clip2_23_19617)">
<path id="&#232;&#183;&#175;&#229;&#190;&#132; 43124" d="M13.2019 8.21826H12.2178V9.20239H13.2019V8.21826V8.21826Z" fill="white"/>
<path id="&#232;&#183;&#175;&#229;&#190;&#132; 43125" d="M12.4435 7V7.58896H11.589V8.44354H11V7.42447L11.4245 7H12.4435V7Z" fill="white"/>
<path id="&#232;&#183;&#175;&#229;&#190;&#132; 43126" d="M14.421 7.42447V8.44354H13.8324V7.58896H12.9775V7H13.9969L14.421 7.42447V7.42447Z" fill="white"/>
<path id="&#232;&#183;&#175;&#229;&#190;&#132; 43127" d="M14.421 8.97736V9.9964L13.9969 10.4208H12.9775V9.83191H13.8324V8.97736H14.421V8.97736Z" fill="white"/>
<path id="&#232;&#183;&#175;&#229;&#190;&#132; 43128" d="M12.4435 9.83191V10.4208H11.4245L11 9.9964V8.97736H11.589V9.83191H12.4435V9.83191Z" fill="white"/>
</g>
</g>
</g>
<defs>
<linearGradient id="paint0_linear_23_19617" x1="9" y1="5" x2="9" y2="12.8725" gradientUnits="userSpaceOnUse">
<stop stop-color="#9160FF"/>
<stop offset="1" stop-color="#5E75FF"/>
</linearGradient>
<linearGradient id="paint1_linear_23_19617" x1="12.9362" y1="5" x2="12.9362" y2="12.8725" gradientUnits="userSpaceOnUse">
<stop stop-color="#6A6F87"/>
<stop offset="1" stop-color="#9CA0B6"/>
</linearGradient>
<linearGradient id="paint2_linear_23_19617" x1="18.1387" y1="16.564" x2="18.1387" y2="20.5002" gradientUnits="userSpaceOnUse">
<stop stop-color="#9160FF"/>
<stop offset="1" stop-color="#5E75FF"/>
</linearGradient>
<linearGradient id="paint3_linear_23_19617" x1="21.9765" y1="16.564" x2="21.9765" y2="20.5002" gradientUnits="userSpaceOnUse">
<stop stop-color="#6A6F87"/>
<stop offset="1" stop-color="#9CA0B6"/>
</linearGradient>
<clipPath id="clip0_23_19617">
<rect width="24.0112" height="24.4047" fill="white" transform="translate(2 2)"/>
</clipPath>
<clipPath id="clip1_23_19617">
<rect width="24.0112" height="24.4047" fill="white" transform="translate(2 2)"/>
</clipPath>
<clipPath id="clip2_23_19617">
<rect width="3.42084" height="3.42084" fill="white" transform="translate(11 7)"/>
</clipPath>
</defs>
</svg>
