<svg width="29" height="29" viewBox="0 0 29 29" fill="none" xmlns="http://www.w3.org/2000/svg">
<g id="Frame">
<g id="&#231;&#187;&#132; 15902" clip-path="url(#clip0_23_19658)">
<g id="&#231;&#187;&#132; 15836" clip-path="url(#clip1_23_19658)">
<path id="&#232;&#183;&#175;&#229;&#190;&#132; 43030" d="M23.4727 15.4083H5.32922C5.21535 15.4083 5.12305 15.3159 5.12305 15.2021C5.12305 15.0882 5.21535 14.9959 5.32922 14.9959H23.4727C23.5866 14.9959 23.6789 15.0882 23.6789 15.2021C23.6789 15.3159 23.5866 15.4083 23.4727 15.4083V15.4083Z" fill="white"/>
<path id="&#232;&#183;&#175;&#229;&#190;&#132; 43031" d="M9.632 23.5635C9.55818 23.5635 9.48994 23.524 9.45317 23.46C9.41639 23.396 9.41667 23.3172 9.4539 23.2534L18.994 6.94282C19.0515 6.84443 19.1779 6.8113 19.2763 6.86881C19.3747 6.92631 19.4078 7.05268 19.3503 7.15106L9.80974 23.4612C9.77287 23.5244 9.70521 23.5633 9.632 23.5635V23.5635Z" fill="white"/>
<path id="&#232;&#183;&#175;&#229;&#190;&#132; 43032" d="M19.1719 23.5635C19.0986 23.5636 19.0307 23.5246 18.9938 23.4612L9.454 7.15066C9.39651 7.05224 9.42965 6.9259 9.52804 6.86837C9.6264 6.81088 9.7528 6.84402 9.81027 6.94241L19.35 23.253C19.3878 23.3167 19.3883 23.3958 19.3514 23.4601C19.3145 23.5243 19.246 23.5638 19.1719 23.5635V23.5635Z" fill="white"/>
<g id="&#232;&#183;&#175;&#229;&#190;&#132; 43033">
<path d="M8.21582 15.2022C8.21582 18.6182 10.9851 21.3875 14.4011 21.3875C17.8171 21.3875 20.5864 18.6182 20.5864 15.2022C20.5864 11.7861 17.8171 9.01691 14.4011 9.01691C10.9851 9.01691 8.21582 11.7861 8.21582 15.2022V15.2022Z" fill="url(#paint0_linear_23_19658)"/>
<path d="M8.21582 15.2022C8.21582 18.6182 10.9851 21.3875 14.4011 21.3875C17.8171 21.3875 20.5864 18.6182 20.5864 15.2022C20.5864 11.7861 17.8171 9.01691 14.4011 9.01691C10.9851 9.01691 8.21582 11.7861 8.21582 15.2022V15.2022Z" fill="url(#paint1_linear_23_19658)"/>
</g>
<path id="&#232;&#183;&#175;&#229;&#190;&#132; 43034" fill-rule="evenodd" clip-rule="evenodd" d="M8.00977 15.2023C8.00977 18.7267 10.8768 21.5938 14.4012 21.5938C17.9256 21.5938 20.7927 18.7267 20.7927 15.2023C20.7927 11.6779 17.9256 8.81085 14.4012 8.81085C10.8768 8.81085 8.00977 11.6779 8.00977 15.2023ZM8.42212 15.2023C8.42212 11.9055 11.1045 9.22321 14.4012 9.22321C17.698 9.22321 20.3803 11.9055 20.3803 15.2023C20.3803 18.499 17.698 21.1814 14.4012 21.1814C11.1045 21.1814 8.42212 18.499 8.42212 15.2023Z" fill="white"/>
<path id="&#232;&#183;&#175;&#229;&#190;&#132; 43038" fill-rule="evenodd" clip-rule="evenodd" d="M8.59057 7.53587C7.34032 7.53587 6.32263 6.5186 6.32263 5.26793C6.32263 4.01727 7.34032 3 8.59057 3C9.84082 3 10.8585 4.01727 10.8585 5.26793C10.8585 6.5186 9.84082 7.53587 8.59057 7.53587ZM3.26793 17.4702C2.6661 17.472 2.08862 17.2327 1.6643 16.8059C1.23587 16.3779 1 15.8081 1 15.2023C1 14.5966 1.23587 14.0267 1.6643 13.5987C2.09232 13.1702 2.66219 12.9344 3.26793 12.9344C3.87368 12.9344 4.44355 13.1702 4.87157 13.5987C5.3 14.0267 5.53587 14.5966 5.53587 15.2023C5.53587 15.8081 5.3 16.3779 4.87157 16.8059C4.44725 17.2327 3.86976 17.472 3.26793 17.4702ZM23.9313 16.8059C24.3556 17.2327 24.9331 17.472 25.5349 17.4702C26.1367 17.472 26.7142 17.2327 27.1386 16.8059C27.567 16.3779 27.8029 15.8081 27.8029 15.2023C27.8029 14.5966 27.567 14.0267 27.1386 13.5987C26.7105 13.1702 26.1407 12.9344 25.5349 12.9344C24.9292 12.9344 24.3593 13.1702 23.9313 13.5987C23.5028 14.0267 23.267 14.5966 23.267 15.2023C23.267 15.8081 23.5028 16.3779 23.9313 16.8059ZM24.2228 13.8902C24.57 13.5411 25.0425 13.3454 25.5349 13.3467C26.0273 13.3454 26.4998 13.5411 26.847 13.8902C27.1975 14.2407 27.3905 14.7067 27.3905 15.2023C27.3905 15.698 27.1979 16.1639 26.847 16.5144C26.4965 16.8649 26.031 17.0579 25.5349 17.0579C25.0389 17.0579 24.5733 16.8649 24.2228 16.5144C23.8723 16.1639 23.6793 15.698 23.6793 15.2023C23.6793 14.7067 23.8723 14.2407 24.2228 13.8902ZM1.95583 13.8902C2.30305 13.5411 2.77553 13.3454 3.26793 13.3467C3.76034 13.3454 4.23282 13.5411 4.58004 13.8902C4.93054 14.2407 5.12352 14.7067 5.12352 15.2023C5.12352 15.698 4.93054 16.1639 4.58004 16.5144C4.22954 16.8649 3.76358 17.0579 3.26793 17.0579C2.77229 17.0579 2.30633 16.8649 1.95583 16.5144C1.60533 16.1639 1.41235 15.698 1.41235 15.2023C1.41235 14.7067 1.60533 14.2407 1.95583 13.8902ZM20.2123 27.4046C18.962 27.4046 17.9444 26.3873 17.9444 25.1367C17.9444 23.886 18.962 22.8687 20.2123 22.8687C21.4625 22.8687 22.4802 23.886 22.4802 25.1367C22.4802 26.3873 21.4625 27.4046 20.2123 27.4046ZM18.3567 25.1367C18.3567 24.1136 19.1892 23.2811 20.2123 23.2811C21.2353 23.2811 22.0679 24.1136 22.0679 25.1367C22.0679 26.1597 21.2353 26.9923 20.2123 26.9923C19.1892 26.9923 18.3567 26.1597 18.3567 25.1367ZM6.73499 5.26793C6.73499 4.24489 7.56752 3.41235 8.59057 3.41235C9.61403 3.41235 10.4462 4.24489 10.4462 5.26793C10.4462 6.29097 9.61361 7.12352 8.59057 7.12352C7.56752 7.12352 6.73499 6.29097 6.73499 5.26793ZM20.2123 7.53587C18.962 7.53587 17.9444 6.5186 17.9444 5.26793C17.9444 4.01727 18.962 3 20.2123 3C21.4625 3 22.4802 4.01727 22.4802 5.26793C22.4802 6.5186 21.4625 7.53587 20.2123 7.53587ZM18.3567 5.26793C18.3567 4.24489 19.1892 3.41235 20.2123 3.41235C21.2353 3.41235 22.0679 4.24489 22.0679 5.26793C22.0679 6.29097 21.2353 7.12352 20.2123 7.12352C19.1892 7.12352 18.3567 6.29097 18.3567 5.26793ZM8.59057 27.4046C7.34032 27.4046 6.32263 26.3873 6.32263 25.1367C6.32263 23.886 7.34032 22.8687 8.59057 22.8687C9.84082 22.8687 10.8585 23.886 10.8585 25.1367C10.8585 26.3873 9.84082 27.4046 8.59057 27.4046ZM6.73499 25.1367C6.73499 24.1136 7.56752 23.2811 8.59057 23.2811C9.61403 23.2811 10.4462 24.1136 10.4462 25.1367C10.4462 26.1597 9.61361 26.9923 8.59057 26.9923C7.56752 26.9923 6.73499 26.1597 6.73499 25.1367Z" fill="white"/>
<path id="&#232;&#183;&#175;&#229;&#190;&#132; 43039" fill-rule="evenodd" clip-rule="evenodd" d="M10.6523 25.3431H18.1505C18.2053 25.3431 18.2578 25.3213 18.2965 25.2825C18.3351 25.2438 18.3568 25.1912 18.3567 25.1365C18.3578 24.1121 19.1879 23.282 20.2123 23.2809C20.5173 23.283 20.817 23.3614 21.084 23.5089C21.1321 23.5352 21.1888 23.5408 21.2411 23.5246C21.2935 23.509 21.3375 23.4731 21.3631 23.4248L24.7469 17.1088C24.8003 17.0085 24.7627 16.8838 24.6628 16.8297C24.4793 16.7315 24.3395 16.6313 24.2228 16.5146C23.8723 16.1641 23.6793 15.6982 23.6793 15.2025C23.6793 14.7069 23.8723 14.2409 24.2236 13.8904C24.3537 13.764 24.502 13.6578 24.6636 13.5754C24.7636 13.5212 24.8011 13.3966 24.7477 13.2962L21.3636 6.98022C21.3379 6.93178 21.2939 6.89563 21.2413 6.87982C21.1888 6.86403 21.1321 6.86989 21.084 6.8961C20.8032 7.04744 20.51 7.12413 20.2127 7.12413C19.1896 7.12413 18.3571 6.2916 18.3571 5.26855C18.3571 5.15468 18.2648 5.06238 18.1509 5.06238H10.6527C10.5389 5.06238 10.4466 5.15468 10.4466 5.26855C10.4466 6.2916 9.61402 7.12413 8.59098 7.12413C8.28606 7.12207 7.98652 7.04367 7.71968 6.8961C7.67143 6.86986 7.61463 6.86421 7.56215 6.88043C7.50975 6.89601 7.46578 6.93196 7.44011 6.98022L4.05593 13.2962C4.00257 13.3966 4.04012 13.5212 4.14005 13.5754C4.30166 13.6578 4.44997 13.764 4.58003 13.8904C4.93053 14.2409 5.12352 14.7069 5.12352 15.2025C5.12352 15.6982 4.93053 16.1641 4.57962 16.515C4.44956 16.6415 4.30124 16.7477 4.13964 16.8301C4.03971 16.8842 4.00216 17.0089 4.05552 17.1092L7.43969 23.4252C7.4654 23.4736 7.50933 23.5096 7.56175 23.5254C7.61416 23.5412 7.67073 23.5354 7.71885 23.5093C8.00008 23.358 8.29326 23.2813 8.59057 23.2813C9.61361 23.2813 10.4461 24.1138 10.4461 25.1369C10.4461 25.2507 10.5384 25.3431 10.6523 25.3431ZM17.9538 24.9307H10.8494C10.7451 23.7761 9.77153 22.869 8.59098 22.869C8.2875 22.8697 7.98745 22.9333 7.70978 23.0557L4.51323 17.0898C4.64284 17.0089 4.76303 16.9137 4.87156 16.8062C5.3 16.3781 5.53586 15.8083 5.53586 15.2025C5.53586 14.5968 5.3 14.0269 4.87156 13.5989C4.76765 13.4946 4.65095 13.4022 4.51323 13.3152L7.70937 7.34927C7.98702 7.47182 8.28708 7.53542 8.59057 7.53607C9.76281 7.53488 10.7415 6.64159 10.8494 5.47432H17.953C18.0611 6.64149 19.0397 7.53468 20.2119 7.53607C20.5154 7.53546 20.8154 7.47185 21.0931 7.34927L24.2896 13.3152C24.1519 13.4022 24.0352 13.495 23.9313 13.5989C23.5028 14.0269 23.267 14.5968 23.267 15.2025C23.267 15.8083 23.5028 16.3781 23.9321 16.8062C24.0404 16.914 24.1606 17.0091 24.2904 17.0898L21.0939 23.0557C20.8081 22.9316 20.5129 22.869 20.2127 22.869C19.0404 22.8701 18.0617 23.7634 17.9538 24.9307ZM12.1335 26.5422H11.7211C11.6073 26.5422 11.515 26.4499 11.515 26.336C11.515 26.2221 11.6073 26.1298 11.7211 26.1298H12.1335C12.2474 26.1298 12.3397 26.2221 12.3397 26.336C12.3397 26.4499 12.2474 26.5422 12.1335 26.5422ZM12.9582 26.5422H17.0817C17.1956 26.5422 17.2879 26.4499 17.2879 26.336C17.2879 26.2221 17.1956 26.1298 17.0817 26.1298H12.9582C12.8443 26.1298 12.752 26.2221 12.752 26.336C12.752 26.4499 12.8443 26.5422 12.9582 26.5422Z" fill="white"/>
<path id="&#232;&#183;&#175;&#229;&#190;&#132; 43040" d="M17.0814 4.23705H16.6691C16.5552 4.23705 16.4629 4.14474 16.4629 4.03088C16.4629 3.91702 16.5552 3.82471 16.6691 3.82471H17.0814C17.1953 3.82471 17.2876 3.91702 17.2876 4.03088C17.2876 4.14475 17.1953 4.23705 17.0814 4.23705V4.23705Z" fill="white"/>
<path id="&#232;&#183;&#175;&#229;&#190;&#132; 43041" d="M15.8443 4.23705H11.7208C11.6069 4.23705 11.5146 4.14474 11.5146 4.03088C11.5146 3.91702 11.6069 3.82471 11.7208 3.82471H15.8443C15.9582 3.82471 16.0505 3.91702 16.0505 4.03088C16.0505 4.14475 15.9582 4.23705 15.8443 4.23705V4.23705Z" fill="white"/>
</g>
<g id="&#231;&#187;&#132; 15894" clip-path="url(#clip2_23_19658)">
<path id="&#232;&#183;&#175;&#229;&#190;&#132; 43124" d="M15.5069 14.4929H13.4932V16.5067H15.5069V14.4929V14.4929Z" fill="white"/>
<path id="&#232;&#183;&#175;&#229;&#190;&#132; 43125" d="M13.9539 12V13.2052H12.2051V14.9539H11V12.8686L11.8686 12H13.9539V12Z" fill="white"/>
<path id="&#232;&#183;&#175;&#229;&#190;&#132; 43126" d="M17.9997 12.8686V14.9539H16.7952V13.2052H15.0459V12H17.1318L17.9997 12.8686V12.8686Z" fill="white"/>
<path id="&#232;&#183;&#175;&#229;&#190;&#132; 43127" d="M17.9997 16.046V18.1312L17.1318 18.9998H15.0459V17.7946H16.7952V16.046H17.9997V16.046Z" fill="white"/>
<path id="&#232;&#183;&#175;&#229;&#190;&#132; 43128" d="M13.9539 17.7946V18.9998H11.8686L11 18.1312V16.046H12.2051V17.7946H13.9539V17.7946Z" fill="white"/>
</g>
</g>
</g>
<defs>
<linearGradient id="paint0_linear_23_19658" x1="8.21582" y1="9.01691" x2="8.21582" y2="21.3875" gradientUnits="userSpaceOnUse">
<stop stop-color="#9160FF"/>
<stop offset="1" stop-color="#5E75FF"/>
</linearGradient>
<linearGradient id="paint1_linear_23_19658" x1="14.4011" y1="9.01691" x2="14.4011" y2="21.3875" gradientUnits="userSpaceOnUse">
<stop stop-color="#6A6F87"/>
<stop offset="1" stop-color="#9CA0B6"/>
</linearGradient>
<clipPath id="clip0_23_19658">
<rect width="26.8029" height="24.4046" fill="white" transform="translate(1 3)"/>
</clipPath>
<clipPath id="clip1_23_19658">
<rect width="26.8029" height="24.4046" fill="white" transform="translate(1 3)"/>
</clipPath>
<clipPath id="clip2_23_19658">
<rect width="7" height="7" fill="white" transform="translate(11 12)"/>
</clipPath>
</defs>
</svg>
