<svg width="20" height="21" viewBox="0 0 20 21" fill="none" xmlns="http://www.w3.org/2000/svg">
<g id="Frame 627">
<path id="Vector" d="M4.96449 9.4993C4.55156 9.54711 4.597 9.55816 4.42772 9.6106C3.58175 9.87216 3.00338 10.6822 3.00223 11.6075C2.99955 13.7092 2.99897 15.8107 3.00223 17.9125C3.00396 19.0559 3.87601 19.9871 4.9687 19.9941C6.65548 20.0048 8.34226 19.9977 10.029 19.9977C11.6769 19.9979 13.325 20.0003 14.9728 19.9965C15.893 19.9943 16.6608 19.4035 16.913 18.5015C16.9638 18.3201 16.9945 18.1256 16.9951 17.9372C17.0006 15.8192 17.0016 13.7012 16.9974 11.5834C16.9953 10.5628 16.2578 9.69075 15.2891 9.5443C15.2475 9.53807 15.2063 9.52803 15.1565 9.51819V9.36932C15.1565 8.42835 15.1348 6.24445 15.1615 5.30447C15.2042 3.78854 14.2409 2.64848 13.083 2.2254C12.8179 2.12857 12.5336 2.089 12.2583 2.0229C12.2284 2.01587 12.1989 2.00763 12.1692 2H7.97094C7.70562 2.05766 7.43149 2.08819 7.17634 2.17759C6.10032 2.55486 5.34942 3.28149 5.05267 4.45571C4.98979 4.70421 4.97081 4.97039 4.96832 5.22894C4.96391 5.66327 4.96276 6.35112 4.96276 7.06228H6.91466C6.91716 6.69063 6.92099 6.35896 6.92732 6.15164C6.93633 5.85673 6.97754 5.559 7.04023 5.27113C7.20797 4.50111 7.62683 4.10455 8.37178 3.98863C8.57096 3.95769 8.77359 3.93821 8.97468 3.9364C9.66232 3.93017 10.3501 3.92475 11.0376 3.93861C11.3154 3.94423 11.5964 3.97859 11.8684 4.03765C12.4107 4.15537 12.7558 4.51075 12.9155 5.06722C13.0238 5.4447 13.0662 5.83322 13.0734 6.22376C13.0859 6.87887 13.0807 8.77689 13.0825 9.43241C13.0825 9.45631 13.0784 9.48042 13.0754 9.51698H6.91505L4.96449 9.4993ZM10.9795 16.9902C10.9783 17.5382 10.604 17.9786 10.1007 18.0262C9.58928 18.0746 9.14281 17.7072 9.05443 17.1639C9.04715 17.1201 9.04408 17.0749 9.04408 17.0303C9.04351 15.964 9.04178 14.8977 9.04466 13.8315C9.04581 13.3996 9.2977 13.0326 9.67976 12.8859C10.0576 12.7409 10.4721 12.8508 10.7395 13.1702C10.8996 13.3611 10.9791 13.5858 10.9793 13.8402C10.9799 14.3693 10.9795 14.8983 10.9795 15.4272C10.9797 15.9483 10.9806 16.4693 10.9795 16.9902Z" fill="url(#paint0_linear_23_20996)"/>
</g>
<defs>
<linearGradient id="paint0_linear_23_20996" x1="1.62904" y1="-3.1703" x2="1.62904" y2="20" gradientUnits="userSpaceOnUse">
<stop stop-color="#9160FF"/>
<stop offset="1" stop-color="#5E75FF"/>
</linearGradient>
</defs>
</svg>
